%
M48
M72
T01C0.01200
T02C0.03200
T03C0.04000
T04C0.04400
T05C0.04724
T06C0.05118
T07C0.13000
%
T01
X158622Y178622
X141122Y183622
X186122Y156122
T02
X218343Y138624
X218901Y178620
X99661Y225300
X77584Y191945
X83622Y156122
X78622Y148622
X88622Y148622
X72847Y120471
X94398Y86773
X133622Y53622
X173622Y53622
T03
X243122Y138622
X254122Y138622
X254121Y173497
X243124Y173747
X254883Y200639
X262795Y206754
X270707Y212869
X89122Y173622
X78122Y173622
T04
X73575Y42156
X82018Y47514
X90461Y52872
X51122Y136122
X51122Y176122
X90813Y258873
X82493Y264421
X74174Y269970
T05
X288622Y163622
X288791Y149844
X175661Y18622
X160481Y18622
X148102Y18622
X132922Y18622
T06
X213622Y28622
X229608Y40109
X245594Y51596
X268622Y83622
X276973Y101448
X285323Y119275
X23622Y138622
X23622Y158307
X23622Y177992
T07
X44209Y207016
X108622Y283622
X193622Y283622
X226715Y253436
X283622Y193622
X103622Y28622
X45046Y105773
M30
