G75*
%MOIN*%
%OFA0B0*%
%FSLAX25Y25*%
%IPPOS*%
%LPD*%
%AMOC8*
5,1,8,0,0,1.08239X$1,22.5*
%
%ADD10C,0.01600*%
%ADD11C,0.00800*%
%ADD12C,0.00400*%
%ADD13C,0.01000*%
%ADD14C,0.00500*%
%ADD15C,0.00200*%
%ADD16C,0.00700*%
%ADD17R,0.03000X0.02500*%
%ADD18R,0.05000X0.11000*%
%ADD19C,0.00000*%
%ADD20C,0.00600*%
%ADD21R,0.03400X0.02400*%
%ADD22C,0.01200*%
%ADD23C,0.00080*%
%ADD24R,0.05000X0.03500*%
D10*
X0001800Y0153622D02*
X0001846Y0157348D01*
X0001983Y0161072D01*
X0002211Y0164791D01*
X0002531Y0168503D01*
X0002942Y0172207D01*
X0003443Y0175899D01*
X0004035Y0179578D01*
X0004717Y0183241D01*
X0005489Y0186886D01*
X0006350Y0190512D01*
X0007300Y0194115D01*
X0008337Y0197694D01*
X0009463Y0201246D01*
X0010675Y0204769D01*
X0011973Y0208262D01*
X0013357Y0211722D01*
X0014825Y0215147D01*
X0016377Y0218534D01*
X0018011Y0221883D01*
X0019727Y0225190D01*
X0021524Y0228455D01*
X0023400Y0231674D01*
X0025355Y0234846D01*
X0027387Y0237970D01*
X0029495Y0241042D01*
X0031677Y0244062D01*
X0033934Y0247028D01*
X0036262Y0249937D01*
X0038661Y0252788D01*
X0041129Y0255579D01*
X0043665Y0258309D01*
X0046268Y0260976D01*
X0048935Y0263579D01*
X0051665Y0266115D01*
X0054456Y0268583D01*
X0057307Y0270982D01*
X0060216Y0273310D01*
X0063182Y0275567D01*
X0066202Y0277749D01*
X0069274Y0279857D01*
X0072398Y0281889D01*
X0075570Y0283844D01*
X0078789Y0285720D01*
X0082054Y0287517D01*
X0085361Y0289233D01*
X0088710Y0290867D01*
X0092097Y0292419D01*
X0095522Y0293887D01*
X0098982Y0295271D01*
X0102475Y0296569D01*
X0105998Y0297781D01*
X0109550Y0298907D01*
X0113129Y0299944D01*
X0116732Y0300894D01*
X0120358Y0301755D01*
X0124003Y0302527D01*
X0127666Y0303209D01*
X0131345Y0303801D01*
X0135037Y0304302D01*
X0138741Y0304713D01*
X0142453Y0305033D01*
X0146172Y0305261D01*
X0149896Y0305398D01*
X0153622Y0305444D01*
X0157348Y0305398D01*
X0161072Y0305261D01*
X0164791Y0305033D01*
X0168503Y0304713D01*
X0172207Y0304302D01*
X0175899Y0303801D01*
X0179578Y0303209D01*
X0183241Y0302527D01*
X0186886Y0301755D01*
X0190512Y0300894D01*
X0194115Y0299944D01*
X0197694Y0298907D01*
X0201246Y0297781D01*
X0204769Y0296569D01*
X0208262Y0295271D01*
X0211722Y0293887D01*
X0215147Y0292419D01*
X0218534Y0290867D01*
X0221883Y0289233D01*
X0225190Y0287517D01*
X0228455Y0285720D01*
X0231674Y0283844D01*
X0234846Y0281889D01*
X0237970Y0279857D01*
X0241042Y0277749D01*
X0244062Y0275567D01*
X0247028Y0273310D01*
X0249937Y0270982D01*
X0252788Y0268583D01*
X0255579Y0266115D01*
X0258309Y0263579D01*
X0260976Y0260976D01*
X0263579Y0258309D01*
X0266115Y0255579D01*
X0268583Y0252788D01*
X0270982Y0249937D01*
X0273310Y0247028D01*
X0275567Y0244062D01*
X0277749Y0241042D01*
X0279857Y0237970D01*
X0281889Y0234846D01*
X0283844Y0231674D01*
X0285720Y0228455D01*
X0287517Y0225190D01*
X0289233Y0221883D01*
X0290867Y0218534D01*
X0292419Y0215147D01*
X0293887Y0211722D01*
X0295271Y0208262D01*
X0296569Y0204769D01*
X0297781Y0201246D01*
X0298907Y0197694D01*
X0299944Y0194115D01*
X0300894Y0190512D01*
X0301755Y0186886D01*
X0302527Y0183241D01*
X0303209Y0179578D01*
X0303801Y0175899D01*
X0304302Y0172207D01*
X0304713Y0168503D01*
X0305033Y0164791D01*
X0305261Y0161072D01*
X0305398Y0157348D01*
X0305444Y0153622D01*
X0305398Y0149896D01*
X0305261Y0146172D01*
X0305033Y0142453D01*
X0304713Y0138741D01*
X0304302Y0135037D01*
X0303801Y0131345D01*
X0303209Y0127666D01*
X0302527Y0124003D01*
X0301755Y0120358D01*
X0300894Y0116732D01*
X0299944Y0113129D01*
X0298907Y0109550D01*
X0297781Y0105998D01*
X0296569Y0102475D01*
X0295271Y0098982D01*
X0293887Y0095522D01*
X0292419Y0092097D01*
X0290867Y0088710D01*
X0289233Y0085361D01*
X0287517Y0082054D01*
X0285720Y0078789D01*
X0283844Y0075570D01*
X0281889Y0072398D01*
X0279857Y0069274D01*
X0277749Y0066202D01*
X0275567Y0063182D01*
X0273310Y0060216D01*
X0270982Y0057307D01*
X0268583Y0054456D01*
X0266115Y0051665D01*
X0263579Y0048935D01*
X0260976Y0046268D01*
X0258309Y0043665D01*
X0255579Y0041129D01*
X0252788Y0038661D01*
X0249937Y0036262D01*
X0247028Y0033934D01*
X0244062Y0031677D01*
X0241042Y0029495D01*
X0237970Y0027387D01*
X0234846Y0025355D01*
X0231674Y0023400D01*
X0228455Y0021524D01*
X0225190Y0019727D01*
X0221883Y0018011D01*
X0218534Y0016377D01*
X0215147Y0014825D01*
X0211722Y0013357D01*
X0208262Y0011973D01*
X0204769Y0010675D01*
X0201246Y0009463D01*
X0197694Y0008337D01*
X0194115Y0007300D01*
X0190512Y0006350D01*
X0186886Y0005489D01*
X0183241Y0004717D01*
X0179578Y0004035D01*
X0175899Y0003443D01*
X0172207Y0002942D01*
X0168503Y0002531D01*
X0164791Y0002211D01*
X0161072Y0001983D01*
X0157348Y0001846D01*
X0153622Y0001800D01*
X0149896Y0001846D01*
X0146172Y0001983D01*
X0142453Y0002211D01*
X0138741Y0002531D01*
X0135037Y0002942D01*
X0131345Y0003443D01*
X0127666Y0004035D01*
X0124003Y0004717D01*
X0120358Y0005489D01*
X0116732Y0006350D01*
X0113129Y0007300D01*
X0109550Y0008337D01*
X0105998Y0009463D01*
X0102475Y0010675D01*
X0098982Y0011973D01*
X0095522Y0013357D01*
X0092097Y0014825D01*
X0088710Y0016377D01*
X0085361Y0018011D01*
X0082054Y0019727D01*
X0078789Y0021524D01*
X0075570Y0023400D01*
X0072398Y0025355D01*
X0069274Y0027387D01*
X0066202Y0029495D01*
X0063182Y0031677D01*
X0060216Y0033934D01*
X0057307Y0036262D01*
X0054456Y0038661D01*
X0051665Y0041129D01*
X0048935Y0043665D01*
X0046268Y0046268D01*
X0043665Y0048935D01*
X0041129Y0051665D01*
X0038661Y0054456D01*
X0036262Y0057307D01*
X0033934Y0060216D01*
X0031677Y0063182D01*
X0029495Y0066202D01*
X0027387Y0069274D01*
X0025355Y0072398D01*
X0023400Y0075570D01*
X0021524Y0078789D01*
X0019727Y0082054D01*
X0018011Y0085361D01*
X0016377Y0088710D01*
X0014825Y0092097D01*
X0013357Y0095522D01*
X0011973Y0098982D01*
X0010675Y0102475D01*
X0009463Y0105998D01*
X0008337Y0109550D01*
X0007300Y0113129D01*
X0006350Y0116732D01*
X0005489Y0120358D01*
X0004717Y0124003D01*
X0004035Y0127666D01*
X0003443Y0131345D01*
X0002942Y0135037D01*
X0002531Y0138741D01*
X0002211Y0142453D01*
X0001983Y0146172D01*
X0001846Y0149896D01*
X0001800Y0153622D01*
D11*
X0007087Y0126418D02*
X0032677Y0126418D01*
X0032677Y0190197D01*
X0036614Y0190197D01*
X0036614Y0126418D01*
X0032677Y0126418D01*
X0007087Y0126418D02*
X0007087Y0190197D01*
X0032677Y0190197D01*
X0073170Y0147622D02*
X0074749Y0147622D01*
X0075376Y0142122D02*
X0091868Y0142122D01*
X0092495Y0147622D02*
X0094075Y0147622D01*
X0084749Y0147622D02*
X0082495Y0147622D01*
X0114889Y0259022D02*
X0114889Y0268230D01*
X0117958Y0265161D01*
X0121027Y0268230D01*
X0121027Y0259022D01*
X0124097Y0260557D02*
X0124097Y0263626D01*
X0125631Y0265161D01*
X0128701Y0265161D01*
X0130235Y0263626D01*
X0130235Y0262092D01*
X0124097Y0262092D01*
X0124097Y0260557D02*
X0125631Y0259022D01*
X0128701Y0259022D01*
X0133305Y0260557D02*
X0134839Y0262092D01*
X0139443Y0262092D01*
X0139443Y0263626D02*
X0139443Y0259022D01*
X0134839Y0259022D01*
X0133305Y0260557D01*
X0134839Y0265161D02*
X0137908Y0265161D01*
X0139443Y0263626D01*
X0142512Y0265161D02*
X0145582Y0265161D01*
X0144047Y0266695D02*
X0144047Y0260557D01*
X0145582Y0259022D01*
X0157859Y0259022D02*
X0157859Y0268230D01*
X0157859Y0263626D02*
X0163997Y0263626D01*
X0167067Y0263626D02*
X0167067Y0260557D01*
X0168601Y0259022D01*
X0171671Y0259022D01*
X0173205Y0260557D01*
X0173205Y0263626D01*
X0171671Y0265161D01*
X0168601Y0265161D01*
X0167067Y0263626D01*
X0163997Y0268230D02*
X0163997Y0259022D01*
X0176275Y0260557D02*
X0177809Y0259022D01*
X0180878Y0259022D01*
X0182413Y0260557D01*
X0182413Y0263626D01*
X0180878Y0265161D01*
X0177809Y0265161D01*
X0176275Y0263626D01*
X0176275Y0260557D01*
X0185482Y0262092D02*
X0190086Y0265161D01*
X0185482Y0268230D02*
X0185482Y0259022D01*
X0185482Y0262092D02*
X0190086Y0259022D01*
X0274366Y0170338D02*
X0277515Y0170377D01*
X0277852Y0142820D01*
X0274703Y0142781D01*
X0274366Y0170338D01*
X0277515Y0170377D02*
X0301923Y0170675D01*
X0302260Y0143118D01*
X0277852Y0142820D01*
X0275526Y0137341D02*
X0298700Y0126486D01*
X0271645Y0068729D01*
X0248471Y0079584D01*
X0275526Y0137341D01*
X0298700Y0126486D02*
X0302266Y0124816D01*
X0275210Y0067059D01*
X0271645Y0068729D01*
X0260789Y0051365D02*
X0208995Y0014147D01*
X0194062Y0034928D01*
X0245856Y0072146D01*
X0260789Y0051365D01*
X0263087Y0048168D01*
X0211292Y0010950D01*
X0208995Y0014147D01*
X0184016Y0007599D02*
X0184016Y0004449D01*
X0124567Y0004449D01*
X0124567Y0007599D01*
X0184016Y0007599D01*
X0184016Y0032008D01*
X0124567Y0032008D01*
X0124567Y0007599D01*
D12*
X0132288Y0033822D02*
X0131520Y0034590D01*
X0131520Y0037659D01*
X0132288Y0038426D01*
X0133822Y0038426D01*
X0134590Y0037659D01*
X0134590Y0036124D02*
X0133055Y0036124D01*
X0134590Y0036124D02*
X0134590Y0034590D01*
X0133822Y0033822D01*
X0132288Y0033822D01*
X0144020Y0033822D02*
X0146322Y0033822D01*
X0147090Y0034590D01*
X0147090Y0037659D01*
X0146322Y0038426D01*
X0144020Y0038426D01*
X0144020Y0033822D01*
X0159020Y0034590D02*
X0159788Y0033822D01*
X0161322Y0033822D01*
X0162090Y0034590D01*
X0162090Y0037659D02*
X0161322Y0038426D01*
X0159788Y0038426D01*
X0159020Y0037659D01*
X0159020Y0034590D01*
X0170765Y0034590D02*
X0171533Y0033822D01*
X0173067Y0033822D01*
X0173835Y0034590D01*
X0173835Y0035357D01*
X0173067Y0036124D01*
X0172300Y0036124D01*
X0173067Y0036124D02*
X0173835Y0036892D01*
X0173835Y0037659D01*
X0173067Y0038426D01*
X0171533Y0038426D01*
X0170765Y0037659D01*
X0175369Y0034590D02*
X0176137Y0034590D01*
X0176137Y0033822D01*
X0175369Y0033822D01*
X0175369Y0034590D01*
X0177671Y0034590D02*
X0178439Y0033822D01*
X0179973Y0033822D01*
X0180741Y0034590D01*
X0180741Y0035357D01*
X0179973Y0036124D01*
X0179206Y0036124D01*
X0179973Y0036124D02*
X0180741Y0036892D01*
X0180741Y0037659D01*
X0179973Y0038426D01*
X0178439Y0038426D01*
X0177671Y0037659D01*
X0182275Y0038426D02*
X0182275Y0035357D01*
X0183810Y0033822D01*
X0185344Y0035357D01*
X0185344Y0038426D01*
X0199020Y0044590D02*
X0199788Y0043822D01*
X0201322Y0043822D01*
X0202090Y0044590D01*
X0202090Y0046124D01*
X0200555Y0046124D01*
X0199020Y0047659D02*
X0199020Y0044590D01*
X0199020Y0047659D02*
X0199788Y0048426D01*
X0201322Y0048426D01*
X0202090Y0047659D01*
X0204231Y0056322D02*
X0202696Y0057857D01*
X0202696Y0060926D01*
X0205765Y0060926D02*
X0205765Y0057857D01*
X0204231Y0056322D01*
X0207300Y0057090D02*
X0208067Y0057857D01*
X0210369Y0057857D01*
X0210369Y0058624D02*
X0210369Y0056322D01*
X0208067Y0056322D01*
X0207300Y0057090D01*
X0208067Y0059392D02*
X0209602Y0059392D01*
X0210369Y0058624D01*
X0211904Y0059392D02*
X0214206Y0059392D01*
X0214973Y0058624D01*
X0214973Y0057090D01*
X0214206Y0056322D01*
X0211904Y0056322D01*
X0211904Y0054788D02*
X0211904Y0059392D01*
X0216508Y0058624D02*
X0216508Y0057090D01*
X0217275Y0056322D01*
X0218810Y0056322D01*
X0219577Y0057090D01*
X0219577Y0058624D01*
X0218810Y0059392D01*
X0217275Y0059392D01*
X0216508Y0058624D01*
X0221112Y0057857D02*
X0222646Y0059392D01*
X0223414Y0059392D01*
X0221112Y0059392D02*
X0221112Y0056322D01*
X0220765Y0071322D02*
X0220765Y0074392D01*
X0220765Y0072857D02*
X0222300Y0074392D01*
X0223067Y0074392D01*
X0224602Y0074392D02*
X0225369Y0074392D01*
X0225369Y0071322D01*
X0224602Y0071322D02*
X0226137Y0071322D01*
X0227671Y0072090D02*
X0227671Y0073624D01*
X0228439Y0074392D01*
X0230741Y0074392D01*
X0230741Y0075926D02*
X0230741Y0071322D01*
X0228439Y0071322D01*
X0227671Y0072090D01*
X0225369Y0075926D02*
X0225369Y0076694D01*
X0219231Y0075926D02*
X0216161Y0075926D01*
X0216161Y0071322D01*
X0216161Y0073624D02*
X0217696Y0073624D01*
X0232275Y0073624D02*
X0232275Y0072090D01*
X0233042Y0071322D01*
X0235344Y0071322D01*
X0235344Y0070555D02*
X0235344Y0074392D01*
X0233042Y0074392D01*
X0232275Y0073624D01*
X0233810Y0069788D02*
X0234577Y0069788D01*
X0235344Y0070555D01*
X0236879Y0072090D02*
X0236879Y0073624D01*
X0237646Y0074392D01*
X0239181Y0074392D01*
X0239948Y0073624D01*
X0239948Y0072857D01*
X0236879Y0072857D01*
X0236879Y0072090D02*
X0237646Y0071322D01*
X0239181Y0071322D01*
X0247288Y0088822D02*
X0248822Y0088822D01*
X0249590Y0089590D01*
X0249590Y0091124D01*
X0248055Y0091124D01*
X0246520Y0089590D02*
X0247288Y0088822D01*
X0246520Y0089590D02*
X0246520Y0092659D01*
X0247288Y0093426D01*
X0248822Y0093426D01*
X0249590Y0092659D01*
X0251112Y0106322D02*
X0250344Y0107090D01*
X0250344Y0108624D01*
X0251112Y0109392D01*
X0252646Y0109392D01*
X0253414Y0108624D01*
X0253414Y0107857D01*
X0250344Y0107857D01*
X0248810Y0107857D02*
X0248810Y0107090D01*
X0248042Y0106322D01*
X0246508Y0106322D01*
X0245741Y0107090D01*
X0246508Y0108624D02*
X0245741Y0109392D01*
X0245741Y0110159D01*
X0246508Y0110926D01*
X0248042Y0110926D01*
X0248810Y0110159D01*
X0248042Y0108624D02*
X0248810Y0107857D01*
X0248042Y0108624D02*
X0246508Y0108624D01*
X0251112Y0106322D02*
X0252646Y0106322D01*
X0254948Y0106322D02*
X0254948Y0109392D01*
X0257250Y0109392D01*
X0258018Y0108624D01*
X0258018Y0106322D01*
X0259552Y0106322D02*
X0261854Y0106322D01*
X0262622Y0107090D01*
X0261854Y0107857D01*
X0260320Y0107857D01*
X0259552Y0108624D01*
X0260320Y0109392D01*
X0262622Y0109392D01*
X0261520Y0126322D02*
X0259986Y0126322D01*
X0259218Y0127090D01*
X0259218Y0128624D02*
X0260753Y0129392D01*
X0261520Y0129392D01*
X0262288Y0128624D01*
X0262288Y0127090D01*
X0261520Y0126322D01*
X0263822Y0127857D02*
X0265357Y0126322D01*
X0266892Y0127857D01*
X0266892Y0130926D01*
X0263822Y0130926D02*
X0263822Y0127857D01*
X0262288Y0130926D02*
X0259218Y0130926D01*
X0259218Y0128624D01*
X0254193Y0130926D02*
X0251124Y0130926D01*
X0251124Y0126322D01*
X0249590Y0126322D02*
X0249590Y0129392D01*
X0251124Y0128624D02*
X0252659Y0128624D01*
X0249590Y0126322D02*
X0247288Y0126322D01*
X0246520Y0127090D01*
X0246520Y0129392D01*
X0243451Y0130926D02*
X0243451Y0126322D01*
X0241916Y0126322D02*
X0244986Y0126322D01*
X0241916Y0129392D02*
X0243451Y0130926D01*
X0259416Y0148822D02*
X0262486Y0148822D01*
X0264020Y0148822D02*
X0267090Y0151892D01*
X0267090Y0152659D01*
X0266322Y0153426D01*
X0264788Y0153426D01*
X0264020Y0152659D01*
X0260951Y0153426D02*
X0260951Y0148822D01*
X0264020Y0148822D02*
X0267090Y0148822D01*
X0268624Y0150357D02*
X0268624Y0153426D01*
X0268624Y0150357D02*
X0270159Y0148822D01*
X0271693Y0150357D01*
X0271693Y0153426D01*
X0260951Y0153426D02*
X0259416Y0151892D01*
X0254577Y0161322D02*
X0254577Y0165926D01*
X0257646Y0165926D01*
X0256112Y0163624D02*
X0254577Y0163624D01*
X0253042Y0164392D02*
X0253042Y0161322D01*
X0250741Y0161322D01*
X0249973Y0162090D01*
X0249973Y0164392D01*
X0246904Y0165926D02*
X0246904Y0161322D01*
X0245369Y0161322D02*
X0248439Y0161322D01*
X0245369Y0164392D02*
X0246904Y0165926D01*
X0243835Y0162090D02*
X0243835Y0161322D01*
X0243067Y0161322D01*
X0243067Y0162090D01*
X0243835Y0162090D01*
X0241533Y0162090D02*
X0241533Y0165159D01*
X0238463Y0162090D01*
X0239231Y0161322D01*
X0240765Y0161322D01*
X0241533Y0162090D01*
X0241533Y0165159D02*
X0240765Y0165926D01*
X0239231Y0165926D01*
X0238463Y0165159D01*
X0238463Y0162090D01*
X0266520Y0164590D02*
X0267288Y0163822D01*
X0268822Y0163822D01*
X0269590Y0164590D01*
X0269590Y0166124D01*
X0268055Y0166124D01*
X0266520Y0167659D02*
X0266520Y0164590D01*
X0266520Y0167659D02*
X0267288Y0168426D01*
X0268822Y0168426D01*
X0269590Y0167659D01*
X0225790Y0110926D02*
X0223488Y0110926D01*
X0223488Y0106322D01*
X0225790Y0106322D01*
X0226557Y0107090D01*
X0226557Y0110159D01*
X0225790Y0110926D01*
X0228092Y0108624D02*
X0228092Y0107090D01*
X0228859Y0106322D01*
X0230394Y0106322D01*
X0231161Y0107090D01*
X0231161Y0108624D01*
X0230394Y0109392D01*
X0228859Y0109392D01*
X0228092Y0108624D01*
X0232696Y0108624D02*
X0232696Y0107090D01*
X0233463Y0106322D01*
X0234998Y0106322D01*
X0235765Y0107090D01*
X0235765Y0108624D01*
X0234998Y0109392D01*
X0233463Y0109392D01*
X0232696Y0108624D01*
X0237300Y0107857D02*
X0238835Y0109392D01*
X0239602Y0109392D01*
X0237300Y0109392D02*
X0237300Y0106322D01*
X0166327Y0082659D02*
X0166327Y0079590D01*
X0165560Y0078822D01*
X0163258Y0078822D01*
X0163258Y0083426D01*
X0165560Y0083426D01*
X0166327Y0082659D01*
X0161723Y0083426D02*
X0161723Y0078822D01*
X0158654Y0078822D02*
X0158654Y0083426D01*
X0160188Y0081892D01*
X0161723Y0083426D01*
X0157119Y0082659D02*
X0156352Y0083426D01*
X0154817Y0083426D01*
X0154050Y0082659D01*
X0154050Y0081892D01*
X0154817Y0081124D01*
X0156352Y0081124D01*
X0157119Y0080357D01*
X0157119Y0079590D01*
X0156352Y0078822D01*
X0154817Y0078822D01*
X0154050Y0079590D01*
X0152515Y0078055D02*
X0149446Y0078055D01*
X0147911Y0078822D02*
X0147911Y0083426D01*
X0144842Y0083426D02*
X0147911Y0078822D01*
X0144842Y0078822D02*
X0144842Y0083426D01*
X0143307Y0082659D02*
X0142540Y0083426D01*
X0141005Y0083426D01*
X0140238Y0082659D01*
X0140238Y0079590D01*
X0141005Y0078822D01*
X0142540Y0078822D01*
X0143307Y0079590D01*
X0143307Y0082659D01*
X0138703Y0083426D02*
X0135634Y0083426D01*
X0137169Y0083426D02*
X0137169Y0078822D01*
X0134099Y0079590D02*
X0134099Y0082659D01*
X0133332Y0083426D01*
X0131797Y0083426D01*
X0131030Y0082659D01*
X0131030Y0079590D01*
X0131797Y0078822D01*
X0133332Y0078822D01*
X0134099Y0079590D01*
X0129495Y0078822D02*
X0129495Y0083426D01*
X0129495Y0081124D02*
X0126426Y0081124D01*
X0124892Y0081124D02*
X0124124Y0080357D01*
X0121822Y0080357D01*
X0121822Y0078822D02*
X0121822Y0083426D01*
X0124124Y0083426D01*
X0124892Y0082659D01*
X0124892Y0081124D01*
X0126426Y0078822D02*
X0126426Y0083426D01*
X0049193Y0127090D02*
X0049193Y0130159D01*
X0048426Y0130926D01*
X0046124Y0130926D01*
X0046124Y0126322D01*
X0048426Y0126322D01*
X0049193Y0127090D01*
X0044590Y0126322D02*
X0041520Y0126322D01*
X0041520Y0130926D01*
X0044590Y0130926D01*
X0043055Y0128624D02*
X0041520Y0128624D01*
X0039986Y0126322D02*
X0036916Y0126322D01*
X0036916Y0130926D01*
X0036916Y0156322D02*
X0036916Y0160926D01*
X0039986Y0160926D01*
X0042288Y0159392D02*
X0043822Y0159392D01*
X0044590Y0158624D01*
X0044590Y0156322D01*
X0042288Y0156322D01*
X0041520Y0157090D01*
X0042288Y0157857D01*
X0044590Y0157857D01*
X0046124Y0156322D02*
X0046124Y0159392D01*
X0048426Y0159392D01*
X0049193Y0158624D01*
X0049193Y0156322D01*
X0038451Y0158624D02*
X0036916Y0158624D01*
X0036916Y0181322D02*
X0039986Y0181322D01*
X0041520Y0181322D02*
X0044590Y0184392D01*
X0044590Y0185159D01*
X0043822Y0185926D01*
X0042288Y0185926D01*
X0041520Y0185159D01*
X0038451Y0185926D02*
X0038451Y0181322D01*
X0041520Y0181322D02*
X0044590Y0181322D01*
X0046124Y0182857D02*
X0046124Y0185926D01*
X0046124Y0182857D02*
X0047659Y0181322D01*
X0049193Y0182857D01*
X0049193Y0185926D01*
X0038451Y0185926D02*
X0036916Y0184392D01*
X0073463Y0185159D02*
X0073463Y0182090D01*
X0076533Y0185159D01*
X0076533Y0182090D01*
X0075765Y0181322D01*
X0074231Y0181322D01*
X0073463Y0182090D01*
X0073463Y0185159D02*
X0074231Y0185926D01*
X0075765Y0185926D01*
X0076533Y0185159D01*
X0078067Y0182090D02*
X0078835Y0182090D01*
X0078835Y0181322D01*
X0078067Y0181322D01*
X0078067Y0182090D01*
X0080369Y0181322D02*
X0083439Y0181322D01*
X0081904Y0181322D02*
X0081904Y0185926D01*
X0080369Y0184392D01*
X0084973Y0184392D02*
X0084973Y0182090D01*
X0085741Y0181322D01*
X0088042Y0181322D01*
X0088042Y0184392D01*
X0089577Y0183624D02*
X0091112Y0183624D01*
X0089577Y0181322D02*
X0089577Y0185926D01*
X0092646Y0185926D01*
X0144614Y0277572D02*
X0147684Y0280642D01*
X0147684Y0281409D01*
X0146916Y0282176D01*
X0145382Y0282176D01*
X0144614Y0281409D01*
X0145382Y0283538D02*
X0146149Y0283538D01*
X0146916Y0284305D01*
X0146916Y0288142D01*
X0146916Y0289676D02*
X0146916Y0290444D01*
X0148451Y0285840D02*
X0149218Y0285840D01*
X0149218Y0285072D01*
X0148451Y0285072D01*
X0148451Y0285840D01*
X0150753Y0285072D02*
X0153822Y0285072D01*
X0155357Y0285840D02*
X0156124Y0285072D01*
X0158426Y0285072D01*
X0158426Y0287374D01*
X0157659Y0288142D01*
X0156124Y0288142D01*
X0156124Y0286607D02*
X0158426Y0286607D01*
X0159961Y0285072D02*
X0161495Y0285072D01*
X0160728Y0285072D02*
X0160728Y0289676D01*
X0159961Y0289676D01*
X0163030Y0287374D02*
X0163030Y0285840D01*
X0163797Y0285072D01*
X0166099Y0285072D01*
X0166099Y0284305D02*
X0166099Y0288142D01*
X0163797Y0288142D01*
X0163030Y0287374D01*
X0164565Y0283538D02*
X0165332Y0283538D01*
X0166099Y0284305D01*
X0167634Y0285840D02*
X0168401Y0285072D01*
X0169936Y0285072D01*
X0170703Y0286607D02*
X0167634Y0286607D01*
X0167634Y0287374D02*
X0168401Y0288142D01*
X0169936Y0288142D01*
X0170703Y0287374D01*
X0170703Y0286607D01*
X0172238Y0286607D02*
X0173773Y0288142D01*
X0174540Y0288142D01*
X0172238Y0288142D02*
X0172238Y0285072D01*
X0167634Y0285840D02*
X0167634Y0287374D01*
X0161495Y0281409D02*
X0158426Y0278340D01*
X0159193Y0277572D01*
X0160728Y0277572D01*
X0161495Y0278340D01*
X0161495Y0281409D01*
X0160728Y0282176D01*
X0159193Y0282176D01*
X0158426Y0281409D01*
X0158426Y0278340D01*
X0156892Y0277572D02*
X0153822Y0277572D01*
X0156892Y0280642D01*
X0156892Y0281409D01*
X0156124Y0282176D01*
X0154590Y0282176D01*
X0153822Y0281409D01*
X0152288Y0281409D02*
X0152288Y0278340D01*
X0151520Y0277572D01*
X0149986Y0277572D01*
X0149218Y0278340D01*
X0152288Y0281409D01*
X0151520Y0282176D01*
X0149986Y0282176D01*
X0149218Y0281409D01*
X0149218Y0278340D01*
X0147684Y0277572D02*
X0144614Y0277572D01*
X0138476Y0283538D02*
X0137708Y0283538D01*
X0138476Y0283538D02*
X0139243Y0284305D01*
X0139243Y0288142D01*
X0136174Y0288142D02*
X0136174Y0285840D01*
X0136941Y0285072D01*
X0139243Y0285072D01*
X0134639Y0285840D02*
X0133872Y0285072D01*
X0131570Y0285072D01*
X0131570Y0289676D01*
X0131570Y0288142D02*
X0133872Y0288142D01*
X0134639Y0287374D01*
X0134639Y0285840D01*
X0150753Y0285072D02*
X0153822Y0288142D01*
X0150753Y0288142D01*
X0155357Y0285840D02*
X0156124Y0286607D01*
D13*
X0094122Y0178622D02*
X0073122Y0178622D01*
X0073122Y0168622D01*
X0094122Y0168622D01*
X0094122Y0178622D01*
X0083622Y0176122D02*
X0083622Y0171122D01*
X0238012Y0168862D02*
X0238238Y0178859D01*
X0259233Y0178383D01*
X0259006Y0168385D01*
X0238012Y0168862D01*
X0248566Y0171123D02*
X0248679Y0176122D01*
X0259122Y0143622D02*
X0238122Y0143622D01*
X0238122Y0133622D01*
X0259122Y0133622D01*
X0259122Y0143622D01*
X0248622Y0141122D02*
X0248622Y0136122D01*
D14*
X0053993Y0053416D02*
X0027737Y0094788D01*
X0030692Y0096664D01*
X0027477Y0101730D01*
X0024522Y0099854D01*
X0020503Y0106187D01*
X0055121Y0128156D01*
X0059140Y0121823D01*
X0056184Y0119948D01*
X0059399Y0114882D01*
X0062355Y0116757D01*
X0088610Y0075385D01*
X0053993Y0053416D01*
X0037313Y0085764D02*
X0036097Y0087680D01*
X0036447Y0089245D01*
X0038013Y0088895D01*
X0039228Y0086980D01*
X0040345Y0087689D02*
X0042260Y0088904D01*
X0041303Y0088296D02*
X0039479Y0091170D01*
X0039129Y0089604D01*
X0038317Y0088417D02*
X0036401Y0087201D01*
X0041554Y0092486D02*
X0043469Y0093702D01*
X0043773Y0093223D01*
X0043073Y0090092D01*
X0043377Y0089613D01*
X0047017Y0090579D02*
X0047367Y0092145D01*
X0046888Y0091841D01*
X0046584Y0092320D01*
X0047063Y0092624D01*
X0047367Y0092145D01*
X0048127Y0093299D02*
X0048909Y0093124D01*
X0049867Y0093732D01*
X0050042Y0094514D01*
X0049434Y0095472D01*
X0048651Y0095647D01*
X0048173Y0095343D01*
X0047519Y0094256D01*
X0046607Y0095693D01*
X0048523Y0096909D01*
X0050247Y0096659D02*
X0051462Y0094744D01*
X0052420Y0095352D02*
X0051509Y0096788D01*
X0051684Y0097571D01*
X0052466Y0097396D01*
X0053378Y0095960D01*
X0054495Y0096668D02*
X0053279Y0098584D01*
X0053758Y0098888D01*
X0054541Y0098713D01*
X0054716Y0099495D01*
X0055498Y0099320D01*
X0056410Y0097884D01*
X0055452Y0097276D02*
X0054541Y0098713D01*
X0051509Y0096788D02*
X0050726Y0096963D01*
X0050247Y0096659D01*
X0037946Y0105773D02*
X0037948Y0105947D01*
X0037955Y0106121D01*
X0037965Y0106295D01*
X0037980Y0106469D01*
X0037999Y0106642D01*
X0038023Y0106815D01*
X0038051Y0106987D01*
X0038082Y0107158D01*
X0038119Y0107329D01*
X0038159Y0107498D01*
X0038203Y0107667D01*
X0038252Y0107834D01*
X0038304Y0108000D01*
X0038361Y0108165D01*
X0038422Y0108328D01*
X0038486Y0108490D01*
X0038555Y0108650D01*
X0038628Y0108809D01*
X0038704Y0108965D01*
X0038784Y0109120D01*
X0038868Y0109273D01*
X0038956Y0109423D01*
X0039048Y0109571D01*
X0039143Y0109718D01*
X0039241Y0109861D01*
X0039343Y0110002D01*
X0039449Y0110141D01*
X0039558Y0110277D01*
X0039670Y0110411D01*
X0039785Y0110541D01*
X0039904Y0110669D01*
X0040026Y0110793D01*
X0040150Y0110915D01*
X0040278Y0111034D01*
X0040408Y0111149D01*
X0040542Y0111261D01*
X0040678Y0111370D01*
X0040817Y0111476D01*
X0040958Y0111578D01*
X0041101Y0111676D01*
X0041248Y0111771D01*
X0041396Y0111863D01*
X0041546Y0111951D01*
X0041699Y0112035D01*
X0041854Y0112115D01*
X0042010Y0112191D01*
X0042169Y0112264D01*
X0042329Y0112333D01*
X0042491Y0112397D01*
X0042654Y0112458D01*
X0042819Y0112515D01*
X0042985Y0112567D01*
X0043152Y0112616D01*
X0043321Y0112660D01*
X0043490Y0112700D01*
X0043661Y0112737D01*
X0043832Y0112768D01*
X0044004Y0112796D01*
X0044177Y0112820D01*
X0044350Y0112839D01*
X0044524Y0112854D01*
X0044698Y0112864D01*
X0044872Y0112871D01*
X0045046Y0112873D01*
X0045220Y0112871D01*
X0045394Y0112864D01*
X0045568Y0112854D01*
X0045742Y0112839D01*
X0045915Y0112820D01*
X0046088Y0112796D01*
X0046260Y0112768D01*
X0046431Y0112737D01*
X0046602Y0112700D01*
X0046771Y0112660D01*
X0046940Y0112616D01*
X0047107Y0112567D01*
X0047273Y0112515D01*
X0047438Y0112458D01*
X0047601Y0112397D01*
X0047763Y0112333D01*
X0047923Y0112264D01*
X0048082Y0112191D01*
X0048238Y0112115D01*
X0048393Y0112035D01*
X0048546Y0111951D01*
X0048696Y0111863D01*
X0048844Y0111771D01*
X0048991Y0111676D01*
X0049134Y0111578D01*
X0049275Y0111476D01*
X0049414Y0111370D01*
X0049550Y0111261D01*
X0049684Y0111149D01*
X0049814Y0111034D01*
X0049942Y0110915D01*
X0050066Y0110793D01*
X0050188Y0110669D01*
X0050307Y0110541D01*
X0050422Y0110411D01*
X0050534Y0110277D01*
X0050643Y0110141D01*
X0050749Y0110002D01*
X0050851Y0109861D01*
X0050949Y0109718D01*
X0051044Y0109571D01*
X0051136Y0109423D01*
X0051224Y0109273D01*
X0051308Y0109120D01*
X0051388Y0108965D01*
X0051464Y0108809D01*
X0051537Y0108650D01*
X0051606Y0108490D01*
X0051670Y0108328D01*
X0051731Y0108165D01*
X0051788Y0108000D01*
X0051840Y0107834D01*
X0051889Y0107667D01*
X0051933Y0107498D01*
X0051973Y0107329D01*
X0052010Y0107158D01*
X0052041Y0106987D01*
X0052069Y0106815D01*
X0052093Y0106642D01*
X0052112Y0106469D01*
X0052127Y0106295D01*
X0052137Y0106121D01*
X0052144Y0105947D01*
X0052146Y0105773D01*
X0052144Y0105599D01*
X0052137Y0105425D01*
X0052127Y0105251D01*
X0052112Y0105077D01*
X0052093Y0104904D01*
X0052069Y0104731D01*
X0052041Y0104559D01*
X0052010Y0104388D01*
X0051973Y0104217D01*
X0051933Y0104048D01*
X0051889Y0103879D01*
X0051840Y0103712D01*
X0051788Y0103546D01*
X0051731Y0103381D01*
X0051670Y0103218D01*
X0051606Y0103056D01*
X0051537Y0102896D01*
X0051464Y0102737D01*
X0051388Y0102581D01*
X0051308Y0102426D01*
X0051224Y0102273D01*
X0051136Y0102123D01*
X0051044Y0101975D01*
X0050949Y0101828D01*
X0050851Y0101685D01*
X0050749Y0101544D01*
X0050643Y0101405D01*
X0050534Y0101269D01*
X0050422Y0101135D01*
X0050307Y0101005D01*
X0050188Y0100877D01*
X0050066Y0100753D01*
X0049942Y0100631D01*
X0049814Y0100512D01*
X0049684Y0100397D01*
X0049550Y0100285D01*
X0049414Y0100176D01*
X0049275Y0100070D01*
X0049134Y0099968D01*
X0048991Y0099870D01*
X0048844Y0099775D01*
X0048696Y0099683D01*
X0048546Y0099595D01*
X0048393Y0099511D01*
X0048238Y0099431D01*
X0048082Y0099355D01*
X0047923Y0099282D01*
X0047763Y0099213D01*
X0047601Y0099149D01*
X0047438Y0099088D01*
X0047273Y0099031D01*
X0047107Y0098979D01*
X0046940Y0098930D01*
X0046771Y0098886D01*
X0046602Y0098846D01*
X0046431Y0098809D01*
X0046260Y0098778D01*
X0046088Y0098750D01*
X0045915Y0098726D01*
X0045742Y0098707D01*
X0045568Y0098692D01*
X0045394Y0098682D01*
X0045220Y0098675D01*
X0045046Y0098673D01*
X0044872Y0098675D01*
X0044698Y0098682D01*
X0044524Y0098692D01*
X0044350Y0098707D01*
X0044177Y0098726D01*
X0044004Y0098750D01*
X0043832Y0098778D01*
X0043661Y0098809D01*
X0043490Y0098846D01*
X0043321Y0098886D01*
X0043152Y0098930D01*
X0042985Y0098979D01*
X0042819Y0099031D01*
X0042654Y0099088D01*
X0042491Y0099149D01*
X0042329Y0099213D01*
X0042169Y0099282D01*
X0042010Y0099355D01*
X0041854Y0099431D01*
X0041699Y0099511D01*
X0041546Y0099595D01*
X0041396Y0099683D01*
X0041248Y0099775D01*
X0041101Y0099870D01*
X0040958Y0099968D01*
X0040817Y0100070D01*
X0040678Y0100176D01*
X0040542Y0100285D01*
X0040408Y0100397D01*
X0040278Y0100512D01*
X0040150Y0100631D01*
X0040026Y0100753D01*
X0039904Y0100877D01*
X0039785Y0101005D01*
X0039670Y0101135D01*
X0039558Y0101269D01*
X0039449Y0101405D01*
X0039343Y0101544D01*
X0039241Y0101685D01*
X0039143Y0101828D01*
X0039048Y0101975D01*
X0038956Y0102123D01*
X0038868Y0102273D01*
X0038784Y0102426D01*
X0038704Y0102581D01*
X0038628Y0102737D01*
X0038555Y0102896D01*
X0038486Y0103056D01*
X0038422Y0103218D01*
X0038361Y0103381D01*
X0038304Y0103546D01*
X0038252Y0103712D01*
X0038203Y0103879D01*
X0038159Y0104048D01*
X0038119Y0104217D01*
X0038082Y0104388D01*
X0038051Y0104559D01*
X0038023Y0104731D01*
X0037999Y0104904D01*
X0037980Y0105077D01*
X0037965Y0105251D01*
X0037955Y0105425D01*
X0037948Y0105599D01*
X0037946Y0105773D01*
X0081662Y0139789D02*
X0081979Y0139472D01*
X0082613Y0139472D01*
X0082930Y0139789D01*
X0082930Y0141374D01*
X0083872Y0141057D02*
X0084189Y0141374D01*
X0084823Y0141374D01*
X0085140Y0141057D01*
X0085140Y0140740D01*
X0083872Y0139472D01*
X0085140Y0139472D01*
X0081662Y0139789D02*
X0081662Y0141374D01*
X0081825Y0160872D02*
X0081825Y0162774D01*
X0081191Y0162140D01*
X0080557Y0162774D01*
X0080557Y0160872D01*
X0078981Y0160872D02*
X0078981Y0162774D01*
X0078348Y0162774D02*
X0079615Y0162774D01*
X0082767Y0162774D02*
X0083718Y0162774D01*
X0084035Y0162457D01*
X0084035Y0161823D01*
X0083718Y0161506D01*
X0082767Y0161506D01*
X0082767Y0160872D02*
X0082767Y0162774D01*
X0084977Y0162457D02*
X0085294Y0162774D01*
X0085928Y0162774D01*
X0086245Y0162457D01*
X0086245Y0162140D01*
X0085928Y0161823D01*
X0086245Y0161506D01*
X0086245Y0161189D01*
X0085928Y0160872D01*
X0085294Y0160872D01*
X0084977Y0161189D01*
X0085611Y0161823D02*
X0085928Y0161823D01*
X0087187Y0161823D02*
X0088138Y0161823D01*
X0088455Y0161506D01*
X0088455Y0161189D01*
X0088138Y0160872D01*
X0087504Y0160872D01*
X0087187Y0161189D01*
X0087187Y0161823D01*
X0087821Y0162457D01*
X0088455Y0162774D01*
X0053774Y0184411D02*
X0057935Y0190650D01*
X0055023Y0192592D01*
X0058352Y0197584D01*
X0061264Y0195642D01*
X0088452Y0236408D01*
X0054341Y0259156D01*
X0027154Y0218391D01*
X0030066Y0216449D01*
X0026737Y0211457D01*
X0023825Y0213399D01*
X0019664Y0207159D01*
X0053774Y0184411D01*
X0063064Y0205680D02*
X0064008Y0207096D01*
X0063851Y0207882D01*
X0063064Y0207725D01*
X0062120Y0206310D01*
X0061176Y0206939D02*
X0062435Y0208826D01*
X0062907Y0208512D01*
X0063064Y0207725D01*
X0061020Y0209088D02*
X0060076Y0207673D01*
X0059133Y0208302D02*
X0060077Y0209718D01*
X0060863Y0209875D01*
X0061020Y0209088D01*
X0060077Y0209718D02*
X0059919Y0210504D01*
X0059448Y0210819D01*
X0058189Y0208931D01*
X0057403Y0210137D02*
X0056617Y0209980D01*
X0055673Y0210609D01*
X0055516Y0211396D01*
X0056145Y0212339D02*
X0057404Y0212182D01*
X0057875Y0211867D01*
X0058033Y0211081D01*
X0057403Y0210137D01*
X0056145Y0212339D02*
X0057089Y0213755D01*
X0058977Y0212496D01*
X0054468Y0212095D02*
X0054153Y0211623D01*
X0053681Y0211938D01*
X0053996Y0212409D01*
X0054468Y0212095D01*
X0054153Y0211623D02*
X0052580Y0211309D01*
X0050222Y0214245D02*
X0050537Y0214717D01*
X0053683Y0215345D01*
X0053997Y0215817D01*
X0052110Y0217076D01*
X0050066Y0218439D02*
X0048178Y0215608D01*
X0047234Y0216237D02*
X0049122Y0214979D01*
X0048493Y0218125D02*
X0050066Y0218439D01*
X0047393Y0218858D02*
X0046134Y0216971D01*
X0047078Y0218387D02*
X0045191Y0219645D01*
X0045505Y0220117D02*
X0047078Y0220431D01*
X0047393Y0218858D01*
X0045505Y0220117D02*
X0044247Y0218230D01*
X0037109Y0207016D02*
X0037111Y0207190D01*
X0037118Y0207364D01*
X0037128Y0207538D01*
X0037143Y0207712D01*
X0037162Y0207885D01*
X0037186Y0208058D01*
X0037214Y0208230D01*
X0037245Y0208401D01*
X0037282Y0208572D01*
X0037322Y0208741D01*
X0037366Y0208910D01*
X0037415Y0209077D01*
X0037467Y0209243D01*
X0037524Y0209408D01*
X0037585Y0209571D01*
X0037649Y0209733D01*
X0037718Y0209893D01*
X0037791Y0210052D01*
X0037867Y0210208D01*
X0037947Y0210363D01*
X0038031Y0210516D01*
X0038119Y0210666D01*
X0038211Y0210814D01*
X0038306Y0210961D01*
X0038404Y0211104D01*
X0038506Y0211245D01*
X0038612Y0211384D01*
X0038721Y0211520D01*
X0038833Y0211654D01*
X0038948Y0211784D01*
X0039067Y0211912D01*
X0039189Y0212036D01*
X0039313Y0212158D01*
X0039441Y0212277D01*
X0039571Y0212392D01*
X0039705Y0212504D01*
X0039841Y0212613D01*
X0039980Y0212719D01*
X0040121Y0212821D01*
X0040264Y0212919D01*
X0040411Y0213014D01*
X0040559Y0213106D01*
X0040709Y0213194D01*
X0040862Y0213278D01*
X0041017Y0213358D01*
X0041173Y0213434D01*
X0041332Y0213507D01*
X0041492Y0213576D01*
X0041654Y0213640D01*
X0041817Y0213701D01*
X0041982Y0213758D01*
X0042148Y0213810D01*
X0042315Y0213859D01*
X0042484Y0213903D01*
X0042653Y0213943D01*
X0042824Y0213980D01*
X0042995Y0214011D01*
X0043167Y0214039D01*
X0043340Y0214063D01*
X0043513Y0214082D01*
X0043687Y0214097D01*
X0043861Y0214107D01*
X0044035Y0214114D01*
X0044209Y0214116D01*
X0044383Y0214114D01*
X0044557Y0214107D01*
X0044731Y0214097D01*
X0044905Y0214082D01*
X0045078Y0214063D01*
X0045251Y0214039D01*
X0045423Y0214011D01*
X0045594Y0213980D01*
X0045765Y0213943D01*
X0045934Y0213903D01*
X0046103Y0213859D01*
X0046270Y0213810D01*
X0046436Y0213758D01*
X0046601Y0213701D01*
X0046764Y0213640D01*
X0046926Y0213576D01*
X0047086Y0213507D01*
X0047245Y0213434D01*
X0047401Y0213358D01*
X0047556Y0213278D01*
X0047709Y0213194D01*
X0047859Y0213106D01*
X0048007Y0213014D01*
X0048154Y0212919D01*
X0048297Y0212821D01*
X0048438Y0212719D01*
X0048577Y0212613D01*
X0048713Y0212504D01*
X0048847Y0212392D01*
X0048977Y0212277D01*
X0049105Y0212158D01*
X0049229Y0212036D01*
X0049351Y0211912D01*
X0049470Y0211784D01*
X0049585Y0211654D01*
X0049697Y0211520D01*
X0049806Y0211384D01*
X0049912Y0211245D01*
X0050014Y0211104D01*
X0050112Y0210961D01*
X0050207Y0210814D01*
X0050299Y0210666D01*
X0050387Y0210516D01*
X0050471Y0210363D01*
X0050551Y0210208D01*
X0050627Y0210052D01*
X0050700Y0209893D01*
X0050769Y0209733D01*
X0050833Y0209571D01*
X0050894Y0209408D01*
X0050951Y0209243D01*
X0051003Y0209077D01*
X0051052Y0208910D01*
X0051096Y0208741D01*
X0051136Y0208572D01*
X0051173Y0208401D01*
X0051204Y0208230D01*
X0051232Y0208058D01*
X0051256Y0207885D01*
X0051275Y0207712D01*
X0051290Y0207538D01*
X0051300Y0207364D01*
X0051307Y0207190D01*
X0051309Y0207016D01*
X0051307Y0206842D01*
X0051300Y0206668D01*
X0051290Y0206494D01*
X0051275Y0206320D01*
X0051256Y0206147D01*
X0051232Y0205974D01*
X0051204Y0205802D01*
X0051173Y0205631D01*
X0051136Y0205460D01*
X0051096Y0205291D01*
X0051052Y0205122D01*
X0051003Y0204955D01*
X0050951Y0204789D01*
X0050894Y0204624D01*
X0050833Y0204461D01*
X0050769Y0204299D01*
X0050700Y0204139D01*
X0050627Y0203980D01*
X0050551Y0203824D01*
X0050471Y0203669D01*
X0050387Y0203516D01*
X0050299Y0203366D01*
X0050207Y0203218D01*
X0050112Y0203071D01*
X0050014Y0202928D01*
X0049912Y0202787D01*
X0049806Y0202648D01*
X0049697Y0202512D01*
X0049585Y0202378D01*
X0049470Y0202248D01*
X0049351Y0202120D01*
X0049229Y0201996D01*
X0049105Y0201874D01*
X0048977Y0201755D01*
X0048847Y0201640D01*
X0048713Y0201528D01*
X0048577Y0201419D01*
X0048438Y0201313D01*
X0048297Y0201211D01*
X0048154Y0201113D01*
X0048007Y0201018D01*
X0047859Y0200926D01*
X0047709Y0200838D01*
X0047556Y0200754D01*
X0047401Y0200674D01*
X0047245Y0200598D01*
X0047086Y0200525D01*
X0046926Y0200456D01*
X0046764Y0200392D01*
X0046601Y0200331D01*
X0046436Y0200274D01*
X0046270Y0200222D01*
X0046103Y0200173D01*
X0045934Y0200129D01*
X0045765Y0200089D01*
X0045594Y0200052D01*
X0045423Y0200021D01*
X0045251Y0199993D01*
X0045078Y0199969D01*
X0044905Y0199950D01*
X0044731Y0199935D01*
X0044557Y0199925D01*
X0044383Y0199918D01*
X0044209Y0199916D01*
X0044035Y0199918D01*
X0043861Y0199925D01*
X0043687Y0199935D01*
X0043513Y0199950D01*
X0043340Y0199969D01*
X0043167Y0199993D01*
X0042995Y0200021D01*
X0042824Y0200052D01*
X0042653Y0200089D01*
X0042484Y0200129D01*
X0042315Y0200173D01*
X0042148Y0200222D01*
X0041982Y0200274D01*
X0041817Y0200331D01*
X0041654Y0200392D01*
X0041492Y0200456D01*
X0041332Y0200525D01*
X0041173Y0200598D01*
X0041017Y0200674D01*
X0040862Y0200754D01*
X0040709Y0200838D01*
X0040559Y0200926D01*
X0040411Y0201018D01*
X0040264Y0201113D01*
X0040121Y0201211D01*
X0039980Y0201313D01*
X0039841Y0201419D01*
X0039705Y0201528D01*
X0039571Y0201640D01*
X0039441Y0201755D01*
X0039313Y0201874D01*
X0039189Y0201996D01*
X0039067Y0202120D01*
X0038948Y0202248D01*
X0038833Y0202378D01*
X0038721Y0202512D01*
X0038612Y0202648D01*
X0038506Y0202787D01*
X0038404Y0202928D01*
X0038306Y0203071D01*
X0038211Y0203218D01*
X0038119Y0203366D01*
X0038031Y0203516D01*
X0037947Y0203669D01*
X0037867Y0203824D01*
X0037791Y0203980D01*
X0037718Y0204139D01*
X0037649Y0204299D01*
X0037585Y0204461D01*
X0037524Y0204624D01*
X0037467Y0204789D01*
X0037415Y0204955D01*
X0037366Y0205122D01*
X0037322Y0205291D01*
X0037282Y0205460D01*
X0037245Y0205631D01*
X0037214Y0205802D01*
X0037186Y0205974D01*
X0037162Y0206147D01*
X0037143Y0206320D01*
X0037128Y0206494D01*
X0037118Y0206668D01*
X0037111Y0206842D01*
X0037109Y0207016D01*
X0073170Y0204760D02*
X0074412Y0206637D01*
X0075453Y0206849D01*
X0076705Y0206020D01*
X0076916Y0204980D01*
X0075673Y0203102D01*
X0076925Y0202274D02*
X0073170Y0204760D01*
X0076502Y0204354D02*
X0078582Y0204777D01*
X0079466Y0206113D02*
X0078620Y0210274D01*
X0077994Y0210688D01*
X0076953Y0210476D01*
X0076125Y0209225D01*
X0076337Y0208184D01*
X0079466Y0206113D02*
X0081123Y0208617D01*
X0084924Y0207118D02*
X0085753Y0208370D01*
X0086793Y0208582D01*
X0087419Y0208167D01*
X0087630Y0207127D01*
X0086802Y0205875D01*
X0085761Y0205664D01*
X0085136Y0206078D01*
X0084924Y0207118D01*
X0086802Y0205875D02*
X0087013Y0204835D01*
X0087639Y0204421D01*
X0088680Y0204632D01*
X0089508Y0205884D01*
X0089297Y0206924D01*
X0088671Y0207339D01*
X0087630Y0207127D01*
X0087677Y0209917D02*
X0087465Y0210957D01*
X0088294Y0212209D01*
X0089334Y0212421D01*
X0090180Y0208260D01*
X0091221Y0208471D01*
X0092049Y0209723D01*
X0091838Y0210764D01*
X0089334Y0212421D01*
X0087677Y0209917D02*
X0090180Y0208260D01*
X0087381Y0202671D02*
X0085724Y0200167D01*
X0086553Y0201419D02*
X0082797Y0203905D01*
X0083220Y0201824D01*
X0015872Y0166582D02*
X0015872Y0165632D01*
X0013971Y0165632D01*
X0013971Y0166582D01*
X0014288Y0166899D01*
X0015555Y0166899D01*
X0015872Y0166582D01*
X0015872Y0164689D02*
X0015872Y0163422D01*
X0013971Y0163422D01*
X0013971Y0164689D01*
X0014921Y0164056D02*
X0014921Y0163422D01*
X0015872Y0162480D02*
X0015872Y0161212D01*
X0013971Y0161212D01*
X0013971Y0160270D02*
X0015872Y0159002D01*
X0015872Y0158060D02*
X0013971Y0158060D01*
X0013971Y0156792D02*
X0015872Y0158060D01*
X0015872Y0156792D02*
X0013971Y0156792D01*
X0014605Y0155850D02*
X0015872Y0155850D01*
X0014921Y0155850D02*
X0014921Y0154582D01*
X0014605Y0154582D02*
X0013971Y0155216D01*
X0014605Y0155850D01*
X0014605Y0154582D02*
X0015872Y0154582D01*
X0014921Y0153006D02*
X0014921Y0152372D01*
X0013971Y0152372D02*
X0013971Y0153640D01*
X0013971Y0152372D02*
X0015872Y0152372D01*
X0012372Y0153689D02*
X0012372Y0154006D01*
X0012055Y0154323D01*
X0010471Y0154323D01*
X0010471Y0154006D02*
X0010471Y0154640D01*
X0010788Y0155582D02*
X0010471Y0155899D01*
X0010471Y0156533D01*
X0010788Y0156850D01*
X0011105Y0156850D01*
X0011421Y0156533D01*
X0011738Y0156850D01*
X0012055Y0156850D01*
X0012372Y0156533D01*
X0012372Y0155899D01*
X0012055Y0155582D01*
X0011421Y0156216D02*
X0011421Y0156533D01*
X0012372Y0153689D02*
X0012055Y0153372D01*
X0121872Y0089376D02*
X0121872Y0085623D01*
X0122623Y0084872D01*
X0124124Y0084872D01*
X0124875Y0085623D01*
X0124875Y0089376D01*
X0126476Y0088625D02*
X0127227Y0089376D01*
X0128728Y0089376D01*
X0129479Y0088625D01*
X0128728Y0087124D02*
X0129479Y0086374D01*
X0129479Y0085623D01*
X0128728Y0084872D01*
X0127227Y0084872D01*
X0126476Y0085623D01*
X0127227Y0087124D02*
X0126476Y0087875D01*
X0126476Y0088625D01*
X0127227Y0087124D02*
X0128728Y0087124D01*
X0131080Y0087875D02*
X0132581Y0089376D01*
X0132581Y0084872D01*
X0131080Y0084872D02*
X0134083Y0084872D01*
X0127977Y0084122D02*
X0127977Y0090127D01*
X0104823Y0038774D02*
X0104189Y0038774D01*
X0103872Y0038457D01*
X0102930Y0038774D02*
X0102930Y0036872D01*
X0103872Y0036872D02*
X0105140Y0038140D01*
X0105140Y0038457D01*
X0104823Y0038774D01*
X0105140Y0036872D02*
X0103872Y0036872D01*
X0102930Y0037823D02*
X0101662Y0037823D01*
X0101662Y0036872D02*
X0101662Y0038774D01*
X0101825Y0020374D02*
X0101825Y0018472D01*
X0100557Y0020374D01*
X0100557Y0018472D01*
X0099615Y0018472D02*
X0099615Y0019740D01*
X0098981Y0020374D01*
X0098348Y0019740D01*
X0098348Y0018472D01*
X0098348Y0019423D02*
X0099615Y0019423D01*
X0097405Y0020374D02*
X0096138Y0020374D01*
X0096772Y0020374D02*
X0096772Y0018472D01*
X0095196Y0018789D02*
X0094879Y0018472D01*
X0094245Y0018472D01*
X0093928Y0018789D01*
X0094245Y0019423D02*
X0094879Y0019423D01*
X0095196Y0019106D01*
X0095196Y0018789D01*
X0094245Y0019423D02*
X0093928Y0019740D01*
X0093928Y0020057D01*
X0094245Y0020374D01*
X0094879Y0020374D01*
X0095196Y0020057D01*
X0102767Y0020374D02*
X0103718Y0020374D01*
X0104035Y0020057D01*
X0104035Y0018789D01*
X0103718Y0018472D01*
X0102767Y0018472D01*
X0102767Y0020374D01*
X0104977Y0019423D02*
X0106245Y0019423D01*
X0107187Y0018789D02*
X0107504Y0018472D01*
X0108138Y0018472D01*
X0108455Y0018789D01*
X0108455Y0020057D01*
X0108138Y0020374D01*
X0107504Y0020374D01*
X0107187Y0020057D01*
X0107187Y0018789D01*
X0109397Y0018472D02*
X0109397Y0020374D01*
X0110665Y0020374D01*
X0111607Y0020374D02*
X0112875Y0020374D01*
X0112241Y0019423D02*
X0111607Y0019423D01*
X0111607Y0018472D02*
X0111607Y0020374D01*
X0110031Y0019423D02*
X0109397Y0019423D01*
X0148872Y0026774D02*
X0150140Y0026774D01*
X0149506Y0026774D02*
X0149506Y0024872D01*
X0151082Y0024872D02*
X0152350Y0024872D01*
X0153292Y0024872D02*
X0153292Y0026774D01*
X0153926Y0026140D01*
X0154560Y0026774D01*
X0154560Y0024872D01*
X0155502Y0024872D02*
X0155502Y0026774D01*
X0156453Y0026774D01*
X0156770Y0026457D01*
X0156770Y0025823D01*
X0156453Y0025506D01*
X0155502Y0025506D01*
X0157712Y0024555D02*
X0158980Y0024555D01*
X0159922Y0025189D02*
X0160239Y0024872D01*
X0160872Y0024872D01*
X0161189Y0025189D01*
X0161189Y0025506D01*
X0160872Y0025823D01*
X0160239Y0025823D01*
X0159922Y0026140D01*
X0159922Y0026457D01*
X0160239Y0026774D01*
X0160872Y0026774D01*
X0161189Y0026457D01*
X0162132Y0026774D02*
X0162132Y0024872D01*
X0163399Y0024872D01*
X0164341Y0024872D02*
X0164341Y0026774D01*
X0165609Y0024872D01*
X0165609Y0026774D01*
X0166551Y0026457D02*
X0166551Y0026140D01*
X0166868Y0025823D01*
X0167502Y0025823D01*
X0167819Y0025506D01*
X0167819Y0025189D01*
X0167502Y0024872D01*
X0166868Y0024872D01*
X0166551Y0025189D01*
X0166551Y0026457D02*
X0166868Y0026774D01*
X0167502Y0026774D01*
X0167819Y0026457D01*
X0163399Y0026774D02*
X0162132Y0026774D01*
X0162132Y0025823D02*
X0162765Y0025823D01*
X0152350Y0026774D02*
X0151082Y0026774D01*
X0151082Y0024872D01*
X0151082Y0025823D02*
X0151716Y0025823D01*
X0151082Y0028372D02*
X0152350Y0029640D01*
X0152350Y0029957D01*
X0152033Y0030274D01*
X0151399Y0030274D01*
X0151082Y0029957D01*
X0150140Y0030274D02*
X0149506Y0030274D01*
X0149823Y0030274D02*
X0149823Y0028689D01*
X0149506Y0028372D01*
X0149189Y0028372D01*
X0148872Y0028689D01*
X0151082Y0028372D02*
X0152350Y0028372D01*
X0219156Y0044484D02*
X0220266Y0042940D01*
X0221295Y0043679D01*
X0222061Y0044229D02*
X0220951Y0045773D01*
X0223090Y0044969D01*
X0221980Y0046513D01*
X0222745Y0047063D02*
X0223485Y0046033D01*
X0224370Y0045889D01*
X0224515Y0046773D01*
X0223775Y0047803D01*
X0220830Y0047655D02*
X0220645Y0047912D01*
X0220935Y0049682D01*
X0220750Y0049939D01*
X0219721Y0049199D01*
X0218955Y0048649D02*
X0218441Y0048280D01*
X0218698Y0048465D02*
X0219623Y0047178D01*
X0219550Y0046735D01*
X0219293Y0046550D01*
X0218851Y0046623D01*
X0220186Y0045224D02*
X0219156Y0044484D01*
X0219711Y0043712D02*
X0220226Y0044082D01*
X0227259Y0048355D02*
X0226520Y0049385D01*
X0226592Y0049827D01*
X0227107Y0050197D01*
X0227549Y0050124D01*
X0228129Y0050932D02*
X0229159Y0051671D01*
X0228644Y0051302D02*
X0229754Y0049757D01*
X0231034Y0050677D02*
X0229924Y0052221D01*
X0231034Y0050677D02*
X0232063Y0051417D01*
X0228289Y0049095D02*
X0228216Y0048653D01*
X0227702Y0048283D01*
X0227259Y0048355D01*
X0265715Y0100168D02*
X0266118Y0101029D01*
X0266540Y0101182D01*
X0267114Y0100913D01*
X0267266Y0100491D01*
X0266863Y0099630D01*
X0267437Y0099361D02*
X0265715Y0100168D01*
X0264826Y0102039D02*
X0264960Y0102326D01*
X0264808Y0102747D01*
X0263373Y0103419D01*
X0263507Y0103706D02*
X0263238Y0103132D01*
X0263907Y0104559D02*
X0264768Y0104156D01*
X0264750Y0104865D01*
X0264884Y0105152D01*
X0265306Y0105304D01*
X0265880Y0105035D01*
X0266032Y0104614D01*
X0265763Y0104040D01*
X0265342Y0103887D01*
X0263907Y0104559D02*
X0264445Y0105708D01*
X0267724Y0104457D02*
X0267877Y0104036D01*
X0269025Y0103498D01*
X0269446Y0103651D01*
X0269715Y0104225D01*
X0269562Y0104646D01*
X0268414Y0105184D01*
X0267993Y0105031D01*
X0267724Y0104457D01*
X0267477Y0103183D02*
X0268051Y0102914D01*
X0268204Y0102492D01*
X0267800Y0101631D01*
X0268374Y0101363D02*
X0266652Y0102169D01*
X0267056Y0103030D01*
X0267477Y0103183D01*
X0268069Y0102205D02*
X0268912Y0102511D01*
X0270249Y0105365D02*
X0269065Y0107320D01*
X0268527Y0106172D02*
X0270787Y0106513D01*
X0264826Y0102039D02*
X0264405Y0101886D01*
X0220751Y0149942D02*
X0220793Y0152944D01*
X0220772Y0151443D02*
X0216269Y0151506D01*
X0217749Y0149984D01*
X0212251Y0149963D02*
X0210729Y0148483D01*
X0210739Y0149233D02*
X0210708Y0146982D01*
X0212209Y0146961D02*
X0207705Y0147024D01*
X0207737Y0149275D01*
X0208498Y0150015D01*
X0209999Y0149994D01*
X0210739Y0149233D01*
X0210021Y0151596D02*
X0210063Y0154598D01*
X0207801Y0153879D02*
X0210021Y0151596D01*
X0207801Y0153879D02*
X0212305Y0153816D01*
X0216323Y0155359D02*
X0216344Y0156860D01*
X0217105Y0157600D01*
X0220065Y0154556D01*
X0220826Y0155296D01*
X0220847Y0156797D01*
X0220107Y0157558D01*
X0217105Y0157600D01*
X0216376Y0159211D02*
X0220880Y0159149D01*
X0219379Y0159170D02*
X0217909Y0161442D01*
X0219379Y0159170D02*
X0220911Y0161400D01*
X0220065Y0154556D02*
X0217063Y0154598D01*
X0216323Y0155359D01*
X0273928Y0183789D02*
X0274245Y0183472D01*
X0274879Y0183472D01*
X0275196Y0183789D01*
X0275196Y0184106D01*
X0274879Y0184423D01*
X0274245Y0184423D01*
X0273928Y0184740D01*
X0273928Y0185057D01*
X0274245Y0185374D01*
X0274879Y0185374D01*
X0275196Y0185057D01*
X0276138Y0185374D02*
X0277405Y0185374D01*
X0276772Y0185374D02*
X0276772Y0183472D01*
X0278348Y0183472D02*
X0278348Y0184740D01*
X0278981Y0185374D01*
X0279615Y0184740D01*
X0279615Y0183472D01*
X0280557Y0183472D02*
X0280557Y0185374D01*
X0281825Y0183472D01*
X0281825Y0185374D01*
X0282767Y0185374D02*
X0282767Y0183472D01*
X0283718Y0183472D01*
X0284035Y0183789D01*
X0284035Y0185057D01*
X0283718Y0185374D01*
X0282767Y0185374D01*
X0284977Y0184423D02*
X0286245Y0184423D01*
X0287187Y0185057D02*
X0287187Y0183789D01*
X0287504Y0183472D01*
X0288138Y0183472D01*
X0288455Y0183789D01*
X0288455Y0185057D01*
X0288138Y0185374D01*
X0287504Y0185374D01*
X0287187Y0185057D01*
X0289397Y0185374D02*
X0289397Y0183472D01*
X0289397Y0184423D02*
X0290031Y0184423D01*
X0289397Y0185374D02*
X0290665Y0185374D01*
X0291607Y0185374D02*
X0292875Y0185374D01*
X0292241Y0184423D02*
X0291607Y0184423D01*
X0291607Y0183472D02*
X0291607Y0185374D01*
X0279615Y0184423D02*
X0278348Y0184423D01*
X0281662Y0201872D02*
X0281662Y0203774D01*
X0281662Y0202823D02*
X0282930Y0202823D01*
X0282930Y0203774D02*
X0282930Y0201872D01*
X0283872Y0202189D02*
X0284189Y0201872D01*
X0284823Y0201872D01*
X0285140Y0202189D01*
X0285140Y0202506D01*
X0284823Y0202823D01*
X0284506Y0202823D01*
X0284823Y0202823D02*
X0285140Y0203140D01*
X0285140Y0203457D01*
X0284823Y0203774D01*
X0284189Y0203774D01*
X0283872Y0203457D01*
X0293814Y0168436D02*
X0293829Y0167168D01*
X0293822Y0167802D02*
X0295723Y0167825D01*
X0295081Y0168452D01*
X0295425Y0166246D02*
X0295746Y0165933D01*
X0295754Y0165299D01*
X0295441Y0164978D01*
X0295124Y0164974D01*
X0293841Y0166226D01*
X0293856Y0164959D01*
X0294502Y0164024D02*
X0293876Y0163383D01*
X0294517Y0162757D01*
X0295785Y0162772D01*
X0295769Y0164040D02*
X0294502Y0164024D01*
X0294556Y0159605D02*
X0294567Y0158654D01*
X0294888Y0158341D01*
X0295522Y0158349D01*
X0295835Y0158670D01*
X0295823Y0159620D01*
X0293922Y0159597D01*
X0293949Y0157387D02*
X0294590Y0156761D01*
X0293964Y0156120D01*
X0295866Y0156143D01*
X0295877Y0155201D02*
X0295889Y0154250D01*
X0295576Y0153929D01*
X0294942Y0153922D01*
X0294621Y0154235D01*
X0294610Y0155185D01*
X0294617Y0154552D02*
X0293991Y0153910D01*
X0293976Y0155178D02*
X0295877Y0155201D01*
X0295850Y0157411D02*
X0293949Y0157387D01*
X0298856Y0165020D02*
X0298840Y0166287D01*
X0298848Y0165654D02*
X0300750Y0165677D01*
X0300108Y0166303D01*
X0300730Y0167253D02*
X0300723Y0167887D01*
X0300727Y0167570D02*
X0299142Y0167550D01*
X0298821Y0167863D01*
X0298817Y0168180D01*
X0299130Y0168501D01*
X0201607Y0273472D02*
X0201607Y0275374D01*
X0202875Y0275374D01*
X0202241Y0274423D02*
X0201607Y0274423D01*
X0200665Y0275374D02*
X0199397Y0275374D01*
X0199397Y0273472D01*
X0199397Y0274423D02*
X0200031Y0274423D01*
X0198455Y0273789D02*
X0198455Y0275057D01*
X0198138Y0275374D01*
X0197504Y0275374D01*
X0197187Y0275057D01*
X0197187Y0273789D01*
X0197504Y0273472D01*
X0198138Y0273472D01*
X0198455Y0273789D01*
X0196245Y0274423D02*
X0194977Y0274423D01*
X0194035Y0273789D02*
X0194035Y0275057D01*
X0193718Y0275374D01*
X0192767Y0275374D01*
X0192767Y0273472D01*
X0193718Y0273472D01*
X0194035Y0273789D01*
X0191825Y0273472D02*
X0191825Y0275374D01*
X0190557Y0275374D02*
X0191825Y0273472D01*
X0190557Y0273472D02*
X0190557Y0275374D01*
X0189615Y0274740D02*
X0189615Y0273472D01*
X0189615Y0274423D02*
X0188348Y0274423D01*
X0188348Y0274740D02*
X0188981Y0275374D01*
X0189615Y0274740D01*
X0188348Y0274740D02*
X0188348Y0273472D01*
X0186772Y0273472D02*
X0186772Y0275374D01*
X0187405Y0275374D02*
X0186138Y0275374D01*
X0185196Y0275057D02*
X0184879Y0275374D01*
X0184245Y0275374D01*
X0183928Y0275057D01*
X0183928Y0274740D01*
X0184245Y0274423D01*
X0184879Y0274423D01*
X0185196Y0274106D01*
X0185196Y0273789D01*
X0184879Y0273472D01*
X0184245Y0273472D01*
X0183928Y0273789D01*
X0191662Y0291872D02*
X0191662Y0293774D01*
X0191662Y0292823D02*
X0192930Y0292823D01*
X0192930Y0293774D02*
X0192930Y0291872D01*
X0193872Y0291872D02*
X0195140Y0291872D01*
X0194506Y0291872D02*
X0194506Y0293774D01*
X0193872Y0293140D01*
X0117875Y0275374D02*
X0116607Y0275374D01*
X0116607Y0273472D01*
X0116607Y0274423D02*
X0117241Y0274423D01*
X0115665Y0275374D02*
X0114397Y0275374D01*
X0114397Y0273472D01*
X0114397Y0274423D02*
X0115031Y0274423D01*
X0113455Y0273789D02*
X0113455Y0275057D01*
X0113138Y0275374D01*
X0112504Y0275374D01*
X0112187Y0275057D01*
X0112187Y0273789D01*
X0112504Y0273472D01*
X0113138Y0273472D01*
X0113455Y0273789D01*
X0111245Y0274423D02*
X0109977Y0274423D01*
X0109035Y0273789D02*
X0109035Y0275057D01*
X0108718Y0275374D01*
X0107767Y0275374D01*
X0107767Y0273472D01*
X0108718Y0273472D01*
X0109035Y0273789D01*
X0106825Y0273472D02*
X0106825Y0275374D01*
X0105557Y0275374D02*
X0106825Y0273472D01*
X0105557Y0273472D02*
X0105557Y0275374D01*
X0104615Y0274740D02*
X0104615Y0273472D01*
X0104615Y0274423D02*
X0103348Y0274423D01*
X0103348Y0274740D02*
X0103981Y0275374D01*
X0104615Y0274740D01*
X0103348Y0274740D02*
X0103348Y0273472D01*
X0101772Y0273472D02*
X0101772Y0275374D01*
X0102405Y0275374D02*
X0101138Y0275374D01*
X0100196Y0275057D02*
X0099879Y0275374D01*
X0099245Y0275374D01*
X0098928Y0275057D01*
X0098928Y0274740D01*
X0099245Y0274423D01*
X0099879Y0274423D01*
X0100196Y0274106D01*
X0100196Y0273789D01*
X0099879Y0273472D01*
X0099245Y0273472D01*
X0098928Y0273789D01*
X0106662Y0291872D02*
X0106662Y0293774D01*
X0106662Y0292823D02*
X0107930Y0292823D01*
X0108872Y0292823D02*
X0110140Y0292823D01*
X0109823Y0291872D02*
X0109823Y0293774D01*
X0108872Y0292823D01*
X0107930Y0293774D02*
X0107930Y0291872D01*
D15*
X0084985Y0235715D02*
X0066952Y0208676D01*
X0037002Y0228651D01*
X0055034Y0255689D01*
X0084985Y0235715D01*
X0067745Y0103597D02*
X0037350Y0084307D01*
X0054764Y0056867D01*
X0085160Y0076156D01*
X0067745Y0103597D01*
X0221034Y0231351D02*
X0240909Y0205637D01*
X0269393Y0227652D01*
X0249518Y0253366D01*
X0221034Y0231351D01*
D16*
X0225730Y0230754D02*
X0228944Y0226596D01*
X0230418Y0226407D01*
X0232081Y0227693D01*
X0232270Y0229167D01*
X0229056Y0233324D01*
X0231473Y0233864D02*
X0231662Y0235338D01*
X0233325Y0236623D01*
X0234799Y0236434D01*
X0235441Y0235603D01*
X0235253Y0234129D01*
X0236727Y0233940D01*
X0237369Y0233108D01*
X0237181Y0231634D01*
X0235518Y0230349D01*
X0234043Y0230538D01*
X0234421Y0233486D02*
X0235253Y0234129D01*
X0239044Y0228405D02*
X0240518Y0228216D01*
X0241161Y0227385D01*
X0240972Y0225911D01*
X0239309Y0224625D01*
X0237835Y0224814D01*
X0237192Y0225646D01*
X0237381Y0227120D01*
X0239044Y0228405D01*
X0240972Y0225911D02*
X0242446Y0225722D01*
X0243089Y0224890D01*
X0242900Y0223416D01*
X0241237Y0222131D01*
X0239763Y0222320D01*
X0239120Y0223151D01*
X0239309Y0224625D01*
X0235419Y0224275D02*
X0234663Y0218378D01*
X0235306Y0217547D01*
X0231450Y0222536D02*
X0234776Y0225106D01*
X0235419Y0224275D01*
X0242292Y0229587D02*
X0242481Y0231062D01*
X0244144Y0232347D01*
X0245618Y0232158D01*
X0244863Y0226261D01*
X0246337Y0226073D01*
X0248000Y0227358D01*
X0248189Y0228832D01*
X0245618Y0232158D01*
X0246749Y0234360D02*
X0248677Y0231866D01*
X0249698Y0233983D01*
X0250529Y0234625D01*
X0252003Y0234437D01*
X0253289Y0232774D01*
X0253100Y0231299D01*
X0251437Y0230014D01*
X0249963Y0230203D01*
X0246749Y0234360D02*
X0250075Y0236931D01*
X0242292Y0229587D02*
X0244863Y0226261D01*
X0078667Y0088500D02*
X0078343Y0087050D01*
X0076569Y0085923D01*
X0075118Y0086248D01*
X0072866Y0089797D01*
X0073190Y0091247D01*
X0074965Y0092373D01*
X0076415Y0092049D01*
X0073788Y0084159D02*
X0070239Y0081907D01*
X0072014Y0083033D02*
X0068635Y0088357D01*
X0067987Y0085456D01*
X0066094Y0084255D02*
X0065770Y0082804D01*
X0067220Y0082480D01*
X0067783Y0081593D01*
X0067459Y0080142D01*
X0065684Y0079016D01*
X0064234Y0079340D01*
X0064882Y0082241D02*
X0065770Y0082804D01*
X0066094Y0084255D02*
X0065531Y0085142D01*
X0064080Y0085466D01*
X0062306Y0084340D01*
X0061982Y0082890D01*
X0060089Y0081688D02*
X0061215Y0079914D01*
X0060891Y0078463D01*
X0058229Y0076774D01*
X0059355Y0074999D02*
X0055976Y0080323D01*
X0058638Y0082012D01*
X0060089Y0081688D01*
X0054072Y0084083D02*
X0050523Y0081830D01*
X0051820Y0087632D01*
X0051257Y0088519D01*
X0049806Y0088843D01*
X0048032Y0087717D01*
X0047707Y0086267D01*
X0045815Y0085066D02*
X0048067Y0081516D01*
X0047743Y0080066D01*
X0045968Y0078940D01*
X0044518Y0079264D01*
X0042265Y0082813D01*
X0042590Y0084264D01*
X0044364Y0085390D01*
X0045815Y0085066D01*
X0045729Y0081277D02*
X0048630Y0080629D01*
X0050455Y0076819D02*
X0046906Y0074567D01*
X0048681Y0075693D02*
X0052059Y0070369D01*
X0055727Y0072697D02*
X0057502Y0073823D01*
X0056614Y0073260D02*
X0053236Y0078584D01*
X0054123Y0079147D02*
X0052348Y0078021D01*
X0064464Y0213762D02*
X0060966Y0216094D01*
X0062715Y0214928D02*
X0066213Y0220174D01*
X0063299Y0219591D01*
X0062017Y0221709D02*
X0059684Y0218212D01*
X0058227Y0217921D01*
X0056478Y0219087D01*
X0056187Y0220545D01*
X0058519Y0224042D01*
X0059977Y0224333D01*
X0061725Y0223167D01*
X0062017Y0221709D01*
X0058519Y0220253D02*
X0059101Y0217338D01*
X0065343Y0225796D02*
X0061846Y0228128D01*
X0063594Y0226962D02*
X0067093Y0232208D01*
X0064178Y0231626D01*
X0062313Y0232870D02*
X0060856Y0232578D01*
X0061147Y0231121D01*
X0060564Y0230247D01*
X0059106Y0229955D01*
X0057358Y0231122D01*
X0057066Y0232579D01*
X0059981Y0233161D02*
X0060856Y0232578D01*
X0062313Y0232870D02*
X0062896Y0233744D01*
X0062605Y0235201D01*
X0060856Y0236367D01*
X0059399Y0236076D01*
X0057534Y0237320D02*
X0056368Y0235571D01*
X0054910Y0235280D01*
X0052287Y0237030D01*
X0051121Y0235281D02*
X0054620Y0240527D01*
X0057242Y0238777D01*
X0057534Y0237320D01*
X0052793Y0241745D02*
X0051045Y0242911D01*
X0051919Y0242328D02*
X0048420Y0237082D01*
X0047546Y0237665D02*
X0049295Y0236499D01*
X0043932Y0240075D02*
X0047431Y0245321D01*
X0045682Y0246487D02*
X0049180Y0244155D01*
X0070124Y0228924D02*
X0067791Y0225426D01*
X0068082Y0223969D01*
X0069831Y0222803D01*
X0071288Y0223094D01*
X0073621Y0226591D02*
X0073330Y0228049D01*
X0071581Y0229215D01*
X0070124Y0228924D01*
D17*
G36*
X0085959Y0254297D02*
X0088454Y0252632D01*
X0087067Y0250553D01*
X0084572Y0252218D01*
X0085959Y0254297D01*
G37*
G36*
X0077639Y0259845D02*
X0080134Y0258180D01*
X0078747Y0256101D01*
X0076252Y0257766D01*
X0077639Y0259845D01*
G37*
G36*
X0069320Y0265394D02*
X0071815Y0263729D01*
X0070428Y0261650D01*
X0067933Y0263315D01*
X0069320Y0265394D01*
G37*
G36*
X0088245Y0059165D02*
X0085713Y0057557D01*
X0084373Y0059667D01*
X0086905Y0061275D01*
X0088245Y0059165D01*
G37*
G36*
X0079801Y0053807D02*
X0077269Y0052199D01*
X0075929Y0054309D01*
X0078461Y0055917D01*
X0079801Y0053807D01*
G37*
G36*
X0071358Y0048448D02*
X0068826Y0046840D01*
X0067486Y0048950D01*
X0070018Y0050558D01*
X0071358Y0048448D01*
G37*
D18*
G36*
X0070862Y0051095D02*
X0066641Y0048416D01*
X0060748Y0057703D01*
X0064969Y0060382D01*
X0070862Y0051095D01*
G37*
G36*
X0079305Y0056453D02*
X0075084Y0053774D01*
X0069191Y0063061D01*
X0073412Y0065740D01*
X0079305Y0056453D01*
G37*
G36*
X0087749Y0061811D02*
X0083528Y0059132D01*
X0077635Y0068419D01*
X0081856Y0071098D01*
X0087749Y0061811D01*
G37*
G36*
X0083739Y0252771D02*
X0087899Y0249997D01*
X0081797Y0240847D01*
X0077637Y0243621D01*
X0083739Y0252771D01*
G37*
G36*
X0075419Y0258320D02*
X0079579Y0255546D01*
X0073477Y0246396D01*
X0069317Y0249170D01*
X0075419Y0258320D01*
G37*
G36*
X0067100Y0263868D02*
X0071260Y0261094D01*
X0065158Y0251944D01*
X0060998Y0254718D01*
X0067100Y0263868D01*
G37*
D19*
X0102122Y0283622D02*
X0102124Y0283783D01*
X0102130Y0283943D01*
X0102140Y0284104D01*
X0102154Y0284264D01*
X0102172Y0284424D01*
X0102193Y0284583D01*
X0102219Y0284742D01*
X0102249Y0284900D01*
X0102282Y0285057D01*
X0102320Y0285214D01*
X0102361Y0285369D01*
X0102406Y0285523D01*
X0102455Y0285676D01*
X0102508Y0285828D01*
X0102564Y0285979D01*
X0102625Y0286128D01*
X0102688Y0286276D01*
X0102756Y0286422D01*
X0102827Y0286566D01*
X0102901Y0286708D01*
X0102979Y0286849D01*
X0103061Y0286987D01*
X0103146Y0287124D01*
X0103234Y0287258D01*
X0103326Y0287390D01*
X0103421Y0287520D01*
X0103519Y0287648D01*
X0103620Y0287773D01*
X0103724Y0287895D01*
X0103831Y0288015D01*
X0103941Y0288132D01*
X0104054Y0288247D01*
X0104170Y0288358D01*
X0104289Y0288467D01*
X0104410Y0288572D01*
X0104534Y0288675D01*
X0104660Y0288775D01*
X0104788Y0288871D01*
X0104919Y0288964D01*
X0105053Y0289054D01*
X0105188Y0289141D01*
X0105326Y0289224D01*
X0105465Y0289304D01*
X0105607Y0289380D01*
X0105750Y0289453D01*
X0105895Y0289522D01*
X0106042Y0289588D01*
X0106190Y0289650D01*
X0106340Y0289708D01*
X0106491Y0289763D01*
X0106644Y0289814D01*
X0106798Y0289861D01*
X0106953Y0289904D01*
X0107109Y0289943D01*
X0107265Y0289979D01*
X0107423Y0290010D01*
X0107581Y0290038D01*
X0107740Y0290062D01*
X0107900Y0290082D01*
X0108060Y0290098D01*
X0108220Y0290110D01*
X0108381Y0290118D01*
X0108542Y0290122D01*
X0108702Y0290122D01*
X0108863Y0290118D01*
X0109024Y0290110D01*
X0109184Y0290098D01*
X0109344Y0290082D01*
X0109504Y0290062D01*
X0109663Y0290038D01*
X0109821Y0290010D01*
X0109979Y0289979D01*
X0110135Y0289943D01*
X0110291Y0289904D01*
X0110446Y0289861D01*
X0110600Y0289814D01*
X0110753Y0289763D01*
X0110904Y0289708D01*
X0111054Y0289650D01*
X0111202Y0289588D01*
X0111349Y0289522D01*
X0111494Y0289453D01*
X0111637Y0289380D01*
X0111779Y0289304D01*
X0111918Y0289224D01*
X0112056Y0289141D01*
X0112191Y0289054D01*
X0112325Y0288964D01*
X0112456Y0288871D01*
X0112584Y0288775D01*
X0112710Y0288675D01*
X0112834Y0288572D01*
X0112955Y0288467D01*
X0113074Y0288358D01*
X0113190Y0288247D01*
X0113303Y0288132D01*
X0113413Y0288015D01*
X0113520Y0287895D01*
X0113624Y0287773D01*
X0113725Y0287648D01*
X0113823Y0287520D01*
X0113918Y0287390D01*
X0114010Y0287258D01*
X0114098Y0287124D01*
X0114183Y0286987D01*
X0114265Y0286849D01*
X0114343Y0286708D01*
X0114417Y0286566D01*
X0114488Y0286422D01*
X0114556Y0286276D01*
X0114619Y0286128D01*
X0114680Y0285979D01*
X0114736Y0285828D01*
X0114789Y0285676D01*
X0114838Y0285523D01*
X0114883Y0285369D01*
X0114924Y0285214D01*
X0114962Y0285057D01*
X0114995Y0284900D01*
X0115025Y0284742D01*
X0115051Y0284583D01*
X0115072Y0284424D01*
X0115090Y0284264D01*
X0115104Y0284104D01*
X0115114Y0283943D01*
X0115120Y0283783D01*
X0115122Y0283622D01*
X0115120Y0283461D01*
X0115114Y0283301D01*
X0115104Y0283140D01*
X0115090Y0282980D01*
X0115072Y0282820D01*
X0115051Y0282661D01*
X0115025Y0282502D01*
X0114995Y0282344D01*
X0114962Y0282187D01*
X0114924Y0282030D01*
X0114883Y0281875D01*
X0114838Y0281721D01*
X0114789Y0281568D01*
X0114736Y0281416D01*
X0114680Y0281265D01*
X0114619Y0281116D01*
X0114556Y0280968D01*
X0114488Y0280822D01*
X0114417Y0280678D01*
X0114343Y0280536D01*
X0114265Y0280395D01*
X0114183Y0280257D01*
X0114098Y0280120D01*
X0114010Y0279986D01*
X0113918Y0279854D01*
X0113823Y0279724D01*
X0113725Y0279596D01*
X0113624Y0279471D01*
X0113520Y0279349D01*
X0113413Y0279229D01*
X0113303Y0279112D01*
X0113190Y0278997D01*
X0113074Y0278886D01*
X0112955Y0278777D01*
X0112834Y0278672D01*
X0112710Y0278569D01*
X0112584Y0278469D01*
X0112456Y0278373D01*
X0112325Y0278280D01*
X0112191Y0278190D01*
X0112056Y0278103D01*
X0111918Y0278020D01*
X0111779Y0277940D01*
X0111637Y0277864D01*
X0111494Y0277791D01*
X0111349Y0277722D01*
X0111202Y0277656D01*
X0111054Y0277594D01*
X0110904Y0277536D01*
X0110753Y0277481D01*
X0110600Y0277430D01*
X0110446Y0277383D01*
X0110291Y0277340D01*
X0110135Y0277301D01*
X0109979Y0277265D01*
X0109821Y0277234D01*
X0109663Y0277206D01*
X0109504Y0277182D01*
X0109344Y0277162D01*
X0109184Y0277146D01*
X0109024Y0277134D01*
X0108863Y0277126D01*
X0108702Y0277122D01*
X0108542Y0277122D01*
X0108381Y0277126D01*
X0108220Y0277134D01*
X0108060Y0277146D01*
X0107900Y0277162D01*
X0107740Y0277182D01*
X0107581Y0277206D01*
X0107423Y0277234D01*
X0107265Y0277265D01*
X0107109Y0277301D01*
X0106953Y0277340D01*
X0106798Y0277383D01*
X0106644Y0277430D01*
X0106491Y0277481D01*
X0106340Y0277536D01*
X0106190Y0277594D01*
X0106042Y0277656D01*
X0105895Y0277722D01*
X0105750Y0277791D01*
X0105607Y0277864D01*
X0105465Y0277940D01*
X0105326Y0278020D01*
X0105188Y0278103D01*
X0105053Y0278190D01*
X0104919Y0278280D01*
X0104788Y0278373D01*
X0104660Y0278469D01*
X0104534Y0278569D01*
X0104410Y0278672D01*
X0104289Y0278777D01*
X0104170Y0278886D01*
X0104054Y0278997D01*
X0103941Y0279112D01*
X0103831Y0279229D01*
X0103724Y0279349D01*
X0103620Y0279471D01*
X0103519Y0279596D01*
X0103421Y0279724D01*
X0103326Y0279854D01*
X0103234Y0279986D01*
X0103146Y0280120D01*
X0103061Y0280257D01*
X0102979Y0280395D01*
X0102901Y0280536D01*
X0102827Y0280678D01*
X0102756Y0280822D01*
X0102688Y0280968D01*
X0102625Y0281116D01*
X0102564Y0281265D01*
X0102508Y0281416D01*
X0102455Y0281568D01*
X0102406Y0281721D01*
X0102361Y0281875D01*
X0102320Y0282030D01*
X0102282Y0282187D01*
X0102249Y0282344D01*
X0102219Y0282502D01*
X0102193Y0282661D01*
X0102172Y0282820D01*
X0102154Y0282980D01*
X0102140Y0283140D01*
X0102130Y0283301D01*
X0102124Y0283461D01*
X0102122Y0283622D01*
X0037709Y0207016D02*
X0037711Y0207177D01*
X0037717Y0207337D01*
X0037727Y0207498D01*
X0037741Y0207658D01*
X0037759Y0207818D01*
X0037780Y0207977D01*
X0037806Y0208136D01*
X0037836Y0208294D01*
X0037869Y0208451D01*
X0037907Y0208608D01*
X0037948Y0208763D01*
X0037993Y0208917D01*
X0038042Y0209070D01*
X0038095Y0209222D01*
X0038151Y0209373D01*
X0038212Y0209522D01*
X0038275Y0209670D01*
X0038343Y0209816D01*
X0038414Y0209960D01*
X0038488Y0210102D01*
X0038566Y0210243D01*
X0038648Y0210381D01*
X0038733Y0210518D01*
X0038821Y0210652D01*
X0038913Y0210784D01*
X0039008Y0210914D01*
X0039106Y0211042D01*
X0039207Y0211167D01*
X0039311Y0211289D01*
X0039418Y0211409D01*
X0039528Y0211526D01*
X0039641Y0211641D01*
X0039757Y0211752D01*
X0039876Y0211861D01*
X0039997Y0211966D01*
X0040121Y0212069D01*
X0040247Y0212169D01*
X0040375Y0212265D01*
X0040506Y0212358D01*
X0040640Y0212448D01*
X0040775Y0212535D01*
X0040913Y0212618D01*
X0041052Y0212698D01*
X0041194Y0212774D01*
X0041337Y0212847D01*
X0041482Y0212916D01*
X0041629Y0212982D01*
X0041777Y0213044D01*
X0041927Y0213102D01*
X0042078Y0213157D01*
X0042231Y0213208D01*
X0042385Y0213255D01*
X0042540Y0213298D01*
X0042696Y0213337D01*
X0042852Y0213373D01*
X0043010Y0213404D01*
X0043168Y0213432D01*
X0043327Y0213456D01*
X0043487Y0213476D01*
X0043647Y0213492D01*
X0043807Y0213504D01*
X0043968Y0213512D01*
X0044129Y0213516D01*
X0044289Y0213516D01*
X0044450Y0213512D01*
X0044611Y0213504D01*
X0044771Y0213492D01*
X0044931Y0213476D01*
X0045091Y0213456D01*
X0045250Y0213432D01*
X0045408Y0213404D01*
X0045566Y0213373D01*
X0045722Y0213337D01*
X0045878Y0213298D01*
X0046033Y0213255D01*
X0046187Y0213208D01*
X0046340Y0213157D01*
X0046491Y0213102D01*
X0046641Y0213044D01*
X0046789Y0212982D01*
X0046936Y0212916D01*
X0047081Y0212847D01*
X0047224Y0212774D01*
X0047366Y0212698D01*
X0047505Y0212618D01*
X0047643Y0212535D01*
X0047778Y0212448D01*
X0047912Y0212358D01*
X0048043Y0212265D01*
X0048171Y0212169D01*
X0048297Y0212069D01*
X0048421Y0211966D01*
X0048542Y0211861D01*
X0048661Y0211752D01*
X0048777Y0211641D01*
X0048890Y0211526D01*
X0049000Y0211409D01*
X0049107Y0211289D01*
X0049211Y0211167D01*
X0049312Y0211042D01*
X0049410Y0210914D01*
X0049505Y0210784D01*
X0049597Y0210652D01*
X0049685Y0210518D01*
X0049770Y0210381D01*
X0049852Y0210243D01*
X0049930Y0210102D01*
X0050004Y0209960D01*
X0050075Y0209816D01*
X0050143Y0209670D01*
X0050206Y0209522D01*
X0050267Y0209373D01*
X0050323Y0209222D01*
X0050376Y0209070D01*
X0050425Y0208917D01*
X0050470Y0208763D01*
X0050511Y0208608D01*
X0050549Y0208451D01*
X0050582Y0208294D01*
X0050612Y0208136D01*
X0050638Y0207977D01*
X0050659Y0207818D01*
X0050677Y0207658D01*
X0050691Y0207498D01*
X0050701Y0207337D01*
X0050707Y0207177D01*
X0050709Y0207016D01*
X0050707Y0206855D01*
X0050701Y0206695D01*
X0050691Y0206534D01*
X0050677Y0206374D01*
X0050659Y0206214D01*
X0050638Y0206055D01*
X0050612Y0205896D01*
X0050582Y0205738D01*
X0050549Y0205581D01*
X0050511Y0205424D01*
X0050470Y0205269D01*
X0050425Y0205115D01*
X0050376Y0204962D01*
X0050323Y0204810D01*
X0050267Y0204659D01*
X0050206Y0204510D01*
X0050143Y0204362D01*
X0050075Y0204216D01*
X0050004Y0204072D01*
X0049930Y0203930D01*
X0049852Y0203789D01*
X0049770Y0203651D01*
X0049685Y0203514D01*
X0049597Y0203380D01*
X0049505Y0203248D01*
X0049410Y0203118D01*
X0049312Y0202990D01*
X0049211Y0202865D01*
X0049107Y0202743D01*
X0049000Y0202623D01*
X0048890Y0202506D01*
X0048777Y0202391D01*
X0048661Y0202280D01*
X0048542Y0202171D01*
X0048421Y0202066D01*
X0048297Y0201963D01*
X0048171Y0201863D01*
X0048043Y0201767D01*
X0047912Y0201674D01*
X0047778Y0201584D01*
X0047643Y0201497D01*
X0047505Y0201414D01*
X0047366Y0201334D01*
X0047224Y0201258D01*
X0047081Y0201185D01*
X0046936Y0201116D01*
X0046789Y0201050D01*
X0046641Y0200988D01*
X0046491Y0200930D01*
X0046340Y0200875D01*
X0046187Y0200824D01*
X0046033Y0200777D01*
X0045878Y0200734D01*
X0045722Y0200695D01*
X0045566Y0200659D01*
X0045408Y0200628D01*
X0045250Y0200600D01*
X0045091Y0200576D01*
X0044931Y0200556D01*
X0044771Y0200540D01*
X0044611Y0200528D01*
X0044450Y0200520D01*
X0044289Y0200516D01*
X0044129Y0200516D01*
X0043968Y0200520D01*
X0043807Y0200528D01*
X0043647Y0200540D01*
X0043487Y0200556D01*
X0043327Y0200576D01*
X0043168Y0200600D01*
X0043010Y0200628D01*
X0042852Y0200659D01*
X0042696Y0200695D01*
X0042540Y0200734D01*
X0042385Y0200777D01*
X0042231Y0200824D01*
X0042078Y0200875D01*
X0041927Y0200930D01*
X0041777Y0200988D01*
X0041629Y0201050D01*
X0041482Y0201116D01*
X0041337Y0201185D01*
X0041194Y0201258D01*
X0041052Y0201334D01*
X0040913Y0201414D01*
X0040775Y0201497D01*
X0040640Y0201584D01*
X0040506Y0201674D01*
X0040375Y0201767D01*
X0040247Y0201863D01*
X0040121Y0201963D01*
X0039997Y0202066D01*
X0039876Y0202171D01*
X0039757Y0202280D01*
X0039641Y0202391D01*
X0039528Y0202506D01*
X0039418Y0202623D01*
X0039311Y0202743D01*
X0039207Y0202865D01*
X0039106Y0202990D01*
X0039008Y0203118D01*
X0038913Y0203248D01*
X0038821Y0203380D01*
X0038733Y0203514D01*
X0038648Y0203651D01*
X0038566Y0203789D01*
X0038488Y0203930D01*
X0038414Y0204072D01*
X0038343Y0204216D01*
X0038275Y0204362D01*
X0038212Y0204510D01*
X0038151Y0204659D01*
X0038095Y0204810D01*
X0038042Y0204962D01*
X0037993Y0205115D01*
X0037948Y0205269D01*
X0037907Y0205424D01*
X0037869Y0205581D01*
X0037836Y0205738D01*
X0037806Y0205896D01*
X0037780Y0206055D01*
X0037759Y0206214D01*
X0037741Y0206374D01*
X0037727Y0206534D01*
X0037717Y0206695D01*
X0037711Y0206855D01*
X0037709Y0207016D01*
X0038546Y0105773D02*
X0038548Y0105934D01*
X0038554Y0106094D01*
X0038564Y0106255D01*
X0038578Y0106415D01*
X0038596Y0106575D01*
X0038617Y0106734D01*
X0038643Y0106893D01*
X0038673Y0107051D01*
X0038706Y0107208D01*
X0038744Y0107365D01*
X0038785Y0107520D01*
X0038830Y0107674D01*
X0038879Y0107827D01*
X0038932Y0107979D01*
X0038988Y0108130D01*
X0039049Y0108279D01*
X0039112Y0108427D01*
X0039180Y0108573D01*
X0039251Y0108717D01*
X0039325Y0108859D01*
X0039403Y0109000D01*
X0039485Y0109138D01*
X0039570Y0109275D01*
X0039658Y0109409D01*
X0039750Y0109541D01*
X0039845Y0109671D01*
X0039943Y0109799D01*
X0040044Y0109924D01*
X0040148Y0110046D01*
X0040255Y0110166D01*
X0040365Y0110283D01*
X0040478Y0110398D01*
X0040594Y0110509D01*
X0040713Y0110618D01*
X0040834Y0110723D01*
X0040958Y0110826D01*
X0041084Y0110926D01*
X0041212Y0111022D01*
X0041343Y0111115D01*
X0041477Y0111205D01*
X0041612Y0111292D01*
X0041750Y0111375D01*
X0041889Y0111455D01*
X0042031Y0111531D01*
X0042174Y0111604D01*
X0042319Y0111673D01*
X0042466Y0111739D01*
X0042614Y0111801D01*
X0042764Y0111859D01*
X0042915Y0111914D01*
X0043068Y0111965D01*
X0043222Y0112012D01*
X0043377Y0112055D01*
X0043533Y0112094D01*
X0043689Y0112130D01*
X0043847Y0112161D01*
X0044005Y0112189D01*
X0044164Y0112213D01*
X0044324Y0112233D01*
X0044484Y0112249D01*
X0044644Y0112261D01*
X0044805Y0112269D01*
X0044966Y0112273D01*
X0045126Y0112273D01*
X0045287Y0112269D01*
X0045448Y0112261D01*
X0045608Y0112249D01*
X0045768Y0112233D01*
X0045928Y0112213D01*
X0046087Y0112189D01*
X0046245Y0112161D01*
X0046403Y0112130D01*
X0046559Y0112094D01*
X0046715Y0112055D01*
X0046870Y0112012D01*
X0047024Y0111965D01*
X0047177Y0111914D01*
X0047328Y0111859D01*
X0047478Y0111801D01*
X0047626Y0111739D01*
X0047773Y0111673D01*
X0047918Y0111604D01*
X0048061Y0111531D01*
X0048203Y0111455D01*
X0048342Y0111375D01*
X0048480Y0111292D01*
X0048615Y0111205D01*
X0048749Y0111115D01*
X0048880Y0111022D01*
X0049008Y0110926D01*
X0049134Y0110826D01*
X0049258Y0110723D01*
X0049379Y0110618D01*
X0049498Y0110509D01*
X0049614Y0110398D01*
X0049727Y0110283D01*
X0049837Y0110166D01*
X0049944Y0110046D01*
X0050048Y0109924D01*
X0050149Y0109799D01*
X0050247Y0109671D01*
X0050342Y0109541D01*
X0050434Y0109409D01*
X0050522Y0109275D01*
X0050607Y0109138D01*
X0050689Y0109000D01*
X0050767Y0108859D01*
X0050841Y0108717D01*
X0050912Y0108573D01*
X0050980Y0108427D01*
X0051043Y0108279D01*
X0051104Y0108130D01*
X0051160Y0107979D01*
X0051213Y0107827D01*
X0051262Y0107674D01*
X0051307Y0107520D01*
X0051348Y0107365D01*
X0051386Y0107208D01*
X0051419Y0107051D01*
X0051449Y0106893D01*
X0051475Y0106734D01*
X0051496Y0106575D01*
X0051514Y0106415D01*
X0051528Y0106255D01*
X0051538Y0106094D01*
X0051544Y0105934D01*
X0051546Y0105773D01*
X0051544Y0105612D01*
X0051538Y0105452D01*
X0051528Y0105291D01*
X0051514Y0105131D01*
X0051496Y0104971D01*
X0051475Y0104812D01*
X0051449Y0104653D01*
X0051419Y0104495D01*
X0051386Y0104338D01*
X0051348Y0104181D01*
X0051307Y0104026D01*
X0051262Y0103872D01*
X0051213Y0103719D01*
X0051160Y0103567D01*
X0051104Y0103416D01*
X0051043Y0103267D01*
X0050980Y0103119D01*
X0050912Y0102973D01*
X0050841Y0102829D01*
X0050767Y0102687D01*
X0050689Y0102546D01*
X0050607Y0102408D01*
X0050522Y0102271D01*
X0050434Y0102137D01*
X0050342Y0102005D01*
X0050247Y0101875D01*
X0050149Y0101747D01*
X0050048Y0101622D01*
X0049944Y0101500D01*
X0049837Y0101380D01*
X0049727Y0101263D01*
X0049614Y0101148D01*
X0049498Y0101037D01*
X0049379Y0100928D01*
X0049258Y0100823D01*
X0049134Y0100720D01*
X0049008Y0100620D01*
X0048880Y0100524D01*
X0048749Y0100431D01*
X0048615Y0100341D01*
X0048480Y0100254D01*
X0048342Y0100171D01*
X0048203Y0100091D01*
X0048061Y0100015D01*
X0047918Y0099942D01*
X0047773Y0099873D01*
X0047626Y0099807D01*
X0047478Y0099745D01*
X0047328Y0099687D01*
X0047177Y0099632D01*
X0047024Y0099581D01*
X0046870Y0099534D01*
X0046715Y0099491D01*
X0046559Y0099452D01*
X0046403Y0099416D01*
X0046245Y0099385D01*
X0046087Y0099357D01*
X0045928Y0099333D01*
X0045768Y0099313D01*
X0045608Y0099297D01*
X0045448Y0099285D01*
X0045287Y0099277D01*
X0045126Y0099273D01*
X0044966Y0099273D01*
X0044805Y0099277D01*
X0044644Y0099285D01*
X0044484Y0099297D01*
X0044324Y0099313D01*
X0044164Y0099333D01*
X0044005Y0099357D01*
X0043847Y0099385D01*
X0043689Y0099416D01*
X0043533Y0099452D01*
X0043377Y0099491D01*
X0043222Y0099534D01*
X0043068Y0099581D01*
X0042915Y0099632D01*
X0042764Y0099687D01*
X0042614Y0099745D01*
X0042466Y0099807D01*
X0042319Y0099873D01*
X0042174Y0099942D01*
X0042031Y0100015D01*
X0041889Y0100091D01*
X0041750Y0100171D01*
X0041612Y0100254D01*
X0041477Y0100341D01*
X0041343Y0100431D01*
X0041212Y0100524D01*
X0041084Y0100620D01*
X0040958Y0100720D01*
X0040834Y0100823D01*
X0040713Y0100928D01*
X0040594Y0101037D01*
X0040478Y0101148D01*
X0040365Y0101263D01*
X0040255Y0101380D01*
X0040148Y0101500D01*
X0040044Y0101622D01*
X0039943Y0101747D01*
X0039845Y0101875D01*
X0039750Y0102005D01*
X0039658Y0102137D01*
X0039570Y0102271D01*
X0039485Y0102408D01*
X0039403Y0102546D01*
X0039325Y0102687D01*
X0039251Y0102829D01*
X0039180Y0102973D01*
X0039112Y0103119D01*
X0039049Y0103267D01*
X0038988Y0103416D01*
X0038932Y0103567D01*
X0038879Y0103719D01*
X0038830Y0103872D01*
X0038785Y0104026D01*
X0038744Y0104181D01*
X0038706Y0104338D01*
X0038673Y0104495D01*
X0038643Y0104653D01*
X0038617Y0104812D01*
X0038596Y0104971D01*
X0038578Y0105131D01*
X0038564Y0105291D01*
X0038554Y0105452D01*
X0038548Y0105612D01*
X0038546Y0105773D01*
X0097122Y0028622D02*
X0097124Y0028783D01*
X0097130Y0028943D01*
X0097140Y0029104D01*
X0097154Y0029264D01*
X0097172Y0029424D01*
X0097193Y0029583D01*
X0097219Y0029742D01*
X0097249Y0029900D01*
X0097282Y0030057D01*
X0097320Y0030214D01*
X0097361Y0030369D01*
X0097406Y0030523D01*
X0097455Y0030676D01*
X0097508Y0030828D01*
X0097564Y0030979D01*
X0097625Y0031128D01*
X0097688Y0031276D01*
X0097756Y0031422D01*
X0097827Y0031566D01*
X0097901Y0031708D01*
X0097979Y0031849D01*
X0098061Y0031987D01*
X0098146Y0032124D01*
X0098234Y0032258D01*
X0098326Y0032390D01*
X0098421Y0032520D01*
X0098519Y0032648D01*
X0098620Y0032773D01*
X0098724Y0032895D01*
X0098831Y0033015D01*
X0098941Y0033132D01*
X0099054Y0033247D01*
X0099170Y0033358D01*
X0099289Y0033467D01*
X0099410Y0033572D01*
X0099534Y0033675D01*
X0099660Y0033775D01*
X0099788Y0033871D01*
X0099919Y0033964D01*
X0100053Y0034054D01*
X0100188Y0034141D01*
X0100326Y0034224D01*
X0100465Y0034304D01*
X0100607Y0034380D01*
X0100750Y0034453D01*
X0100895Y0034522D01*
X0101042Y0034588D01*
X0101190Y0034650D01*
X0101340Y0034708D01*
X0101491Y0034763D01*
X0101644Y0034814D01*
X0101798Y0034861D01*
X0101953Y0034904D01*
X0102109Y0034943D01*
X0102265Y0034979D01*
X0102423Y0035010D01*
X0102581Y0035038D01*
X0102740Y0035062D01*
X0102900Y0035082D01*
X0103060Y0035098D01*
X0103220Y0035110D01*
X0103381Y0035118D01*
X0103542Y0035122D01*
X0103702Y0035122D01*
X0103863Y0035118D01*
X0104024Y0035110D01*
X0104184Y0035098D01*
X0104344Y0035082D01*
X0104504Y0035062D01*
X0104663Y0035038D01*
X0104821Y0035010D01*
X0104979Y0034979D01*
X0105135Y0034943D01*
X0105291Y0034904D01*
X0105446Y0034861D01*
X0105600Y0034814D01*
X0105753Y0034763D01*
X0105904Y0034708D01*
X0106054Y0034650D01*
X0106202Y0034588D01*
X0106349Y0034522D01*
X0106494Y0034453D01*
X0106637Y0034380D01*
X0106779Y0034304D01*
X0106918Y0034224D01*
X0107056Y0034141D01*
X0107191Y0034054D01*
X0107325Y0033964D01*
X0107456Y0033871D01*
X0107584Y0033775D01*
X0107710Y0033675D01*
X0107834Y0033572D01*
X0107955Y0033467D01*
X0108074Y0033358D01*
X0108190Y0033247D01*
X0108303Y0033132D01*
X0108413Y0033015D01*
X0108520Y0032895D01*
X0108624Y0032773D01*
X0108725Y0032648D01*
X0108823Y0032520D01*
X0108918Y0032390D01*
X0109010Y0032258D01*
X0109098Y0032124D01*
X0109183Y0031987D01*
X0109265Y0031849D01*
X0109343Y0031708D01*
X0109417Y0031566D01*
X0109488Y0031422D01*
X0109556Y0031276D01*
X0109619Y0031128D01*
X0109680Y0030979D01*
X0109736Y0030828D01*
X0109789Y0030676D01*
X0109838Y0030523D01*
X0109883Y0030369D01*
X0109924Y0030214D01*
X0109962Y0030057D01*
X0109995Y0029900D01*
X0110025Y0029742D01*
X0110051Y0029583D01*
X0110072Y0029424D01*
X0110090Y0029264D01*
X0110104Y0029104D01*
X0110114Y0028943D01*
X0110120Y0028783D01*
X0110122Y0028622D01*
X0110120Y0028461D01*
X0110114Y0028301D01*
X0110104Y0028140D01*
X0110090Y0027980D01*
X0110072Y0027820D01*
X0110051Y0027661D01*
X0110025Y0027502D01*
X0109995Y0027344D01*
X0109962Y0027187D01*
X0109924Y0027030D01*
X0109883Y0026875D01*
X0109838Y0026721D01*
X0109789Y0026568D01*
X0109736Y0026416D01*
X0109680Y0026265D01*
X0109619Y0026116D01*
X0109556Y0025968D01*
X0109488Y0025822D01*
X0109417Y0025678D01*
X0109343Y0025536D01*
X0109265Y0025395D01*
X0109183Y0025257D01*
X0109098Y0025120D01*
X0109010Y0024986D01*
X0108918Y0024854D01*
X0108823Y0024724D01*
X0108725Y0024596D01*
X0108624Y0024471D01*
X0108520Y0024349D01*
X0108413Y0024229D01*
X0108303Y0024112D01*
X0108190Y0023997D01*
X0108074Y0023886D01*
X0107955Y0023777D01*
X0107834Y0023672D01*
X0107710Y0023569D01*
X0107584Y0023469D01*
X0107456Y0023373D01*
X0107325Y0023280D01*
X0107191Y0023190D01*
X0107056Y0023103D01*
X0106918Y0023020D01*
X0106779Y0022940D01*
X0106637Y0022864D01*
X0106494Y0022791D01*
X0106349Y0022722D01*
X0106202Y0022656D01*
X0106054Y0022594D01*
X0105904Y0022536D01*
X0105753Y0022481D01*
X0105600Y0022430D01*
X0105446Y0022383D01*
X0105291Y0022340D01*
X0105135Y0022301D01*
X0104979Y0022265D01*
X0104821Y0022234D01*
X0104663Y0022206D01*
X0104504Y0022182D01*
X0104344Y0022162D01*
X0104184Y0022146D01*
X0104024Y0022134D01*
X0103863Y0022126D01*
X0103702Y0022122D01*
X0103542Y0022122D01*
X0103381Y0022126D01*
X0103220Y0022134D01*
X0103060Y0022146D01*
X0102900Y0022162D01*
X0102740Y0022182D01*
X0102581Y0022206D01*
X0102423Y0022234D01*
X0102265Y0022265D01*
X0102109Y0022301D01*
X0101953Y0022340D01*
X0101798Y0022383D01*
X0101644Y0022430D01*
X0101491Y0022481D01*
X0101340Y0022536D01*
X0101190Y0022594D01*
X0101042Y0022656D01*
X0100895Y0022722D01*
X0100750Y0022791D01*
X0100607Y0022864D01*
X0100465Y0022940D01*
X0100326Y0023020D01*
X0100188Y0023103D01*
X0100053Y0023190D01*
X0099919Y0023280D01*
X0099788Y0023373D01*
X0099660Y0023469D01*
X0099534Y0023569D01*
X0099410Y0023672D01*
X0099289Y0023777D01*
X0099170Y0023886D01*
X0099054Y0023997D01*
X0098941Y0024112D01*
X0098831Y0024229D01*
X0098724Y0024349D01*
X0098620Y0024471D01*
X0098519Y0024596D01*
X0098421Y0024724D01*
X0098326Y0024854D01*
X0098234Y0024986D01*
X0098146Y0025120D01*
X0098061Y0025257D01*
X0097979Y0025395D01*
X0097901Y0025536D01*
X0097827Y0025678D01*
X0097756Y0025822D01*
X0097688Y0025968D01*
X0097625Y0026116D01*
X0097564Y0026265D01*
X0097508Y0026416D01*
X0097455Y0026568D01*
X0097406Y0026721D01*
X0097361Y0026875D01*
X0097320Y0027030D01*
X0097282Y0027187D01*
X0097249Y0027344D01*
X0097219Y0027502D01*
X0097193Y0027661D01*
X0097172Y0027820D01*
X0097154Y0027980D01*
X0097140Y0028140D01*
X0097130Y0028301D01*
X0097124Y0028461D01*
X0097122Y0028622D01*
X0277122Y0193622D02*
X0277124Y0193783D01*
X0277130Y0193943D01*
X0277140Y0194104D01*
X0277154Y0194264D01*
X0277172Y0194424D01*
X0277193Y0194583D01*
X0277219Y0194742D01*
X0277249Y0194900D01*
X0277282Y0195057D01*
X0277320Y0195214D01*
X0277361Y0195369D01*
X0277406Y0195523D01*
X0277455Y0195676D01*
X0277508Y0195828D01*
X0277564Y0195979D01*
X0277625Y0196128D01*
X0277688Y0196276D01*
X0277756Y0196422D01*
X0277827Y0196566D01*
X0277901Y0196708D01*
X0277979Y0196849D01*
X0278061Y0196987D01*
X0278146Y0197124D01*
X0278234Y0197258D01*
X0278326Y0197390D01*
X0278421Y0197520D01*
X0278519Y0197648D01*
X0278620Y0197773D01*
X0278724Y0197895D01*
X0278831Y0198015D01*
X0278941Y0198132D01*
X0279054Y0198247D01*
X0279170Y0198358D01*
X0279289Y0198467D01*
X0279410Y0198572D01*
X0279534Y0198675D01*
X0279660Y0198775D01*
X0279788Y0198871D01*
X0279919Y0198964D01*
X0280053Y0199054D01*
X0280188Y0199141D01*
X0280326Y0199224D01*
X0280465Y0199304D01*
X0280607Y0199380D01*
X0280750Y0199453D01*
X0280895Y0199522D01*
X0281042Y0199588D01*
X0281190Y0199650D01*
X0281340Y0199708D01*
X0281491Y0199763D01*
X0281644Y0199814D01*
X0281798Y0199861D01*
X0281953Y0199904D01*
X0282109Y0199943D01*
X0282265Y0199979D01*
X0282423Y0200010D01*
X0282581Y0200038D01*
X0282740Y0200062D01*
X0282900Y0200082D01*
X0283060Y0200098D01*
X0283220Y0200110D01*
X0283381Y0200118D01*
X0283542Y0200122D01*
X0283702Y0200122D01*
X0283863Y0200118D01*
X0284024Y0200110D01*
X0284184Y0200098D01*
X0284344Y0200082D01*
X0284504Y0200062D01*
X0284663Y0200038D01*
X0284821Y0200010D01*
X0284979Y0199979D01*
X0285135Y0199943D01*
X0285291Y0199904D01*
X0285446Y0199861D01*
X0285600Y0199814D01*
X0285753Y0199763D01*
X0285904Y0199708D01*
X0286054Y0199650D01*
X0286202Y0199588D01*
X0286349Y0199522D01*
X0286494Y0199453D01*
X0286637Y0199380D01*
X0286779Y0199304D01*
X0286918Y0199224D01*
X0287056Y0199141D01*
X0287191Y0199054D01*
X0287325Y0198964D01*
X0287456Y0198871D01*
X0287584Y0198775D01*
X0287710Y0198675D01*
X0287834Y0198572D01*
X0287955Y0198467D01*
X0288074Y0198358D01*
X0288190Y0198247D01*
X0288303Y0198132D01*
X0288413Y0198015D01*
X0288520Y0197895D01*
X0288624Y0197773D01*
X0288725Y0197648D01*
X0288823Y0197520D01*
X0288918Y0197390D01*
X0289010Y0197258D01*
X0289098Y0197124D01*
X0289183Y0196987D01*
X0289265Y0196849D01*
X0289343Y0196708D01*
X0289417Y0196566D01*
X0289488Y0196422D01*
X0289556Y0196276D01*
X0289619Y0196128D01*
X0289680Y0195979D01*
X0289736Y0195828D01*
X0289789Y0195676D01*
X0289838Y0195523D01*
X0289883Y0195369D01*
X0289924Y0195214D01*
X0289962Y0195057D01*
X0289995Y0194900D01*
X0290025Y0194742D01*
X0290051Y0194583D01*
X0290072Y0194424D01*
X0290090Y0194264D01*
X0290104Y0194104D01*
X0290114Y0193943D01*
X0290120Y0193783D01*
X0290122Y0193622D01*
X0290120Y0193461D01*
X0290114Y0193301D01*
X0290104Y0193140D01*
X0290090Y0192980D01*
X0290072Y0192820D01*
X0290051Y0192661D01*
X0290025Y0192502D01*
X0289995Y0192344D01*
X0289962Y0192187D01*
X0289924Y0192030D01*
X0289883Y0191875D01*
X0289838Y0191721D01*
X0289789Y0191568D01*
X0289736Y0191416D01*
X0289680Y0191265D01*
X0289619Y0191116D01*
X0289556Y0190968D01*
X0289488Y0190822D01*
X0289417Y0190678D01*
X0289343Y0190536D01*
X0289265Y0190395D01*
X0289183Y0190257D01*
X0289098Y0190120D01*
X0289010Y0189986D01*
X0288918Y0189854D01*
X0288823Y0189724D01*
X0288725Y0189596D01*
X0288624Y0189471D01*
X0288520Y0189349D01*
X0288413Y0189229D01*
X0288303Y0189112D01*
X0288190Y0188997D01*
X0288074Y0188886D01*
X0287955Y0188777D01*
X0287834Y0188672D01*
X0287710Y0188569D01*
X0287584Y0188469D01*
X0287456Y0188373D01*
X0287325Y0188280D01*
X0287191Y0188190D01*
X0287056Y0188103D01*
X0286918Y0188020D01*
X0286779Y0187940D01*
X0286637Y0187864D01*
X0286494Y0187791D01*
X0286349Y0187722D01*
X0286202Y0187656D01*
X0286054Y0187594D01*
X0285904Y0187536D01*
X0285753Y0187481D01*
X0285600Y0187430D01*
X0285446Y0187383D01*
X0285291Y0187340D01*
X0285135Y0187301D01*
X0284979Y0187265D01*
X0284821Y0187234D01*
X0284663Y0187206D01*
X0284504Y0187182D01*
X0284344Y0187162D01*
X0284184Y0187146D01*
X0284024Y0187134D01*
X0283863Y0187126D01*
X0283702Y0187122D01*
X0283542Y0187122D01*
X0283381Y0187126D01*
X0283220Y0187134D01*
X0283060Y0187146D01*
X0282900Y0187162D01*
X0282740Y0187182D01*
X0282581Y0187206D01*
X0282423Y0187234D01*
X0282265Y0187265D01*
X0282109Y0187301D01*
X0281953Y0187340D01*
X0281798Y0187383D01*
X0281644Y0187430D01*
X0281491Y0187481D01*
X0281340Y0187536D01*
X0281190Y0187594D01*
X0281042Y0187656D01*
X0280895Y0187722D01*
X0280750Y0187791D01*
X0280607Y0187864D01*
X0280465Y0187940D01*
X0280326Y0188020D01*
X0280188Y0188103D01*
X0280053Y0188190D01*
X0279919Y0188280D01*
X0279788Y0188373D01*
X0279660Y0188469D01*
X0279534Y0188569D01*
X0279410Y0188672D01*
X0279289Y0188777D01*
X0279170Y0188886D01*
X0279054Y0188997D01*
X0278941Y0189112D01*
X0278831Y0189229D01*
X0278724Y0189349D01*
X0278620Y0189471D01*
X0278519Y0189596D01*
X0278421Y0189724D01*
X0278326Y0189854D01*
X0278234Y0189986D01*
X0278146Y0190120D01*
X0278061Y0190257D01*
X0277979Y0190395D01*
X0277901Y0190536D01*
X0277827Y0190678D01*
X0277756Y0190822D01*
X0277688Y0190968D01*
X0277625Y0191116D01*
X0277564Y0191265D01*
X0277508Y0191416D01*
X0277455Y0191568D01*
X0277406Y0191721D01*
X0277361Y0191875D01*
X0277320Y0192030D01*
X0277282Y0192187D01*
X0277249Y0192344D01*
X0277219Y0192502D01*
X0277193Y0192661D01*
X0277172Y0192820D01*
X0277154Y0192980D01*
X0277140Y0193140D01*
X0277130Y0193301D01*
X0277124Y0193461D01*
X0277122Y0193622D01*
X0220215Y0253436D02*
X0220217Y0253597D01*
X0220223Y0253757D01*
X0220233Y0253918D01*
X0220247Y0254078D01*
X0220265Y0254238D01*
X0220286Y0254397D01*
X0220312Y0254556D01*
X0220342Y0254714D01*
X0220375Y0254871D01*
X0220413Y0255028D01*
X0220454Y0255183D01*
X0220499Y0255337D01*
X0220548Y0255490D01*
X0220601Y0255642D01*
X0220657Y0255793D01*
X0220718Y0255942D01*
X0220781Y0256090D01*
X0220849Y0256236D01*
X0220920Y0256380D01*
X0220994Y0256522D01*
X0221072Y0256663D01*
X0221154Y0256801D01*
X0221239Y0256938D01*
X0221327Y0257072D01*
X0221419Y0257204D01*
X0221514Y0257334D01*
X0221612Y0257462D01*
X0221713Y0257587D01*
X0221817Y0257709D01*
X0221924Y0257829D01*
X0222034Y0257946D01*
X0222147Y0258061D01*
X0222263Y0258172D01*
X0222382Y0258281D01*
X0222503Y0258386D01*
X0222627Y0258489D01*
X0222753Y0258589D01*
X0222881Y0258685D01*
X0223012Y0258778D01*
X0223146Y0258868D01*
X0223281Y0258955D01*
X0223419Y0259038D01*
X0223558Y0259118D01*
X0223700Y0259194D01*
X0223843Y0259267D01*
X0223988Y0259336D01*
X0224135Y0259402D01*
X0224283Y0259464D01*
X0224433Y0259522D01*
X0224584Y0259577D01*
X0224737Y0259628D01*
X0224891Y0259675D01*
X0225046Y0259718D01*
X0225202Y0259757D01*
X0225358Y0259793D01*
X0225516Y0259824D01*
X0225674Y0259852D01*
X0225833Y0259876D01*
X0225993Y0259896D01*
X0226153Y0259912D01*
X0226313Y0259924D01*
X0226474Y0259932D01*
X0226635Y0259936D01*
X0226795Y0259936D01*
X0226956Y0259932D01*
X0227117Y0259924D01*
X0227277Y0259912D01*
X0227437Y0259896D01*
X0227597Y0259876D01*
X0227756Y0259852D01*
X0227914Y0259824D01*
X0228072Y0259793D01*
X0228228Y0259757D01*
X0228384Y0259718D01*
X0228539Y0259675D01*
X0228693Y0259628D01*
X0228846Y0259577D01*
X0228997Y0259522D01*
X0229147Y0259464D01*
X0229295Y0259402D01*
X0229442Y0259336D01*
X0229587Y0259267D01*
X0229730Y0259194D01*
X0229872Y0259118D01*
X0230011Y0259038D01*
X0230149Y0258955D01*
X0230284Y0258868D01*
X0230418Y0258778D01*
X0230549Y0258685D01*
X0230677Y0258589D01*
X0230803Y0258489D01*
X0230927Y0258386D01*
X0231048Y0258281D01*
X0231167Y0258172D01*
X0231283Y0258061D01*
X0231396Y0257946D01*
X0231506Y0257829D01*
X0231613Y0257709D01*
X0231717Y0257587D01*
X0231818Y0257462D01*
X0231916Y0257334D01*
X0232011Y0257204D01*
X0232103Y0257072D01*
X0232191Y0256938D01*
X0232276Y0256801D01*
X0232358Y0256663D01*
X0232436Y0256522D01*
X0232510Y0256380D01*
X0232581Y0256236D01*
X0232649Y0256090D01*
X0232712Y0255942D01*
X0232773Y0255793D01*
X0232829Y0255642D01*
X0232882Y0255490D01*
X0232931Y0255337D01*
X0232976Y0255183D01*
X0233017Y0255028D01*
X0233055Y0254871D01*
X0233088Y0254714D01*
X0233118Y0254556D01*
X0233144Y0254397D01*
X0233165Y0254238D01*
X0233183Y0254078D01*
X0233197Y0253918D01*
X0233207Y0253757D01*
X0233213Y0253597D01*
X0233215Y0253436D01*
X0233213Y0253275D01*
X0233207Y0253115D01*
X0233197Y0252954D01*
X0233183Y0252794D01*
X0233165Y0252634D01*
X0233144Y0252475D01*
X0233118Y0252316D01*
X0233088Y0252158D01*
X0233055Y0252001D01*
X0233017Y0251844D01*
X0232976Y0251689D01*
X0232931Y0251535D01*
X0232882Y0251382D01*
X0232829Y0251230D01*
X0232773Y0251079D01*
X0232712Y0250930D01*
X0232649Y0250782D01*
X0232581Y0250636D01*
X0232510Y0250492D01*
X0232436Y0250350D01*
X0232358Y0250209D01*
X0232276Y0250071D01*
X0232191Y0249934D01*
X0232103Y0249800D01*
X0232011Y0249668D01*
X0231916Y0249538D01*
X0231818Y0249410D01*
X0231717Y0249285D01*
X0231613Y0249163D01*
X0231506Y0249043D01*
X0231396Y0248926D01*
X0231283Y0248811D01*
X0231167Y0248700D01*
X0231048Y0248591D01*
X0230927Y0248486D01*
X0230803Y0248383D01*
X0230677Y0248283D01*
X0230549Y0248187D01*
X0230418Y0248094D01*
X0230284Y0248004D01*
X0230149Y0247917D01*
X0230011Y0247834D01*
X0229872Y0247754D01*
X0229730Y0247678D01*
X0229587Y0247605D01*
X0229442Y0247536D01*
X0229295Y0247470D01*
X0229147Y0247408D01*
X0228997Y0247350D01*
X0228846Y0247295D01*
X0228693Y0247244D01*
X0228539Y0247197D01*
X0228384Y0247154D01*
X0228228Y0247115D01*
X0228072Y0247079D01*
X0227914Y0247048D01*
X0227756Y0247020D01*
X0227597Y0246996D01*
X0227437Y0246976D01*
X0227277Y0246960D01*
X0227117Y0246948D01*
X0226956Y0246940D01*
X0226795Y0246936D01*
X0226635Y0246936D01*
X0226474Y0246940D01*
X0226313Y0246948D01*
X0226153Y0246960D01*
X0225993Y0246976D01*
X0225833Y0246996D01*
X0225674Y0247020D01*
X0225516Y0247048D01*
X0225358Y0247079D01*
X0225202Y0247115D01*
X0225046Y0247154D01*
X0224891Y0247197D01*
X0224737Y0247244D01*
X0224584Y0247295D01*
X0224433Y0247350D01*
X0224283Y0247408D01*
X0224135Y0247470D01*
X0223988Y0247536D01*
X0223843Y0247605D01*
X0223700Y0247678D01*
X0223558Y0247754D01*
X0223419Y0247834D01*
X0223281Y0247917D01*
X0223146Y0248004D01*
X0223012Y0248094D01*
X0222881Y0248187D01*
X0222753Y0248283D01*
X0222627Y0248383D01*
X0222503Y0248486D01*
X0222382Y0248591D01*
X0222263Y0248700D01*
X0222147Y0248811D01*
X0222034Y0248926D01*
X0221924Y0249043D01*
X0221817Y0249163D01*
X0221713Y0249285D01*
X0221612Y0249410D01*
X0221514Y0249538D01*
X0221419Y0249668D01*
X0221327Y0249800D01*
X0221239Y0249934D01*
X0221154Y0250071D01*
X0221072Y0250209D01*
X0220994Y0250350D01*
X0220920Y0250492D01*
X0220849Y0250636D01*
X0220781Y0250782D01*
X0220718Y0250930D01*
X0220657Y0251079D01*
X0220601Y0251230D01*
X0220548Y0251382D01*
X0220499Y0251535D01*
X0220454Y0251689D01*
X0220413Y0251844D01*
X0220375Y0252001D01*
X0220342Y0252158D01*
X0220312Y0252316D01*
X0220286Y0252475D01*
X0220265Y0252634D01*
X0220247Y0252794D01*
X0220233Y0252954D01*
X0220223Y0253115D01*
X0220217Y0253275D01*
X0220215Y0253436D01*
X0187122Y0283622D02*
X0187124Y0283783D01*
X0187130Y0283943D01*
X0187140Y0284104D01*
X0187154Y0284264D01*
X0187172Y0284424D01*
X0187193Y0284583D01*
X0187219Y0284742D01*
X0187249Y0284900D01*
X0187282Y0285057D01*
X0187320Y0285214D01*
X0187361Y0285369D01*
X0187406Y0285523D01*
X0187455Y0285676D01*
X0187508Y0285828D01*
X0187564Y0285979D01*
X0187625Y0286128D01*
X0187688Y0286276D01*
X0187756Y0286422D01*
X0187827Y0286566D01*
X0187901Y0286708D01*
X0187979Y0286849D01*
X0188061Y0286987D01*
X0188146Y0287124D01*
X0188234Y0287258D01*
X0188326Y0287390D01*
X0188421Y0287520D01*
X0188519Y0287648D01*
X0188620Y0287773D01*
X0188724Y0287895D01*
X0188831Y0288015D01*
X0188941Y0288132D01*
X0189054Y0288247D01*
X0189170Y0288358D01*
X0189289Y0288467D01*
X0189410Y0288572D01*
X0189534Y0288675D01*
X0189660Y0288775D01*
X0189788Y0288871D01*
X0189919Y0288964D01*
X0190053Y0289054D01*
X0190188Y0289141D01*
X0190326Y0289224D01*
X0190465Y0289304D01*
X0190607Y0289380D01*
X0190750Y0289453D01*
X0190895Y0289522D01*
X0191042Y0289588D01*
X0191190Y0289650D01*
X0191340Y0289708D01*
X0191491Y0289763D01*
X0191644Y0289814D01*
X0191798Y0289861D01*
X0191953Y0289904D01*
X0192109Y0289943D01*
X0192265Y0289979D01*
X0192423Y0290010D01*
X0192581Y0290038D01*
X0192740Y0290062D01*
X0192900Y0290082D01*
X0193060Y0290098D01*
X0193220Y0290110D01*
X0193381Y0290118D01*
X0193542Y0290122D01*
X0193702Y0290122D01*
X0193863Y0290118D01*
X0194024Y0290110D01*
X0194184Y0290098D01*
X0194344Y0290082D01*
X0194504Y0290062D01*
X0194663Y0290038D01*
X0194821Y0290010D01*
X0194979Y0289979D01*
X0195135Y0289943D01*
X0195291Y0289904D01*
X0195446Y0289861D01*
X0195600Y0289814D01*
X0195753Y0289763D01*
X0195904Y0289708D01*
X0196054Y0289650D01*
X0196202Y0289588D01*
X0196349Y0289522D01*
X0196494Y0289453D01*
X0196637Y0289380D01*
X0196779Y0289304D01*
X0196918Y0289224D01*
X0197056Y0289141D01*
X0197191Y0289054D01*
X0197325Y0288964D01*
X0197456Y0288871D01*
X0197584Y0288775D01*
X0197710Y0288675D01*
X0197834Y0288572D01*
X0197955Y0288467D01*
X0198074Y0288358D01*
X0198190Y0288247D01*
X0198303Y0288132D01*
X0198413Y0288015D01*
X0198520Y0287895D01*
X0198624Y0287773D01*
X0198725Y0287648D01*
X0198823Y0287520D01*
X0198918Y0287390D01*
X0199010Y0287258D01*
X0199098Y0287124D01*
X0199183Y0286987D01*
X0199265Y0286849D01*
X0199343Y0286708D01*
X0199417Y0286566D01*
X0199488Y0286422D01*
X0199556Y0286276D01*
X0199619Y0286128D01*
X0199680Y0285979D01*
X0199736Y0285828D01*
X0199789Y0285676D01*
X0199838Y0285523D01*
X0199883Y0285369D01*
X0199924Y0285214D01*
X0199962Y0285057D01*
X0199995Y0284900D01*
X0200025Y0284742D01*
X0200051Y0284583D01*
X0200072Y0284424D01*
X0200090Y0284264D01*
X0200104Y0284104D01*
X0200114Y0283943D01*
X0200120Y0283783D01*
X0200122Y0283622D01*
X0200120Y0283461D01*
X0200114Y0283301D01*
X0200104Y0283140D01*
X0200090Y0282980D01*
X0200072Y0282820D01*
X0200051Y0282661D01*
X0200025Y0282502D01*
X0199995Y0282344D01*
X0199962Y0282187D01*
X0199924Y0282030D01*
X0199883Y0281875D01*
X0199838Y0281721D01*
X0199789Y0281568D01*
X0199736Y0281416D01*
X0199680Y0281265D01*
X0199619Y0281116D01*
X0199556Y0280968D01*
X0199488Y0280822D01*
X0199417Y0280678D01*
X0199343Y0280536D01*
X0199265Y0280395D01*
X0199183Y0280257D01*
X0199098Y0280120D01*
X0199010Y0279986D01*
X0198918Y0279854D01*
X0198823Y0279724D01*
X0198725Y0279596D01*
X0198624Y0279471D01*
X0198520Y0279349D01*
X0198413Y0279229D01*
X0198303Y0279112D01*
X0198190Y0278997D01*
X0198074Y0278886D01*
X0197955Y0278777D01*
X0197834Y0278672D01*
X0197710Y0278569D01*
X0197584Y0278469D01*
X0197456Y0278373D01*
X0197325Y0278280D01*
X0197191Y0278190D01*
X0197056Y0278103D01*
X0196918Y0278020D01*
X0196779Y0277940D01*
X0196637Y0277864D01*
X0196494Y0277791D01*
X0196349Y0277722D01*
X0196202Y0277656D01*
X0196054Y0277594D01*
X0195904Y0277536D01*
X0195753Y0277481D01*
X0195600Y0277430D01*
X0195446Y0277383D01*
X0195291Y0277340D01*
X0195135Y0277301D01*
X0194979Y0277265D01*
X0194821Y0277234D01*
X0194663Y0277206D01*
X0194504Y0277182D01*
X0194344Y0277162D01*
X0194184Y0277146D01*
X0194024Y0277134D01*
X0193863Y0277126D01*
X0193702Y0277122D01*
X0193542Y0277122D01*
X0193381Y0277126D01*
X0193220Y0277134D01*
X0193060Y0277146D01*
X0192900Y0277162D01*
X0192740Y0277182D01*
X0192581Y0277206D01*
X0192423Y0277234D01*
X0192265Y0277265D01*
X0192109Y0277301D01*
X0191953Y0277340D01*
X0191798Y0277383D01*
X0191644Y0277430D01*
X0191491Y0277481D01*
X0191340Y0277536D01*
X0191190Y0277594D01*
X0191042Y0277656D01*
X0190895Y0277722D01*
X0190750Y0277791D01*
X0190607Y0277864D01*
X0190465Y0277940D01*
X0190326Y0278020D01*
X0190188Y0278103D01*
X0190053Y0278190D01*
X0189919Y0278280D01*
X0189788Y0278373D01*
X0189660Y0278469D01*
X0189534Y0278569D01*
X0189410Y0278672D01*
X0189289Y0278777D01*
X0189170Y0278886D01*
X0189054Y0278997D01*
X0188941Y0279112D01*
X0188831Y0279229D01*
X0188724Y0279349D01*
X0188620Y0279471D01*
X0188519Y0279596D01*
X0188421Y0279724D01*
X0188326Y0279854D01*
X0188234Y0279986D01*
X0188146Y0280120D01*
X0188061Y0280257D01*
X0187979Y0280395D01*
X0187901Y0280536D01*
X0187827Y0280678D01*
X0187756Y0280822D01*
X0187688Y0280968D01*
X0187625Y0281116D01*
X0187564Y0281265D01*
X0187508Y0281416D01*
X0187455Y0281568D01*
X0187406Y0281721D01*
X0187361Y0281875D01*
X0187320Y0282030D01*
X0187282Y0282187D01*
X0187249Y0282344D01*
X0187219Y0282502D01*
X0187193Y0282661D01*
X0187172Y0282820D01*
X0187154Y0282980D01*
X0187140Y0283140D01*
X0187130Y0283301D01*
X0187124Y0283461D01*
X0187122Y0283622D01*
D20*
X0202239Y0251581D02*
X0206826Y0245647D01*
X0209595Y0247787D01*
X0213264Y0243040D01*
X0210495Y0240900D01*
X0240460Y0202130D01*
X0272900Y0227202D01*
X0242935Y0265972D01*
X0240166Y0263832D01*
X0236497Y0268579D01*
X0239266Y0270720D01*
X0234680Y0276654D01*
X0202239Y0251581D01*
X0219615Y0253436D02*
X0219617Y0253610D01*
X0219624Y0253784D01*
X0219634Y0253958D01*
X0219649Y0254132D01*
X0219668Y0254305D01*
X0219692Y0254478D01*
X0219720Y0254650D01*
X0219751Y0254821D01*
X0219788Y0254992D01*
X0219828Y0255161D01*
X0219872Y0255330D01*
X0219921Y0255497D01*
X0219973Y0255663D01*
X0220030Y0255828D01*
X0220091Y0255991D01*
X0220155Y0256153D01*
X0220224Y0256313D01*
X0220297Y0256472D01*
X0220373Y0256628D01*
X0220453Y0256783D01*
X0220537Y0256936D01*
X0220625Y0257086D01*
X0220717Y0257234D01*
X0220812Y0257381D01*
X0220910Y0257524D01*
X0221012Y0257665D01*
X0221118Y0257804D01*
X0221227Y0257940D01*
X0221339Y0258074D01*
X0221454Y0258204D01*
X0221573Y0258332D01*
X0221695Y0258456D01*
X0221819Y0258578D01*
X0221947Y0258697D01*
X0222077Y0258812D01*
X0222211Y0258924D01*
X0222347Y0259033D01*
X0222486Y0259139D01*
X0222627Y0259241D01*
X0222770Y0259339D01*
X0222917Y0259434D01*
X0223065Y0259526D01*
X0223215Y0259614D01*
X0223368Y0259698D01*
X0223523Y0259778D01*
X0223679Y0259854D01*
X0223838Y0259927D01*
X0223998Y0259996D01*
X0224160Y0260060D01*
X0224323Y0260121D01*
X0224488Y0260178D01*
X0224654Y0260230D01*
X0224821Y0260279D01*
X0224990Y0260323D01*
X0225159Y0260363D01*
X0225330Y0260400D01*
X0225501Y0260431D01*
X0225673Y0260459D01*
X0225846Y0260483D01*
X0226019Y0260502D01*
X0226193Y0260517D01*
X0226367Y0260527D01*
X0226541Y0260534D01*
X0226715Y0260536D01*
X0226889Y0260534D01*
X0227063Y0260527D01*
X0227237Y0260517D01*
X0227411Y0260502D01*
X0227584Y0260483D01*
X0227757Y0260459D01*
X0227929Y0260431D01*
X0228100Y0260400D01*
X0228271Y0260363D01*
X0228440Y0260323D01*
X0228609Y0260279D01*
X0228776Y0260230D01*
X0228942Y0260178D01*
X0229107Y0260121D01*
X0229270Y0260060D01*
X0229432Y0259996D01*
X0229592Y0259927D01*
X0229751Y0259854D01*
X0229907Y0259778D01*
X0230062Y0259698D01*
X0230215Y0259614D01*
X0230365Y0259526D01*
X0230513Y0259434D01*
X0230660Y0259339D01*
X0230803Y0259241D01*
X0230944Y0259139D01*
X0231083Y0259033D01*
X0231219Y0258924D01*
X0231353Y0258812D01*
X0231483Y0258697D01*
X0231611Y0258578D01*
X0231735Y0258456D01*
X0231857Y0258332D01*
X0231976Y0258204D01*
X0232091Y0258074D01*
X0232203Y0257940D01*
X0232312Y0257804D01*
X0232418Y0257665D01*
X0232520Y0257524D01*
X0232618Y0257381D01*
X0232713Y0257234D01*
X0232805Y0257086D01*
X0232893Y0256936D01*
X0232977Y0256783D01*
X0233057Y0256628D01*
X0233133Y0256472D01*
X0233206Y0256313D01*
X0233275Y0256153D01*
X0233339Y0255991D01*
X0233400Y0255828D01*
X0233457Y0255663D01*
X0233509Y0255497D01*
X0233558Y0255330D01*
X0233602Y0255161D01*
X0233642Y0254992D01*
X0233679Y0254821D01*
X0233710Y0254650D01*
X0233738Y0254478D01*
X0233762Y0254305D01*
X0233781Y0254132D01*
X0233796Y0253958D01*
X0233806Y0253784D01*
X0233813Y0253610D01*
X0233815Y0253436D01*
X0233813Y0253262D01*
X0233806Y0253088D01*
X0233796Y0252914D01*
X0233781Y0252740D01*
X0233762Y0252567D01*
X0233738Y0252394D01*
X0233710Y0252222D01*
X0233679Y0252051D01*
X0233642Y0251880D01*
X0233602Y0251711D01*
X0233558Y0251542D01*
X0233509Y0251375D01*
X0233457Y0251209D01*
X0233400Y0251044D01*
X0233339Y0250881D01*
X0233275Y0250719D01*
X0233206Y0250559D01*
X0233133Y0250400D01*
X0233057Y0250244D01*
X0232977Y0250089D01*
X0232893Y0249936D01*
X0232805Y0249786D01*
X0232713Y0249638D01*
X0232618Y0249491D01*
X0232520Y0249348D01*
X0232418Y0249207D01*
X0232312Y0249068D01*
X0232203Y0248932D01*
X0232091Y0248798D01*
X0231976Y0248668D01*
X0231857Y0248540D01*
X0231735Y0248416D01*
X0231611Y0248294D01*
X0231483Y0248175D01*
X0231353Y0248060D01*
X0231219Y0247948D01*
X0231083Y0247839D01*
X0230944Y0247733D01*
X0230803Y0247631D01*
X0230660Y0247533D01*
X0230513Y0247438D01*
X0230365Y0247346D01*
X0230215Y0247258D01*
X0230062Y0247174D01*
X0229907Y0247094D01*
X0229751Y0247018D01*
X0229592Y0246945D01*
X0229432Y0246876D01*
X0229270Y0246812D01*
X0229107Y0246751D01*
X0228942Y0246694D01*
X0228776Y0246642D01*
X0228609Y0246593D01*
X0228440Y0246549D01*
X0228271Y0246509D01*
X0228100Y0246472D01*
X0227929Y0246441D01*
X0227757Y0246413D01*
X0227584Y0246389D01*
X0227411Y0246370D01*
X0227237Y0246355D01*
X0227063Y0246345D01*
X0226889Y0246338D01*
X0226715Y0246336D01*
X0226541Y0246338D01*
X0226367Y0246345D01*
X0226193Y0246355D01*
X0226019Y0246370D01*
X0225846Y0246389D01*
X0225673Y0246413D01*
X0225501Y0246441D01*
X0225330Y0246472D01*
X0225159Y0246509D01*
X0224990Y0246549D01*
X0224821Y0246593D01*
X0224654Y0246642D01*
X0224488Y0246694D01*
X0224323Y0246751D01*
X0224160Y0246812D01*
X0223998Y0246876D01*
X0223838Y0246945D01*
X0223679Y0247018D01*
X0223523Y0247094D01*
X0223368Y0247174D01*
X0223215Y0247258D01*
X0223065Y0247346D01*
X0222917Y0247438D01*
X0222770Y0247533D01*
X0222627Y0247631D01*
X0222486Y0247733D01*
X0222347Y0247839D01*
X0222211Y0247948D01*
X0222077Y0248060D01*
X0221947Y0248175D01*
X0221819Y0248294D01*
X0221695Y0248416D01*
X0221573Y0248540D01*
X0221454Y0248668D01*
X0221339Y0248798D01*
X0221227Y0248932D01*
X0221118Y0249068D01*
X0221012Y0249207D01*
X0220910Y0249348D01*
X0220812Y0249491D01*
X0220717Y0249638D01*
X0220625Y0249786D01*
X0220537Y0249936D01*
X0220453Y0250089D01*
X0220373Y0250244D01*
X0220297Y0250400D01*
X0220224Y0250559D01*
X0220155Y0250719D01*
X0220091Y0250881D01*
X0220030Y0251044D01*
X0219973Y0251209D01*
X0219921Y0251375D01*
X0219872Y0251542D01*
X0219828Y0251711D01*
X0219788Y0251880D01*
X0219751Y0252051D01*
X0219720Y0252222D01*
X0219692Y0252394D01*
X0219668Y0252567D01*
X0219649Y0252740D01*
X0219634Y0252914D01*
X0219624Y0253088D01*
X0219617Y0253262D01*
X0219615Y0253436D01*
X0215297Y0171170D02*
X0222296Y0171072D01*
X0222356Y0171069D01*
X0222416Y0171063D01*
X0222476Y0171053D01*
X0222535Y0171040D01*
X0222593Y0171022D01*
X0222650Y0171002D01*
X0222705Y0170978D01*
X0222759Y0170951D01*
X0222811Y0170920D01*
X0222861Y0170887D01*
X0222910Y0170850D01*
X0222956Y0170811D01*
X0222999Y0170769D01*
X0223040Y0170725D01*
X0223078Y0170678D01*
X0223113Y0170629D01*
X0223145Y0170577D01*
X0223174Y0170524D01*
X0223200Y0170470D01*
X0223222Y0170414D01*
X0223241Y0170356D01*
X0223256Y0170298D01*
X0223268Y0170239D01*
X0223276Y0170179D01*
X0223281Y0170118D01*
X0223282Y0170058D01*
X0223261Y0168558D01*
X0222755Y0168065D01*
X0222489Y0149067D01*
X0222982Y0148560D01*
X0222961Y0147061D01*
X0222958Y0147001D01*
X0222952Y0146941D01*
X0222942Y0146881D01*
X0222929Y0146822D01*
X0222911Y0146764D01*
X0222891Y0146707D01*
X0222867Y0146652D01*
X0222840Y0146598D01*
X0222809Y0146546D01*
X0222776Y0146495D01*
X0222739Y0146447D01*
X0222700Y0146401D01*
X0222658Y0146358D01*
X0222614Y0146317D01*
X0222567Y0146279D01*
X0222518Y0146244D01*
X0222466Y0146212D01*
X0222413Y0146183D01*
X0222359Y0146157D01*
X0222303Y0146135D01*
X0222245Y0146116D01*
X0222187Y0146101D01*
X0222128Y0146089D01*
X0222068Y0146081D01*
X0222007Y0146076D01*
X0221947Y0146075D01*
X0214948Y0146172D01*
X0214888Y0146175D01*
X0214828Y0146181D01*
X0214768Y0146191D01*
X0214709Y0146204D01*
X0214651Y0146222D01*
X0214594Y0146242D01*
X0214539Y0146266D01*
X0214485Y0146293D01*
X0214433Y0146324D01*
X0214383Y0146357D01*
X0214334Y0146394D01*
X0214288Y0146433D01*
X0214245Y0146475D01*
X0214204Y0146519D01*
X0214166Y0146566D01*
X0214131Y0146615D01*
X0214099Y0146667D01*
X0214070Y0146720D01*
X0214044Y0146774D01*
X0214022Y0146830D01*
X0214003Y0146888D01*
X0213988Y0146946D01*
X0213976Y0147005D01*
X0213968Y0147065D01*
X0213963Y0147126D01*
X0213962Y0147186D01*
X0213983Y0148686D01*
X0214490Y0149179D01*
X0214755Y0168177D01*
X0214262Y0168684D01*
X0214283Y0170184D01*
X0214286Y0170247D01*
X0214293Y0170309D01*
X0214303Y0170371D01*
X0214318Y0170432D01*
X0214336Y0170492D01*
X0214358Y0170551D01*
X0214384Y0170608D01*
X0214414Y0170664D01*
X0214446Y0170718D01*
X0214482Y0170769D01*
X0214521Y0170818D01*
X0214564Y0170865D01*
X0214609Y0170908D01*
X0214656Y0170949D01*
X0214707Y0170987D01*
X0214759Y0171022D01*
X0214814Y0171053D01*
X0214870Y0171081D01*
X0214928Y0171105D01*
X0214987Y0171125D01*
X0215048Y0171142D01*
X0215109Y0171155D01*
X0215172Y0171164D01*
X0215234Y0171169D01*
X0215297Y0171170D01*
X0098722Y0215728D02*
X0097894Y0214477D01*
X0097201Y0214336D01*
X0086714Y0198493D01*
X0086855Y0197800D01*
X0086027Y0196549D01*
X0086028Y0196549D02*
X0085993Y0196500D01*
X0085955Y0196453D01*
X0085915Y0196408D01*
X0085872Y0196366D01*
X0085826Y0196326D01*
X0085778Y0196289D01*
X0085728Y0196255D01*
X0085676Y0196225D01*
X0085622Y0196197D01*
X0085567Y0196173D01*
X0085510Y0196152D01*
X0085452Y0196135D01*
X0085393Y0196121D01*
X0085334Y0196111D01*
X0085274Y0196104D01*
X0085213Y0196101D01*
X0085153Y0196102D01*
X0085093Y0196106D01*
X0085033Y0196114D01*
X0084974Y0196126D01*
X0084915Y0196141D01*
X0084858Y0196159D01*
X0084801Y0196181D01*
X0084747Y0196207D01*
X0084693Y0196235D01*
X0084642Y0196267D01*
X0078804Y0200130D01*
X0078755Y0200165D01*
X0078708Y0200203D01*
X0078663Y0200243D01*
X0078621Y0200286D01*
X0078581Y0200332D01*
X0078544Y0200380D01*
X0078510Y0200430D01*
X0078480Y0200482D01*
X0078452Y0200536D01*
X0078428Y0200591D01*
X0078407Y0200648D01*
X0078390Y0200706D01*
X0078376Y0200765D01*
X0078366Y0200824D01*
X0078359Y0200884D01*
X0078356Y0200945D01*
X0078357Y0201005D01*
X0078361Y0201065D01*
X0078369Y0201125D01*
X0078381Y0201184D01*
X0078396Y0201243D01*
X0078414Y0201300D01*
X0078436Y0201357D01*
X0078462Y0201411D01*
X0078490Y0201465D01*
X0078522Y0201516D01*
X0079350Y0202767D01*
X0080043Y0202908D01*
X0090530Y0218752D01*
X0090389Y0219445D01*
X0091217Y0220696D01*
X0091253Y0220747D01*
X0091293Y0220796D01*
X0091335Y0220842D01*
X0091381Y0220886D01*
X0091428Y0220927D01*
X0091479Y0220964D01*
X0091531Y0220998D01*
X0091586Y0221029D01*
X0091643Y0221057D01*
X0091701Y0221081D01*
X0091760Y0221101D01*
X0091821Y0221117D01*
X0091883Y0221130D01*
X0091945Y0221138D01*
X0092007Y0221143D01*
X0092070Y0221144D01*
X0092133Y0221141D01*
X0092195Y0221134D01*
X0092257Y0221123D01*
X0092318Y0221108D01*
X0092378Y0221089D01*
X0092437Y0221067D01*
X0092494Y0221040D01*
X0092549Y0221011D01*
X0092603Y0220978D01*
X0098440Y0217114D01*
X0098489Y0217079D01*
X0098536Y0217041D01*
X0098581Y0217001D01*
X0098623Y0216958D01*
X0098663Y0216912D01*
X0098700Y0216864D01*
X0098734Y0216814D01*
X0098764Y0216762D01*
X0098792Y0216708D01*
X0098816Y0216653D01*
X0098837Y0216596D01*
X0098854Y0216538D01*
X0098868Y0216479D01*
X0098878Y0216420D01*
X0098885Y0216360D01*
X0098888Y0216299D01*
X0098887Y0216239D01*
X0098883Y0216179D01*
X0098875Y0216119D01*
X0098863Y0216060D01*
X0098848Y0216001D01*
X0098830Y0215944D01*
X0098808Y0215887D01*
X0098782Y0215833D01*
X0098754Y0215779D01*
X0098722Y0215728D01*
D21*
G36*
X0098398Y0221218D02*
X0096522Y0218384D01*
X0094522Y0219708D01*
X0096398Y0222542D01*
X0098398Y0221218D01*
G37*
G36*
X0082723Y0197536D02*
X0080847Y0194702D01*
X0078847Y0196026D01*
X0080723Y0198860D01*
X0082723Y0197536D01*
G37*
G36*
X0220044Y0174504D02*
X0219997Y0171105D01*
X0217598Y0171138D01*
X0217645Y0174537D01*
X0220044Y0174504D01*
G37*
G36*
X0219647Y0146107D02*
X0219600Y0142708D01*
X0217201Y0142741D01*
X0217248Y0146140D01*
X0219647Y0146107D01*
G37*
D22*
X0193622Y0103622D02*
X0187622Y0091622D01*
X0119622Y0091622D01*
X0113622Y0103622D01*
X0113622Y0224122D02*
X0113622Y0235622D01*
X0137622Y0235622D01*
X0137622Y0243122D01*
X0169622Y0243122D01*
X0169622Y0235622D01*
X0193622Y0235622D01*
X0193622Y0224122D01*
D23*
X0080383Y0158987D02*
X0080595Y0158299D01*
X0080594Y0158299D02*
X0080359Y0158223D01*
X0080125Y0158140D01*
X0079893Y0158052D01*
X0079664Y0157958D01*
X0079437Y0157858D01*
X0079213Y0157753D01*
X0078991Y0157643D01*
X0078772Y0157527D01*
X0078555Y0157405D01*
X0078342Y0157279D01*
X0078132Y0157147D01*
X0077925Y0157011D01*
X0077722Y0156869D01*
X0077522Y0156722D01*
X0077326Y0156571D01*
X0077134Y0156414D01*
X0076945Y0156253D01*
X0076761Y0156088D01*
X0076580Y0155918D01*
X0076404Y0155744D01*
X0076232Y0155565D01*
X0076065Y0155383D01*
X0075902Y0155196D01*
X0075743Y0155005D01*
X0075590Y0154811D01*
X0075441Y0154612D01*
X0075297Y0154411D01*
X0075158Y0154205D01*
X0075024Y0153997D01*
X0074895Y0153785D01*
X0074771Y0153570D01*
X0074653Y0153352D01*
X0074540Y0153132D01*
X0074433Y0152908D01*
X0074331Y0152683D01*
X0074234Y0152454D01*
X0074143Y0152224D01*
X0074058Y0151991D01*
X0073979Y0151756D01*
X0073905Y0151519D01*
X0073837Y0151281D01*
X0073775Y0151041D01*
X0073719Y0150800D01*
X0073668Y0150557D01*
X0073624Y0150313D01*
X0073586Y0150068D01*
X0073553Y0149822D01*
X0073527Y0149576D01*
X0073507Y0149329D01*
X0073492Y0149082D01*
X0073484Y0148834D01*
X0073482Y0148586D01*
X0073486Y0148338D01*
X0073496Y0148090D01*
X0073512Y0147843D01*
X0073534Y0147596D01*
X0073562Y0147350D01*
X0073596Y0147104D01*
X0073636Y0146860D01*
X0073682Y0146616D01*
X0073734Y0146374D01*
X0073792Y0146133D01*
X0073856Y0145893D01*
X0073926Y0145656D01*
X0074001Y0145419D01*
X0074082Y0145185D01*
X0074169Y0144953D01*
X0074262Y0144723D01*
X0074360Y0144495D01*
X0074463Y0144270D01*
X0074572Y0144048D01*
X0074687Y0143828D01*
X0074807Y0143611D01*
X0074932Y0143397D01*
X0075062Y0143186D01*
X0075198Y0142979D01*
X0075338Y0142774D01*
X0075483Y0142574D01*
X0075634Y0142376D01*
X0075069Y0141931D01*
X0075068Y0141931D01*
X0074907Y0142142D01*
X0074751Y0142357D01*
X0074601Y0142576D01*
X0074456Y0142798D01*
X0074316Y0143024D01*
X0074182Y0143253D01*
X0074054Y0143485D01*
X0073931Y0143721D01*
X0073814Y0143959D01*
X0073703Y0144201D01*
X0073598Y0144444D01*
X0073499Y0144691D01*
X0073405Y0144939D01*
X0073318Y0145190D01*
X0073238Y0145443D01*
X0073163Y0145698D01*
X0073095Y0145955D01*
X0073033Y0146213D01*
X0072977Y0146472D01*
X0072927Y0146733D01*
X0072885Y0146995D01*
X0072848Y0147258D01*
X0072818Y0147522D01*
X0072794Y0147787D01*
X0072777Y0148052D01*
X0072766Y0148317D01*
X0072762Y0148582D01*
X0072764Y0148848D01*
X0072773Y0149113D01*
X0072788Y0149379D01*
X0072810Y0149643D01*
X0072838Y0149907D01*
X0072873Y0150170D01*
X0072914Y0150433D01*
X0072962Y0150694D01*
X0073015Y0150954D01*
X0073076Y0151213D01*
X0073142Y0151470D01*
X0073215Y0151725D01*
X0073294Y0151979D01*
X0073379Y0152230D01*
X0073470Y0152480D01*
X0073568Y0152727D01*
X0073671Y0152971D01*
X0073780Y0153213D01*
X0073895Y0153452D01*
X0074016Y0153689D01*
X0074143Y0153922D01*
X0074276Y0154152D01*
X0074414Y0154379D01*
X0074557Y0154603D01*
X0074706Y0154822D01*
X0074860Y0155039D01*
X0075020Y0155251D01*
X0075184Y0155459D01*
X0075354Y0155663D01*
X0075529Y0155863D01*
X0075708Y0156059D01*
X0075892Y0156250D01*
X0076081Y0156437D01*
X0076275Y0156619D01*
X0076472Y0156796D01*
X0076674Y0156969D01*
X0076880Y0157136D01*
X0077091Y0157298D01*
X0077305Y0157456D01*
X0077523Y0157607D01*
X0077744Y0157754D01*
X0077969Y0157895D01*
X0078197Y0158030D01*
X0078429Y0158160D01*
X0078664Y0158284D01*
X0078902Y0158402D01*
X0079142Y0158515D01*
X0079385Y0158622D01*
X0079631Y0158722D01*
X0079879Y0158817D01*
X0080130Y0158905D01*
X0080382Y0158987D01*
X0080404Y0158916D01*
X0080153Y0158834D01*
X0079905Y0158746D01*
X0079658Y0158652D01*
X0079414Y0158552D01*
X0079173Y0158447D01*
X0078934Y0158335D01*
X0078698Y0158217D01*
X0078465Y0158094D01*
X0078235Y0157965D01*
X0078008Y0157831D01*
X0077784Y0157691D01*
X0077565Y0157545D01*
X0077348Y0157394D01*
X0077136Y0157238D01*
X0076927Y0157077D01*
X0076722Y0156911D01*
X0076522Y0156740D01*
X0076325Y0156564D01*
X0076133Y0156383D01*
X0075946Y0156198D01*
X0075763Y0156008D01*
X0075585Y0155813D01*
X0075411Y0155615D01*
X0075243Y0155412D01*
X0075079Y0155205D01*
X0074921Y0154994D01*
X0074768Y0154780D01*
X0074620Y0154561D01*
X0074477Y0154339D01*
X0074340Y0154114D01*
X0074209Y0153885D01*
X0074083Y0153654D01*
X0073963Y0153419D01*
X0073848Y0153181D01*
X0073740Y0152941D01*
X0073637Y0152698D01*
X0073540Y0152453D01*
X0073450Y0152205D01*
X0073365Y0151956D01*
X0073287Y0151704D01*
X0073214Y0151450D01*
X0073148Y0151195D01*
X0073089Y0150938D01*
X0073035Y0150680D01*
X0072988Y0150420D01*
X0072947Y0150160D01*
X0072913Y0149898D01*
X0072885Y0149636D01*
X0072863Y0149373D01*
X0072848Y0149110D01*
X0072839Y0148847D01*
X0072837Y0148583D01*
X0072841Y0148319D01*
X0072852Y0148056D01*
X0072869Y0147793D01*
X0072892Y0147530D01*
X0072922Y0147268D01*
X0072959Y0147007D01*
X0073001Y0146747D01*
X0073050Y0146487D01*
X0073106Y0146230D01*
X0073167Y0145973D01*
X0073235Y0145718D01*
X0073309Y0145465D01*
X0073390Y0145214D01*
X0073476Y0144965D01*
X0073568Y0144718D01*
X0073667Y0144473D01*
X0073771Y0144231D01*
X0073882Y0143992D01*
X0073998Y0143755D01*
X0074120Y0143521D01*
X0074247Y0143290D01*
X0074380Y0143063D01*
X0074519Y0142838D01*
X0074663Y0142618D01*
X0074812Y0142400D01*
X0074967Y0142187D01*
X0075127Y0141977D01*
X0075186Y0142024D01*
X0075027Y0142232D01*
X0074874Y0142444D01*
X0074725Y0142660D01*
X0074582Y0142879D01*
X0074444Y0143102D01*
X0074312Y0143328D01*
X0074185Y0143557D01*
X0074064Y0143789D01*
X0073949Y0144024D01*
X0073840Y0144262D01*
X0073736Y0144502D01*
X0073638Y0144745D01*
X0073546Y0144991D01*
X0073461Y0145238D01*
X0073381Y0145487D01*
X0073307Y0145739D01*
X0073240Y0145992D01*
X0073179Y0146246D01*
X0073124Y0146502D01*
X0073075Y0146760D01*
X0073033Y0147018D01*
X0072997Y0147277D01*
X0072967Y0147538D01*
X0072944Y0147798D01*
X0072927Y0148060D01*
X0072916Y0148321D01*
X0072912Y0148583D01*
X0072914Y0148845D01*
X0072923Y0149107D01*
X0072938Y0149368D01*
X0072959Y0149629D01*
X0072987Y0149890D01*
X0073021Y0150149D01*
X0073062Y0150408D01*
X0073109Y0150666D01*
X0073162Y0150922D01*
X0073221Y0151177D01*
X0073287Y0151430D01*
X0073359Y0151682D01*
X0073436Y0151932D01*
X0073520Y0152180D01*
X0073610Y0152426D01*
X0073706Y0152670D01*
X0073808Y0152911D01*
X0073916Y0153150D01*
X0074030Y0153386D01*
X0074149Y0153619D01*
X0074274Y0153849D01*
X0074405Y0154076D01*
X0074541Y0154300D01*
X0074682Y0154520D01*
X0074829Y0154737D01*
X0074981Y0154950D01*
X0075138Y0155159D01*
X0075301Y0155365D01*
X0075468Y0155566D01*
X0075640Y0155763D01*
X0075817Y0155956D01*
X0075999Y0156145D01*
X0076185Y0156329D01*
X0076376Y0156509D01*
X0076571Y0156683D01*
X0076770Y0156853D01*
X0076973Y0157018D01*
X0077181Y0157178D01*
X0077392Y0157333D01*
X0077606Y0157483D01*
X0077825Y0157627D01*
X0078047Y0157766D01*
X0078272Y0157900D01*
X0078500Y0158028D01*
X0078732Y0158150D01*
X0078966Y0158267D01*
X0079204Y0158378D01*
X0079443Y0158483D01*
X0079686Y0158582D01*
X0079930Y0158676D01*
X0080177Y0158763D01*
X0080426Y0158844D01*
X0080448Y0158772D01*
X0080201Y0158692D01*
X0079956Y0158605D01*
X0079713Y0158513D01*
X0079472Y0158414D01*
X0079234Y0158310D01*
X0078999Y0158200D01*
X0078766Y0158084D01*
X0078536Y0157962D01*
X0078309Y0157835D01*
X0078086Y0157702D01*
X0077865Y0157564D01*
X0077648Y0157421D01*
X0077435Y0157272D01*
X0077226Y0157118D01*
X0077020Y0156959D01*
X0076818Y0156796D01*
X0076620Y0156627D01*
X0076426Y0156453D01*
X0076237Y0156275D01*
X0076052Y0156092D01*
X0075872Y0155905D01*
X0075696Y0155713D01*
X0075525Y0155517D01*
X0075359Y0155317D01*
X0075198Y0155113D01*
X0075042Y0154905D01*
X0074891Y0154694D01*
X0074745Y0154478D01*
X0074604Y0154260D01*
X0074469Y0154038D01*
X0074339Y0153812D01*
X0074215Y0153584D01*
X0074097Y0153352D01*
X0073984Y0153118D01*
X0073877Y0152881D01*
X0073776Y0152641D01*
X0073681Y0152400D01*
X0073591Y0152155D01*
X0073508Y0151909D01*
X0073430Y0151661D01*
X0073359Y0151411D01*
X0073294Y0151159D01*
X0073235Y0150906D01*
X0073182Y0150651D01*
X0073136Y0150395D01*
X0073096Y0150139D01*
X0073062Y0149881D01*
X0073034Y0149622D01*
X0073013Y0149363D01*
X0072998Y0149103D01*
X0072989Y0148844D01*
X0072987Y0148584D01*
X0072991Y0148324D01*
X0073002Y0148064D01*
X0073018Y0147804D01*
X0073042Y0147545D01*
X0073071Y0147287D01*
X0073107Y0147029D01*
X0073149Y0146773D01*
X0073197Y0146517D01*
X0073252Y0146263D01*
X0073313Y0146010D01*
X0073380Y0145759D01*
X0073453Y0145510D01*
X0073532Y0145262D01*
X0073617Y0145016D01*
X0073708Y0144773D01*
X0073805Y0144531D01*
X0073908Y0144293D01*
X0074017Y0144057D01*
X0074131Y0143823D01*
X0074251Y0143592D01*
X0074377Y0143365D01*
X0074509Y0143140D01*
X0074645Y0142919D01*
X0074787Y0142702D01*
X0074935Y0142487D01*
X0075087Y0142277D01*
X0075245Y0142070D01*
X0075304Y0142116D01*
X0075147Y0142322D01*
X0074996Y0142531D01*
X0074849Y0142744D01*
X0074708Y0142960D01*
X0074573Y0143179D01*
X0074442Y0143402D01*
X0074317Y0143628D01*
X0074198Y0143857D01*
X0074084Y0144089D01*
X0073976Y0144323D01*
X0073874Y0144560D01*
X0073778Y0144800D01*
X0073687Y0145042D01*
X0073603Y0145286D01*
X0073524Y0145532D01*
X0073452Y0145779D01*
X0073385Y0146029D01*
X0073325Y0146280D01*
X0073271Y0146532D01*
X0073223Y0146786D01*
X0073181Y0147041D01*
X0073146Y0147297D01*
X0073116Y0147553D01*
X0073093Y0147810D01*
X0073077Y0148068D01*
X0073066Y0148326D01*
X0073062Y0148584D01*
X0073064Y0148842D01*
X0073073Y0149100D01*
X0073088Y0149358D01*
X0073109Y0149615D01*
X0073136Y0149872D01*
X0073170Y0150128D01*
X0073210Y0150383D01*
X0073256Y0150637D01*
X0073308Y0150890D01*
X0073367Y0151141D01*
X0073432Y0151391D01*
X0073502Y0151639D01*
X0073579Y0151886D01*
X0073662Y0152130D01*
X0073751Y0152373D01*
X0073845Y0152613D01*
X0073946Y0152851D01*
X0074052Y0153086D01*
X0074164Y0153319D01*
X0074282Y0153549D01*
X0074405Y0153776D01*
X0074534Y0153999D01*
X0074668Y0154220D01*
X0074807Y0154437D01*
X0074952Y0154651D01*
X0075102Y0154861D01*
X0075257Y0155067D01*
X0075417Y0155270D01*
X0075582Y0155469D01*
X0075752Y0155663D01*
X0075926Y0155853D01*
X0076106Y0156039D01*
X0076289Y0156221D01*
X0076477Y0156398D01*
X0076669Y0156570D01*
X0076866Y0156738D01*
X0077066Y0156901D01*
X0077270Y0157058D01*
X0077479Y0157211D01*
X0077690Y0157359D01*
X0077906Y0157501D01*
X0078125Y0157638D01*
X0078347Y0157770D01*
X0078572Y0157896D01*
X0078800Y0158017D01*
X0079031Y0158132D01*
X0079265Y0158241D01*
X0079501Y0158345D01*
X0079740Y0158443D01*
X0079982Y0158535D01*
X0080225Y0158621D01*
X0080470Y0158701D01*
X0080493Y0158629D01*
X0080249Y0158550D01*
X0080007Y0158464D01*
X0079768Y0158373D01*
X0079530Y0158276D01*
X0079296Y0158173D01*
X0079064Y0158064D01*
X0078834Y0157950D01*
X0078607Y0157830D01*
X0078384Y0157705D01*
X0078163Y0157574D01*
X0077946Y0157438D01*
X0077732Y0157297D01*
X0077522Y0157150D01*
X0077315Y0156998D01*
X0077113Y0156842D01*
X0076914Y0156680D01*
X0076719Y0156514D01*
X0076528Y0156343D01*
X0076341Y0156167D01*
X0076159Y0155987D01*
X0075981Y0155802D01*
X0075808Y0155613D01*
X0075639Y0155420D01*
X0075475Y0155223D01*
X0075317Y0155022D01*
X0075163Y0154817D01*
X0075014Y0154608D01*
X0074870Y0154396D01*
X0074731Y0154180D01*
X0074598Y0153961D01*
X0074470Y0153739D01*
X0074348Y0153514D01*
X0074231Y0153285D01*
X0074120Y0153054D01*
X0074014Y0152821D01*
X0073915Y0152585D01*
X0073821Y0152346D01*
X0073733Y0152106D01*
X0073650Y0151863D01*
X0073574Y0151618D01*
X0073504Y0151372D01*
X0073440Y0151123D01*
X0073382Y0150874D01*
X0073330Y0150623D01*
X0073284Y0150370D01*
X0073244Y0150117D01*
X0073211Y0149863D01*
X0073183Y0149608D01*
X0073162Y0149353D01*
X0073148Y0149097D01*
X0073139Y0148841D01*
X0073137Y0148584D01*
X0073141Y0148328D01*
X0073151Y0148072D01*
X0073168Y0147816D01*
X0073191Y0147561D01*
X0073220Y0147306D01*
X0073255Y0147052D01*
X0073297Y0146799D01*
X0073344Y0146547D01*
X0073398Y0146297D01*
X0073458Y0146047D01*
X0073524Y0145800D01*
X0073596Y0145554D01*
X0073674Y0145310D01*
X0073758Y0145067D01*
X0073848Y0144827D01*
X0073943Y0144590D01*
X0074045Y0144354D01*
X0074152Y0144121D01*
X0074265Y0143891D01*
X0074383Y0143664D01*
X0074507Y0143439D01*
X0074637Y0143218D01*
X0074772Y0143000D01*
X0074912Y0142785D01*
X0075057Y0142574D01*
X0075207Y0142367D01*
X0075363Y0142163D01*
X0075422Y0142209D01*
X0075267Y0142412D01*
X0075118Y0142618D01*
X0074974Y0142827D01*
X0074835Y0143041D01*
X0074701Y0143257D01*
X0074572Y0143477D01*
X0074449Y0143699D01*
X0074332Y0143925D01*
X0074220Y0144154D01*
X0074113Y0144385D01*
X0074013Y0144619D01*
X0073918Y0144855D01*
X0073828Y0145093D01*
X0073745Y0145333D01*
X0073668Y0145576D01*
X0073596Y0145820D01*
X0073531Y0146066D01*
X0073471Y0146314D01*
X0073418Y0146562D01*
X0073370Y0146812D01*
X0073329Y0147064D01*
X0073294Y0147316D01*
X0073265Y0147568D01*
X0073243Y0147822D01*
X0073226Y0148076D01*
X0073216Y0148330D01*
X0073212Y0148585D01*
X0073214Y0148839D01*
X0073223Y0149093D01*
X0073237Y0149348D01*
X0073258Y0149601D01*
X0073285Y0149854D01*
X0073318Y0150107D01*
X0073358Y0150358D01*
X0073403Y0150608D01*
X0073455Y0150858D01*
X0073513Y0151105D01*
X0073576Y0151352D01*
X0073646Y0151597D01*
X0073722Y0151840D01*
X0073803Y0152081D01*
X0073891Y0152320D01*
X0073984Y0152556D01*
X0074083Y0152791D01*
X0074188Y0153023D01*
X0074298Y0153252D01*
X0074414Y0153479D01*
X0074536Y0153702D01*
X0074663Y0153923D01*
X0074795Y0154140D01*
X0074932Y0154354D01*
X0075075Y0154565D01*
X0075223Y0154772D01*
X0075376Y0154976D01*
X0075534Y0155175D01*
X0075696Y0155371D01*
X0075864Y0155563D01*
X0076036Y0155750D01*
X0076212Y0155934D01*
X0076393Y0156113D01*
X0076578Y0156287D01*
X0076768Y0156457D01*
X0076961Y0156622D01*
X0077159Y0156783D01*
X0077360Y0156938D01*
X0077566Y0157089D01*
X0077774Y0157234D01*
X0077987Y0157375D01*
X0078202Y0157510D01*
X0078421Y0157640D01*
X0078643Y0157764D01*
X0078868Y0157883D01*
X0079096Y0157997D01*
X0079326Y0158104D01*
X0079560Y0158207D01*
X0079795Y0158303D01*
X0080033Y0158394D01*
X0080273Y0158479D01*
X0080515Y0158557D01*
X0080537Y0158486D01*
X0080297Y0158407D01*
X0080058Y0158323D01*
X0079822Y0158233D01*
X0079589Y0158137D01*
X0079357Y0158036D01*
X0079128Y0157929D01*
X0078902Y0157816D01*
X0078679Y0157698D01*
X0078458Y0157575D01*
X0078241Y0157446D01*
X0078027Y0157312D01*
X0077816Y0157172D01*
X0077609Y0157028D01*
X0077405Y0156878D01*
X0077205Y0156724D01*
X0077009Y0156565D01*
X0076817Y0156401D01*
X0076629Y0156232D01*
X0076445Y0156059D01*
X0076265Y0155881D01*
X0076090Y0155699D01*
X0075919Y0155513D01*
X0075753Y0155322D01*
X0075592Y0155128D01*
X0075435Y0154930D01*
X0075283Y0154728D01*
X0075137Y0154522D01*
X0074995Y0154313D01*
X0074858Y0154100D01*
X0074727Y0153885D01*
X0074601Y0153666D01*
X0074481Y0153444D01*
X0074365Y0153219D01*
X0074256Y0152991D01*
X0074152Y0152761D01*
X0074054Y0152528D01*
X0073961Y0152293D01*
X0073874Y0152056D01*
X0073793Y0151816D01*
X0073718Y0151575D01*
X0073649Y0151332D01*
X0073585Y0151088D01*
X0073528Y0150842D01*
X0073477Y0150594D01*
X0073432Y0150346D01*
X0073393Y0150096D01*
X0073360Y0149845D01*
X0073333Y0149594D01*
X0073312Y0149342D01*
X0073298Y0149090D01*
X0073289Y0148838D01*
X0073287Y0148585D01*
X0073291Y0148332D01*
X0073301Y0148080D01*
X0073318Y0147828D01*
X0073340Y0147576D01*
X0073369Y0147325D01*
X0073403Y0147075D01*
X0073444Y0146826D01*
X0073491Y0146577D01*
X0073544Y0146330D01*
X0073603Y0146085D01*
X0073668Y0145840D01*
X0073739Y0145598D01*
X0073816Y0145357D01*
X0073899Y0145119D01*
X0073987Y0144882D01*
X0074082Y0144648D01*
X0074182Y0144416D01*
X0074287Y0144186D01*
X0074399Y0143959D01*
X0074515Y0143735D01*
X0074638Y0143514D01*
X0074765Y0143296D01*
X0074898Y0143081D01*
X0075036Y0142869D01*
X0075179Y0142661D01*
X0075327Y0142457D01*
X0075481Y0142256D01*
X0075539Y0142302D01*
X0075387Y0142502D01*
X0075240Y0142705D01*
X0075098Y0142911D01*
X0074961Y0143121D01*
X0074829Y0143335D01*
X0074703Y0143551D01*
X0074581Y0143771D01*
X0074465Y0143993D01*
X0074355Y0144218D01*
X0074250Y0144446D01*
X0074151Y0144677D01*
X0074057Y0144909D01*
X0073969Y0145144D01*
X0073887Y0145381D01*
X0073811Y0145620D01*
X0073741Y0145861D01*
X0073676Y0146103D01*
X0073617Y0146347D01*
X0073565Y0146592D01*
X0073518Y0146839D01*
X0073478Y0147086D01*
X0073443Y0147335D01*
X0073415Y0147584D01*
X0073392Y0147834D01*
X0073376Y0148084D01*
X0073366Y0148335D01*
X0073362Y0148585D01*
X0073364Y0148836D01*
X0073373Y0149087D01*
X0073387Y0149337D01*
X0073408Y0149587D01*
X0073434Y0149837D01*
X0073467Y0150085D01*
X0073506Y0150333D01*
X0073551Y0150580D01*
X0073601Y0150825D01*
X0073658Y0151070D01*
X0073721Y0151313D01*
X0073790Y0151554D01*
X0073864Y0151793D01*
X0073945Y0152031D01*
X0074031Y0152266D01*
X0074123Y0152500D01*
X0074221Y0152731D01*
X0074324Y0152959D01*
X0074433Y0153185D01*
X0074547Y0153409D01*
X0074667Y0153629D01*
X0074792Y0153846D01*
X0074922Y0154061D01*
X0075058Y0154272D01*
X0075198Y0154479D01*
X0075344Y0154683D01*
X0075495Y0154884D01*
X0075650Y0155081D01*
X0075810Y0155274D01*
X0075975Y0155463D01*
X0076145Y0155648D01*
X0076319Y0155828D01*
X0076497Y0156005D01*
X0076680Y0156177D01*
X0076866Y0156344D01*
X0077057Y0156507D01*
X0077252Y0156665D01*
X0077450Y0156818D01*
X0077653Y0156967D01*
X0077858Y0157110D01*
X0078067Y0157248D01*
X0078280Y0157382D01*
X0078496Y0157510D01*
X0078714Y0157632D01*
X0078936Y0157749D01*
X0079161Y0157861D01*
X0079388Y0157968D01*
X0079618Y0158068D01*
X0079850Y0158163D01*
X0080084Y0158253D01*
X0080321Y0158336D01*
X0080559Y0158414D01*
X0080581Y0158342D01*
X0080344Y0158265D01*
X0080110Y0158182D01*
X0079877Y0158093D01*
X0079647Y0157999D01*
X0079419Y0157899D01*
X0079193Y0157794D01*
X0078970Y0157683D01*
X0078750Y0157566D01*
X0078533Y0157444D01*
X0078319Y0157317D01*
X0078108Y0157185D01*
X0077900Y0157048D01*
X0077696Y0156906D01*
X0077495Y0156758D01*
X0077298Y0156606D01*
X0077105Y0156449D01*
X0076916Y0156287D01*
X0076730Y0156121D01*
X0076549Y0155951D01*
X0076372Y0155775D01*
X0076199Y0155596D01*
X0076031Y0155413D01*
X0075867Y0155225D01*
X0075708Y0155033D01*
X0075554Y0154838D01*
X0075404Y0154639D01*
X0075260Y0154436D01*
X0075120Y0154230D01*
X0074986Y0154021D01*
X0074856Y0153808D01*
X0074732Y0153592D01*
X0074613Y0153373D01*
X0074500Y0153152D01*
X0074392Y0152928D01*
X0074289Y0152701D01*
X0074192Y0152471D01*
X0074101Y0152240D01*
X0074016Y0152006D01*
X0073936Y0151770D01*
X0073862Y0151532D01*
X0073793Y0151293D01*
X0073731Y0151052D01*
X0073675Y0150809D01*
X0073624Y0150566D01*
X0073580Y0150321D01*
X0073541Y0150075D01*
X0073509Y0149828D01*
X0073482Y0149580D01*
X0073462Y0149332D01*
X0073447Y0149084D01*
X0073439Y0148835D01*
X0073437Y0148586D01*
X0073441Y0148337D01*
X0073451Y0148088D01*
X0073467Y0147840D01*
X0073489Y0147592D01*
X0073517Y0147344D01*
X0073552Y0147098D01*
X0073592Y0146852D01*
X0073638Y0146607D01*
X0073690Y0146364D01*
X0073749Y0146122D01*
X0073813Y0145881D01*
X0073883Y0145642D01*
X0073958Y0145405D01*
X0074040Y0145170D01*
X0074127Y0144937D01*
X0074220Y0144706D01*
X0074319Y0144477D01*
X0074423Y0144251D01*
X0074532Y0144027D01*
X0074647Y0143807D01*
X0074768Y0143589D01*
X0074893Y0143374D01*
X0075024Y0143162D01*
X0075160Y0142953D01*
X0075301Y0142748D01*
X0075447Y0142547D01*
X0075598Y0142349D01*
X0092175Y0141931D02*
X0091610Y0142377D01*
X0091610Y0142376D02*
X0091760Y0142573D01*
X0091906Y0142774D01*
X0092046Y0142978D01*
X0092182Y0143186D01*
X0092312Y0143397D01*
X0092437Y0143611D01*
X0092557Y0143828D01*
X0092672Y0144048D01*
X0092781Y0144270D01*
X0092884Y0144495D01*
X0092982Y0144723D01*
X0093075Y0144953D01*
X0093162Y0145185D01*
X0093243Y0145419D01*
X0093318Y0145655D01*
X0093388Y0145893D01*
X0093452Y0146133D01*
X0093510Y0146374D01*
X0093562Y0146616D01*
X0093608Y0146860D01*
X0093648Y0147104D01*
X0093682Y0147350D01*
X0093710Y0147596D01*
X0093732Y0147843D01*
X0093748Y0148090D01*
X0093758Y0148338D01*
X0093762Y0148586D01*
X0093760Y0148834D01*
X0093752Y0149081D01*
X0093737Y0149329D01*
X0093717Y0149576D01*
X0093691Y0149822D01*
X0093658Y0150068D01*
X0093620Y0150313D01*
X0093576Y0150557D01*
X0093525Y0150800D01*
X0093469Y0151041D01*
X0093407Y0151281D01*
X0093339Y0151519D01*
X0093266Y0151756D01*
X0093186Y0151991D01*
X0093101Y0152224D01*
X0093010Y0152454D01*
X0092914Y0152682D01*
X0092811Y0152908D01*
X0092704Y0153132D01*
X0092591Y0153352D01*
X0092473Y0153570D01*
X0092349Y0153785D01*
X0092220Y0153997D01*
X0092086Y0154205D01*
X0091947Y0154411D01*
X0091803Y0154612D01*
X0091655Y0154810D01*
X0091501Y0155005D01*
X0091343Y0155196D01*
X0091180Y0155382D01*
X0091012Y0155565D01*
X0090840Y0155744D01*
X0090664Y0155918D01*
X0090483Y0156088D01*
X0090299Y0156253D01*
X0090110Y0156414D01*
X0089918Y0156571D01*
X0089722Y0156722D01*
X0089522Y0156869D01*
X0089319Y0157011D01*
X0089112Y0157147D01*
X0088902Y0157279D01*
X0088689Y0157405D01*
X0088473Y0157527D01*
X0088253Y0157642D01*
X0088032Y0157753D01*
X0087807Y0157858D01*
X0087580Y0157958D01*
X0087351Y0158052D01*
X0087119Y0158140D01*
X0086885Y0158223D01*
X0086650Y0158299D01*
X0086862Y0158987D01*
X0087115Y0158905D01*
X0087365Y0158817D01*
X0087613Y0158722D01*
X0087859Y0158621D01*
X0088102Y0158515D01*
X0088343Y0158402D01*
X0088580Y0158284D01*
X0088815Y0158160D01*
X0089047Y0158030D01*
X0089275Y0157895D01*
X0089500Y0157754D01*
X0089722Y0157607D01*
X0089939Y0157455D01*
X0090153Y0157298D01*
X0090364Y0157136D01*
X0090570Y0156969D01*
X0090772Y0156796D01*
X0090970Y0156619D01*
X0091163Y0156437D01*
X0091352Y0156250D01*
X0091536Y0156059D01*
X0091715Y0155863D01*
X0091890Y0155663D01*
X0092060Y0155459D01*
X0092224Y0155251D01*
X0092384Y0155038D01*
X0092538Y0154822D01*
X0092687Y0154602D01*
X0092830Y0154379D01*
X0092968Y0154152D01*
X0093101Y0153922D01*
X0093228Y0153689D01*
X0093349Y0153452D01*
X0093464Y0153213D01*
X0093573Y0152971D01*
X0093677Y0152726D01*
X0093774Y0152479D01*
X0093865Y0152230D01*
X0093950Y0151979D01*
X0094029Y0151725D01*
X0094102Y0151470D01*
X0094168Y0151213D01*
X0094229Y0150954D01*
X0094283Y0150694D01*
X0094330Y0150433D01*
X0094371Y0150170D01*
X0094406Y0149907D01*
X0094434Y0149643D01*
X0094456Y0149378D01*
X0094471Y0149113D01*
X0094480Y0148848D01*
X0094482Y0148582D01*
X0094478Y0148317D01*
X0094467Y0148051D01*
X0094450Y0147787D01*
X0094426Y0147522D01*
X0094396Y0147258D01*
X0094359Y0146995D01*
X0094316Y0146733D01*
X0094267Y0146472D01*
X0094211Y0146213D01*
X0094149Y0145954D01*
X0094081Y0145698D01*
X0094006Y0145443D01*
X0093925Y0145190D01*
X0093838Y0144939D01*
X0093745Y0144691D01*
X0093646Y0144444D01*
X0093541Y0144200D01*
X0093430Y0143959D01*
X0093313Y0143721D01*
X0093190Y0143485D01*
X0093062Y0143253D01*
X0092928Y0143024D01*
X0092788Y0142798D01*
X0092643Y0142575D01*
X0092492Y0142357D01*
X0092337Y0142142D01*
X0092176Y0141931D01*
X0092117Y0141977D01*
X0092277Y0142187D01*
X0092431Y0142400D01*
X0092581Y0142617D01*
X0092725Y0142838D01*
X0092864Y0143063D01*
X0092997Y0143290D01*
X0093124Y0143521D01*
X0093246Y0143755D01*
X0093362Y0143992D01*
X0093473Y0144231D01*
X0093577Y0144473D01*
X0093676Y0144718D01*
X0093768Y0144965D01*
X0093854Y0145214D01*
X0093935Y0145465D01*
X0094009Y0145718D01*
X0094077Y0145973D01*
X0094138Y0146229D01*
X0094194Y0146487D01*
X0094243Y0146746D01*
X0094285Y0147007D01*
X0094322Y0147268D01*
X0094352Y0147530D01*
X0094375Y0147792D01*
X0094392Y0148056D01*
X0094403Y0148319D01*
X0094407Y0148583D01*
X0094405Y0148846D01*
X0094396Y0149110D01*
X0094381Y0149373D01*
X0094359Y0149636D01*
X0094331Y0149898D01*
X0094297Y0150160D01*
X0094256Y0150420D01*
X0094209Y0150680D01*
X0094155Y0150938D01*
X0094096Y0151195D01*
X0094030Y0151450D01*
X0093957Y0151704D01*
X0093879Y0151955D01*
X0093794Y0152205D01*
X0093704Y0152453D01*
X0093607Y0152698D01*
X0093504Y0152941D01*
X0093396Y0153181D01*
X0093281Y0153419D01*
X0093161Y0153654D01*
X0093035Y0153885D01*
X0092904Y0154114D01*
X0092767Y0154339D01*
X0092624Y0154561D01*
X0092477Y0154779D01*
X0092323Y0154994D01*
X0092165Y0155205D01*
X0092001Y0155412D01*
X0091833Y0155615D01*
X0091660Y0155813D01*
X0091481Y0156008D01*
X0091298Y0156198D01*
X0091111Y0156383D01*
X0090919Y0156564D01*
X0090723Y0156740D01*
X0090522Y0156911D01*
X0090317Y0157077D01*
X0090109Y0157238D01*
X0089896Y0157394D01*
X0089680Y0157545D01*
X0089460Y0157691D01*
X0089236Y0157831D01*
X0089009Y0157965D01*
X0088779Y0158094D01*
X0088546Y0158217D01*
X0088310Y0158335D01*
X0088071Y0158446D01*
X0087830Y0158552D01*
X0087586Y0158652D01*
X0087339Y0158746D01*
X0087091Y0158834D01*
X0086840Y0158916D01*
X0086818Y0158844D01*
X0087067Y0158763D01*
X0087314Y0158676D01*
X0087558Y0158582D01*
X0087801Y0158483D01*
X0088041Y0158378D01*
X0088278Y0158267D01*
X0088512Y0158150D01*
X0088744Y0158028D01*
X0088972Y0157900D01*
X0089197Y0157766D01*
X0089419Y0157627D01*
X0089638Y0157483D01*
X0089852Y0157333D01*
X0090064Y0157178D01*
X0090271Y0157018D01*
X0090474Y0156853D01*
X0090673Y0156683D01*
X0090868Y0156508D01*
X0091059Y0156329D01*
X0091245Y0156145D01*
X0091427Y0155956D01*
X0091604Y0155763D01*
X0091776Y0155566D01*
X0091943Y0155364D01*
X0092106Y0155159D01*
X0092263Y0154950D01*
X0092415Y0154737D01*
X0092562Y0154520D01*
X0092703Y0154299D01*
X0092839Y0154076D01*
X0092970Y0153849D01*
X0093095Y0153619D01*
X0093214Y0153386D01*
X0093328Y0153150D01*
X0093436Y0152911D01*
X0093538Y0152670D01*
X0093634Y0152426D01*
X0093724Y0152180D01*
X0093808Y0151932D01*
X0093886Y0151682D01*
X0093957Y0151430D01*
X0094023Y0151177D01*
X0094082Y0150922D01*
X0094135Y0150665D01*
X0094182Y0150408D01*
X0094223Y0150149D01*
X0094257Y0149889D01*
X0094285Y0149629D01*
X0094306Y0149368D01*
X0094321Y0149107D01*
X0094330Y0148845D01*
X0094332Y0148583D01*
X0094328Y0148321D01*
X0094317Y0148060D01*
X0094300Y0147798D01*
X0094277Y0147537D01*
X0094247Y0147277D01*
X0094211Y0147018D01*
X0094169Y0146760D01*
X0094120Y0146502D01*
X0094065Y0146246D01*
X0094004Y0145992D01*
X0093937Y0145739D01*
X0093863Y0145487D01*
X0093783Y0145238D01*
X0093697Y0144990D01*
X0093606Y0144745D01*
X0093508Y0144502D01*
X0093404Y0144262D01*
X0093295Y0144024D01*
X0093179Y0143789D01*
X0093058Y0143557D01*
X0092932Y0143327D01*
X0092800Y0143101D01*
X0092662Y0142879D01*
X0092519Y0142659D01*
X0092370Y0142444D01*
X0092217Y0142232D01*
X0092058Y0142023D01*
X0091999Y0142070D01*
X0092157Y0142277D01*
X0092309Y0142487D01*
X0092457Y0142701D01*
X0092599Y0142919D01*
X0092735Y0143140D01*
X0092867Y0143365D01*
X0092992Y0143592D01*
X0093113Y0143823D01*
X0093227Y0144056D01*
X0093336Y0144293D01*
X0093439Y0144531D01*
X0093536Y0144772D01*
X0093627Y0145016D01*
X0093712Y0145262D01*
X0093791Y0145509D01*
X0093864Y0145759D01*
X0093931Y0146010D01*
X0093992Y0146263D01*
X0094047Y0146517D01*
X0094095Y0146773D01*
X0094137Y0147029D01*
X0094173Y0147287D01*
X0094202Y0147545D01*
X0094226Y0147804D01*
X0094242Y0148064D01*
X0094253Y0148323D01*
X0094257Y0148583D01*
X0094255Y0148843D01*
X0094246Y0149103D01*
X0094231Y0149363D01*
X0094210Y0149622D01*
X0094182Y0149881D01*
X0094148Y0150138D01*
X0094108Y0150395D01*
X0094062Y0150651D01*
X0094009Y0150906D01*
X0093950Y0151159D01*
X0093885Y0151411D01*
X0093814Y0151661D01*
X0093736Y0151909D01*
X0093653Y0152155D01*
X0093564Y0152399D01*
X0093468Y0152641D01*
X0093367Y0152881D01*
X0093260Y0153118D01*
X0093147Y0153352D01*
X0093029Y0153584D01*
X0092905Y0153812D01*
X0092775Y0154037D01*
X0092640Y0154260D01*
X0092499Y0154478D01*
X0092353Y0154694D01*
X0092202Y0154905D01*
X0092046Y0155113D01*
X0091885Y0155317D01*
X0091719Y0155517D01*
X0091548Y0155713D01*
X0091372Y0155905D01*
X0091192Y0156092D01*
X0091007Y0156275D01*
X0090818Y0156453D01*
X0090624Y0156627D01*
X0090426Y0156795D01*
X0090224Y0156959D01*
X0090019Y0157118D01*
X0089809Y0157272D01*
X0089596Y0157421D01*
X0089379Y0157564D01*
X0089158Y0157702D01*
X0088935Y0157835D01*
X0088708Y0157962D01*
X0088478Y0158084D01*
X0088245Y0158199D01*
X0088010Y0158310D01*
X0087772Y0158414D01*
X0087531Y0158513D01*
X0087288Y0158605D01*
X0087043Y0158692D01*
X0086796Y0158772D01*
X0086774Y0158701D01*
X0087019Y0158621D01*
X0087262Y0158535D01*
X0087504Y0158443D01*
X0087743Y0158345D01*
X0087979Y0158241D01*
X0088213Y0158132D01*
X0088444Y0158017D01*
X0088672Y0157896D01*
X0088898Y0157770D01*
X0089120Y0157638D01*
X0089338Y0157501D01*
X0089554Y0157359D01*
X0089765Y0157211D01*
X0089974Y0157058D01*
X0090178Y0156900D01*
X0090378Y0156738D01*
X0090575Y0156570D01*
X0090767Y0156398D01*
X0090955Y0156221D01*
X0091139Y0156039D01*
X0091318Y0155853D01*
X0091492Y0155663D01*
X0091662Y0155468D01*
X0091827Y0155270D01*
X0091987Y0155067D01*
X0092142Y0154861D01*
X0092292Y0154651D01*
X0092437Y0154437D01*
X0092576Y0154220D01*
X0092710Y0153999D01*
X0092839Y0153775D01*
X0092962Y0153549D01*
X0093080Y0153319D01*
X0093192Y0153086D01*
X0093298Y0152851D01*
X0093399Y0152613D01*
X0093493Y0152373D01*
X0093582Y0152130D01*
X0093665Y0151886D01*
X0093742Y0151639D01*
X0093812Y0151391D01*
X0093877Y0151141D01*
X0093936Y0150890D01*
X0093988Y0150637D01*
X0094034Y0150383D01*
X0094074Y0150128D01*
X0094108Y0149872D01*
X0094135Y0149615D01*
X0094156Y0149358D01*
X0094171Y0149100D01*
X0094180Y0148842D01*
X0094182Y0148584D01*
X0094178Y0148326D01*
X0094167Y0148068D01*
X0094151Y0147810D01*
X0094128Y0147553D01*
X0094098Y0147296D01*
X0094063Y0147041D01*
X0094021Y0146786D01*
X0093973Y0146532D01*
X0093919Y0146280D01*
X0093859Y0146029D01*
X0093792Y0145779D01*
X0093720Y0145531D01*
X0093641Y0145286D01*
X0093557Y0145042D01*
X0093466Y0144800D01*
X0093370Y0144560D01*
X0093267Y0144323D01*
X0093159Y0144089D01*
X0093046Y0143857D01*
X0092926Y0143628D01*
X0092802Y0143402D01*
X0092671Y0143179D01*
X0092535Y0142960D01*
X0092394Y0142743D01*
X0092248Y0142531D01*
X0092097Y0142322D01*
X0091940Y0142116D01*
X0091881Y0142163D01*
X0092037Y0142367D01*
X0092187Y0142574D01*
X0092332Y0142785D01*
X0092472Y0143000D01*
X0092607Y0143218D01*
X0092737Y0143439D01*
X0092860Y0143664D01*
X0092979Y0143891D01*
X0093092Y0144121D01*
X0093199Y0144354D01*
X0093300Y0144589D01*
X0093396Y0144827D01*
X0093486Y0145067D01*
X0093570Y0145309D01*
X0093648Y0145554D01*
X0093720Y0145800D01*
X0093786Y0146047D01*
X0093846Y0146297D01*
X0093900Y0146547D01*
X0093947Y0146799D01*
X0093989Y0147052D01*
X0094024Y0147306D01*
X0094053Y0147561D01*
X0094076Y0147816D01*
X0094093Y0148072D01*
X0094103Y0148328D01*
X0094107Y0148584D01*
X0094105Y0148840D01*
X0094096Y0149097D01*
X0094082Y0149353D01*
X0094061Y0149608D01*
X0094033Y0149863D01*
X0094000Y0150117D01*
X0093960Y0150370D01*
X0093914Y0150623D01*
X0093862Y0150874D01*
X0093804Y0151123D01*
X0093740Y0151371D01*
X0093670Y0151618D01*
X0093594Y0151863D01*
X0093511Y0152105D01*
X0093423Y0152346D01*
X0093329Y0152585D01*
X0093230Y0152821D01*
X0093124Y0153054D01*
X0093013Y0153285D01*
X0092896Y0153513D01*
X0092774Y0153739D01*
X0092646Y0153961D01*
X0092513Y0154180D01*
X0092374Y0154396D01*
X0092230Y0154608D01*
X0092082Y0154817D01*
X0091928Y0155021D01*
X0091769Y0155223D01*
X0091605Y0155420D01*
X0091436Y0155613D01*
X0091263Y0155802D01*
X0091085Y0155986D01*
X0090903Y0156167D01*
X0090716Y0156342D01*
X0090526Y0156514D01*
X0090331Y0156680D01*
X0090132Y0156842D01*
X0089929Y0156998D01*
X0089722Y0157150D01*
X0089512Y0157296D01*
X0089298Y0157438D01*
X0089081Y0157574D01*
X0088860Y0157705D01*
X0088637Y0157830D01*
X0088410Y0157950D01*
X0088181Y0158064D01*
X0087948Y0158173D01*
X0087714Y0158276D01*
X0087476Y0158373D01*
X0087237Y0158464D01*
X0086995Y0158550D01*
X0086751Y0158629D01*
X0086729Y0158557D01*
X0086971Y0158478D01*
X0087211Y0158394D01*
X0087449Y0158303D01*
X0087685Y0158207D01*
X0087918Y0158104D01*
X0088148Y0157997D01*
X0088376Y0157883D01*
X0088601Y0157764D01*
X0088823Y0157640D01*
X0089042Y0157510D01*
X0089257Y0157375D01*
X0089470Y0157234D01*
X0089679Y0157089D01*
X0089884Y0156938D01*
X0090085Y0156783D01*
X0090283Y0156622D01*
X0090476Y0156457D01*
X0090666Y0156287D01*
X0090851Y0156113D01*
X0091032Y0155934D01*
X0091208Y0155750D01*
X0091380Y0155563D01*
X0091548Y0155371D01*
X0091710Y0155175D01*
X0091868Y0154976D01*
X0092021Y0154772D01*
X0092169Y0154565D01*
X0092312Y0154354D01*
X0092449Y0154140D01*
X0092581Y0153923D01*
X0092708Y0153702D01*
X0092830Y0153478D01*
X0092946Y0153252D01*
X0093056Y0153023D01*
X0093161Y0152791D01*
X0093260Y0152556D01*
X0093353Y0152319D01*
X0093441Y0152080D01*
X0093522Y0151839D01*
X0093598Y0151596D01*
X0093668Y0151352D01*
X0093731Y0151105D01*
X0093789Y0150857D01*
X0093841Y0150608D01*
X0093886Y0150358D01*
X0093926Y0150106D01*
X0093959Y0149854D01*
X0093986Y0149601D01*
X0094007Y0149347D01*
X0094021Y0149093D01*
X0094030Y0148839D01*
X0094032Y0148584D01*
X0094028Y0148330D01*
X0094018Y0148076D01*
X0094001Y0147822D01*
X0093979Y0147568D01*
X0093950Y0147315D01*
X0093915Y0147063D01*
X0093873Y0146812D01*
X0093826Y0146562D01*
X0093773Y0146313D01*
X0093713Y0146066D01*
X0093648Y0145820D01*
X0093576Y0145576D01*
X0093499Y0145333D01*
X0093416Y0145093D01*
X0093326Y0144854D01*
X0093231Y0144618D01*
X0093131Y0144385D01*
X0093024Y0144154D01*
X0092912Y0143925D01*
X0092795Y0143699D01*
X0092671Y0143477D01*
X0092543Y0143257D01*
X0092409Y0143040D01*
X0092270Y0142827D01*
X0092126Y0142618D01*
X0091977Y0142412D01*
X0091822Y0142209D01*
X0091763Y0142256D01*
X0091916Y0142456D01*
X0092065Y0142661D01*
X0092208Y0142869D01*
X0092346Y0143081D01*
X0092479Y0143296D01*
X0092606Y0143514D01*
X0092729Y0143735D01*
X0092845Y0143959D01*
X0092957Y0144186D01*
X0093062Y0144415D01*
X0093162Y0144647D01*
X0093256Y0144882D01*
X0093345Y0145118D01*
X0093428Y0145357D01*
X0093505Y0145598D01*
X0093576Y0145840D01*
X0093641Y0146084D01*
X0093700Y0146330D01*
X0093753Y0146577D01*
X0093800Y0146825D01*
X0093841Y0147075D01*
X0093875Y0147325D01*
X0093904Y0147576D01*
X0093926Y0147828D01*
X0093943Y0148080D01*
X0093953Y0148332D01*
X0093957Y0148585D01*
X0093955Y0148837D01*
X0093946Y0149090D01*
X0093932Y0149342D01*
X0093911Y0149594D01*
X0093884Y0149845D01*
X0093851Y0150096D01*
X0093812Y0150345D01*
X0093767Y0150594D01*
X0093716Y0150841D01*
X0093659Y0151087D01*
X0093595Y0151332D01*
X0093526Y0151575D01*
X0093451Y0151816D01*
X0093370Y0152056D01*
X0093283Y0152293D01*
X0093191Y0152528D01*
X0093092Y0152761D01*
X0092988Y0152991D01*
X0092879Y0153219D01*
X0092763Y0153443D01*
X0092643Y0153665D01*
X0092517Y0153884D01*
X0092386Y0154100D01*
X0092249Y0154313D01*
X0092107Y0154522D01*
X0091961Y0154728D01*
X0091809Y0154930D01*
X0091652Y0155128D01*
X0091491Y0155322D01*
X0091325Y0155513D01*
X0091154Y0155699D01*
X0090979Y0155881D01*
X0090799Y0156059D01*
X0090615Y0156232D01*
X0090427Y0156400D01*
X0090235Y0156564D01*
X0090039Y0156724D01*
X0089839Y0156878D01*
X0089635Y0157028D01*
X0089428Y0157172D01*
X0089217Y0157312D01*
X0089003Y0157446D01*
X0088786Y0157575D01*
X0088565Y0157698D01*
X0088342Y0157816D01*
X0088116Y0157929D01*
X0087887Y0158036D01*
X0087656Y0158137D01*
X0087422Y0158233D01*
X0087186Y0158323D01*
X0086947Y0158407D01*
X0086707Y0158486D01*
X0086685Y0158414D01*
X0086924Y0158336D01*
X0087160Y0158253D01*
X0087394Y0158163D01*
X0087627Y0158068D01*
X0087856Y0157968D01*
X0088083Y0157861D01*
X0088308Y0157749D01*
X0088530Y0157632D01*
X0088748Y0157510D01*
X0088964Y0157382D01*
X0089177Y0157248D01*
X0089386Y0157110D01*
X0089592Y0156967D01*
X0089794Y0156818D01*
X0089992Y0156665D01*
X0090187Y0156507D01*
X0090378Y0156344D01*
X0090564Y0156176D01*
X0090747Y0156004D01*
X0090925Y0155828D01*
X0091099Y0155647D01*
X0091269Y0155463D01*
X0091434Y0155274D01*
X0091594Y0155081D01*
X0091750Y0154884D01*
X0091900Y0154683D01*
X0092046Y0154479D01*
X0092186Y0154272D01*
X0092322Y0154060D01*
X0092452Y0153846D01*
X0092577Y0153629D01*
X0092697Y0153408D01*
X0092811Y0153185D01*
X0092920Y0152959D01*
X0093023Y0152731D01*
X0093121Y0152500D01*
X0093213Y0152266D01*
X0093299Y0152031D01*
X0093380Y0151793D01*
X0093454Y0151554D01*
X0093523Y0151312D01*
X0093586Y0151070D01*
X0093643Y0150825D01*
X0093693Y0150580D01*
X0093738Y0150333D01*
X0093777Y0150085D01*
X0093810Y0149836D01*
X0093837Y0149587D01*
X0093857Y0149337D01*
X0093871Y0149087D01*
X0093880Y0148836D01*
X0093882Y0148585D01*
X0093878Y0148334D01*
X0093868Y0148084D01*
X0093852Y0147834D01*
X0093829Y0147584D01*
X0093801Y0147335D01*
X0093766Y0147086D01*
X0093726Y0146839D01*
X0093679Y0146592D01*
X0093627Y0146347D01*
X0093568Y0146103D01*
X0093503Y0145861D01*
X0093433Y0145620D01*
X0093357Y0145381D01*
X0093275Y0145144D01*
X0093187Y0144909D01*
X0093093Y0144676D01*
X0092994Y0144446D01*
X0092889Y0144218D01*
X0092778Y0143993D01*
X0092663Y0143771D01*
X0092541Y0143551D01*
X0092415Y0143335D01*
X0092283Y0143121D01*
X0092146Y0142911D01*
X0092004Y0142705D01*
X0091856Y0142501D01*
X0091704Y0142302D01*
X0091645Y0142348D01*
X0091796Y0142546D01*
X0091943Y0142748D01*
X0092084Y0142953D01*
X0092220Y0143162D01*
X0092351Y0143373D01*
X0092476Y0143588D01*
X0092597Y0143806D01*
X0092712Y0144027D01*
X0092821Y0144251D01*
X0092925Y0144477D01*
X0093024Y0144705D01*
X0093117Y0144936D01*
X0093204Y0145170D01*
X0093286Y0145405D01*
X0093361Y0145642D01*
X0093431Y0145881D01*
X0093495Y0146122D01*
X0093553Y0146364D01*
X0093606Y0146607D01*
X0093652Y0146852D01*
X0093692Y0147097D01*
X0093727Y0147344D01*
X0093755Y0147591D01*
X0093777Y0147839D01*
X0093793Y0148088D01*
X0093803Y0148337D01*
X0093807Y0148586D01*
X0093805Y0148835D01*
X0093797Y0149083D01*
X0093782Y0149332D01*
X0093762Y0149580D01*
X0093735Y0149828D01*
X0093703Y0150074D01*
X0093664Y0150320D01*
X0093620Y0150565D01*
X0093569Y0150809D01*
X0093513Y0151052D01*
X0093451Y0151293D01*
X0093382Y0151532D01*
X0093308Y0151770D01*
X0093228Y0152006D01*
X0093143Y0152240D01*
X0093052Y0152471D01*
X0092955Y0152700D01*
X0092852Y0152927D01*
X0092744Y0153152D01*
X0092631Y0153373D01*
X0092512Y0153592D01*
X0092388Y0153808D01*
X0092258Y0154021D01*
X0092124Y0154230D01*
X0091984Y0154436D01*
X0091840Y0154639D01*
X0091690Y0154838D01*
X0091536Y0155033D01*
X0091377Y0155225D01*
X0091213Y0155412D01*
X0091045Y0155596D01*
X0090872Y0155775D01*
X0090695Y0155950D01*
X0090514Y0156121D01*
X0090328Y0156287D01*
X0090139Y0156449D01*
X0089946Y0156606D01*
X0089749Y0156758D01*
X0089548Y0156905D01*
X0089344Y0157048D01*
X0089136Y0157185D01*
X0088925Y0157317D01*
X0088711Y0157444D01*
X0088494Y0157566D01*
X0088274Y0157683D01*
X0088051Y0157794D01*
X0087826Y0157899D01*
X0087597Y0157999D01*
X0087367Y0158093D01*
X0087134Y0158182D01*
X0086900Y0158265D01*
X0086663Y0158342D01*
D24*
G36*
X0252886Y0207310D02*
X0248931Y0204253D01*
X0246790Y0207022D01*
X0250745Y0210079D01*
X0252886Y0207310D01*
G37*
G36*
X0260798Y0213425D02*
X0256843Y0210368D01*
X0254702Y0213137D01*
X0258657Y0216194D01*
X0260798Y0213425D01*
G37*
G36*
X0268710Y0219541D02*
X0264755Y0216484D01*
X0262614Y0219253D01*
X0266569Y0222310D01*
X0268710Y0219541D01*
G37*
M02*
