G75*
%MOIN*%
%OFA0B0*%
%FSLAX25Y25*%
%IPPOS*%
%LPD*%
%AMOC8*
5,1,8,0,0,1.08239X$1,22.5*
%
%ADD10C,0.01600*%
%ADD11C,0.00000*%
D10*
X0001800Y0153622D02*
X0001846Y0157348D01*
X0001983Y0161072D01*
X0002211Y0164791D01*
X0002531Y0168503D01*
X0002942Y0172207D01*
X0003443Y0175899D01*
X0004035Y0179578D01*
X0004717Y0183241D01*
X0005489Y0186886D01*
X0006350Y0190512D01*
X0007300Y0194115D01*
X0008337Y0197694D01*
X0009463Y0201246D01*
X0010675Y0204769D01*
X0011973Y0208262D01*
X0013357Y0211722D01*
X0014825Y0215147D01*
X0016377Y0218534D01*
X0018011Y0221883D01*
X0019727Y0225190D01*
X0021524Y0228455D01*
X0023400Y0231674D01*
X0025355Y0234846D01*
X0027387Y0237970D01*
X0029495Y0241042D01*
X0031677Y0244062D01*
X0033934Y0247028D01*
X0036262Y0249937D01*
X0038661Y0252788D01*
X0041129Y0255579D01*
X0043665Y0258309D01*
X0046268Y0260976D01*
X0048935Y0263579D01*
X0051665Y0266115D01*
X0054456Y0268583D01*
X0057307Y0270982D01*
X0060216Y0273310D01*
X0063182Y0275567D01*
X0066202Y0277749D01*
X0069274Y0279857D01*
X0072398Y0281889D01*
X0075570Y0283844D01*
X0078789Y0285720D01*
X0082054Y0287517D01*
X0085361Y0289233D01*
X0088710Y0290867D01*
X0092097Y0292419D01*
X0095522Y0293887D01*
X0098982Y0295271D01*
X0102475Y0296569D01*
X0105998Y0297781D01*
X0109550Y0298907D01*
X0113129Y0299944D01*
X0116732Y0300894D01*
X0120358Y0301755D01*
X0124003Y0302527D01*
X0127666Y0303209D01*
X0131345Y0303801D01*
X0135037Y0304302D01*
X0138741Y0304713D01*
X0142453Y0305033D01*
X0146172Y0305261D01*
X0149896Y0305398D01*
X0153622Y0305444D01*
X0157348Y0305398D01*
X0161072Y0305261D01*
X0164791Y0305033D01*
X0168503Y0304713D01*
X0172207Y0304302D01*
X0175899Y0303801D01*
X0179578Y0303209D01*
X0183241Y0302527D01*
X0186886Y0301755D01*
X0190512Y0300894D01*
X0194115Y0299944D01*
X0197694Y0298907D01*
X0201246Y0297781D01*
X0204769Y0296569D01*
X0208262Y0295271D01*
X0211722Y0293887D01*
X0215147Y0292419D01*
X0218534Y0290867D01*
X0221883Y0289233D01*
X0225190Y0287517D01*
X0228455Y0285720D01*
X0231674Y0283844D01*
X0234846Y0281889D01*
X0237970Y0279857D01*
X0241042Y0277749D01*
X0244062Y0275567D01*
X0247028Y0273310D01*
X0249937Y0270982D01*
X0252788Y0268583D01*
X0255579Y0266115D01*
X0258309Y0263579D01*
X0260976Y0260976D01*
X0263579Y0258309D01*
X0266115Y0255579D01*
X0268583Y0252788D01*
X0270982Y0249937D01*
X0273310Y0247028D01*
X0275567Y0244062D01*
X0277749Y0241042D01*
X0279857Y0237970D01*
X0281889Y0234846D01*
X0283844Y0231674D01*
X0285720Y0228455D01*
X0287517Y0225190D01*
X0289233Y0221883D01*
X0290867Y0218534D01*
X0292419Y0215147D01*
X0293887Y0211722D01*
X0295271Y0208262D01*
X0296569Y0204769D01*
X0297781Y0201246D01*
X0298907Y0197694D01*
X0299944Y0194115D01*
X0300894Y0190512D01*
X0301755Y0186886D01*
X0302527Y0183241D01*
X0303209Y0179578D01*
X0303801Y0175899D01*
X0304302Y0172207D01*
X0304713Y0168503D01*
X0305033Y0164791D01*
X0305261Y0161072D01*
X0305398Y0157348D01*
X0305444Y0153622D01*
X0305398Y0149896D01*
X0305261Y0146172D01*
X0305033Y0142453D01*
X0304713Y0138741D01*
X0304302Y0135037D01*
X0303801Y0131345D01*
X0303209Y0127666D01*
X0302527Y0124003D01*
X0301755Y0120358D01*
X0300894Y0116732D01*
X0299944Y0113129D01*
X0298907Y0109550D01*
X0297781Y0105998D01*
X0296569Y0102475D01*
X0295271Y0098982D01*
X0293887Y0095522D01*
X0292419Y0092097D01*
X0290867Y0088710D01*
X0289233Y0085361D01*
X0287517Y0082054D01*
X0285720Y0078789D01*
X0283844Y0075570D01*
X0281889Y0072398D01*
X0279857Y0069274D01*
X0277749Y0066202D01*
X0275567Y0063182D01*
X0273310Y0060216D01*
X0270982Y0057307D01*
X0268583Y0054456D01*
X0266115Y0051665D01*
X0263579Y0048935D01*
X0260976Y0046268D01*
X0258309Y0043665D01*
X0255579Y0041129D01*
X0252788Y0038661D01*
X0249937Y0036262D01*
X0247028Y0033934D01*
X0244062Y0031677D01*
X0241042Y0029495D01*
X0237970Y0027387D01*
X0234846Y0025355D01*
X0231674Y0023400D01*
X0228455Y0021524D01*
X0225190Y0019727D01*
X0221883Y0018011D01*
X0218534Y0016377D01*
X0215147Y0014825D01*
X0211722Y0013357D01*
X0208262Y0011973D01*
X0204769Y0010675D01*
X0201246Y0009463D01*
X0197694Y0008337D01*
X0194115Y0007300D01*
X0190512Y0006350D01*
X0186886Y0005489D01*
X0183241Y0004717D01*
X0179578Y0004035D01*
X0175899Y0003443D01*
X0172207Y0002942D01*
X0168503Y0002531D01*
X0164791Y0002211D01*
X0161072Y0001983D01*
X0157348Y0001846D01*
X0153622Y0001800D01*
X0149896Y0001846D01*
X0146172Y0001983D01*
X0142453Y0002211D01*
X0138741Y0002531D01*
X0135037Y0002942D01*
X0131345Y0003443D01*
X0127666Y0004035D01*
X0124003Y0004717D01*
X0120358Y0005489D01*
X0116732Y0006350D01*
X0113129Y0007300D01*
X0109550Y0008337D01*
X0105998Y0009463D01*
X0102475Y0010675D01*
X0098982Y0011973D01*
X0095522Y0013357D01*
X0092097Y0014825D01*
X0088710Y0016377D01*
X0085361Y0018011D01*
X0082054Y0019727D01*
X0078789Y0021524D01*
X0075570Y0023400D01*
X0072398Y0025355D01*
X0069274Y0027387D01*
X0066202Y0029495D01*
X0063182Y0031677D01*
X0060216Y0033934D01*
X0057307Y0036262D01*
X0054456Y0038661D01*
X0051665Y0041129D01*
X0048935Y0043665D01*
X0046268Y0046268D01*
X0043665Y0048935D01*
X0041129Y0051665D01*
X0038661Y0054456D01*
X0036262Y0057307D01*
X0033934Y0060216D01*
X0031677Y0063182D01*
X0029495Y0066202D01*
X0027387Y0069274D01*
X0025355Y0072398D01*
X0023400Y0075570D01*
X0021524Y0078789D01*
X0019727Y0082054D01*
X0018011Y0085361D01*
X0016377Y0088710D01*
X0014825Y0092097D01*
X0013357Y0095522D01*
X0011973Y0098982D01*
X0010675Y0102475D01*
X0009463Y0105998D01*
X0008337Y0109550D01*
X0007300Y0113129D01*
X0006350Y0116732D01*
X0005489Y0120358D01*
X0004717Y0124003D01*
X0004035Y0127666D01*
X0003443Y0131345D01*
X0002942Y0135037D01*
X0002531Y0138741D01*
X0002211Y0142453D01*
X0001983Y0146172D01*
X0001846Y0149896D01*
X0001800Y0153622D01*
D11*
X0097122Y0028622D02*
X0097124Y0028783D01*
X0097130Y0028943D01*
X0097140Y0029104D01*
X0097154Y0029264D01*
X0097172Y0029424D01*
X0097193Y0029583D01*
X0097219Y0029742D01*
X0097249Y0029900D01*
X0097282Y0030057D01*
X0097320Y0030214D01*
X0097361Y0030369D01*
X0097406Y0030523D01*
X0097455Y0030676D01*
X0097508Y0030828D01*
X0097564Y0030979D01*
X0097625Y0031128D01*
X0097688Y0031276D01*
X0097756Y0031422D01*
X0097827Y0031566D01*
X0097901Y0031708D01*
X0097979Y0031849D01*
X0098061Y0031987D01*
X0098146Y0032124D01*
X0098234Y0032258D01*
X0098326Y0032390D01*
X0098421Y0032520D01*
X0098519Y0032648D01*
X0098620Y0032773D01*
X0098724Y0032895D01*
X0098831Y0033015D01*
X0098941Y0033132D01*
X0099054Y0033247D01*
X0099170Y0033358D01*
X0099289Y0033467D01*
X0099410Y0033572D01*
X0099534Y0033675D01*
X0099660Y0033775D01*
X0099788Y0033871D01*
X0099919Y0033964D01*
X0100053Y0034054D01*
X0100188Y0034141D01*
X0100326Y0034224D01*
X0100465Y0034304D01*
X0100607Y0034380D01*
X0100750Y0034453D01*
X0100895Y0034522D01*
X0101042Y0034588D01*
X0101190Y0034650D01*
X0101340Y0034708D01*
X0101491Y0034763D01*
X0101644Y0034814D01*
X0101798Y0034861D01*
X0101953Y0034904D01*
X0102109Y0034943D01*
X0102265Y0034979D01*
X0102423Y0035010D01*
X0102581Y0035038D01*
X0102740Y0035062D01*
X0102900Y0035082D01*
X0103060Y0035098D01*
X0103220Y0035110D01*
X0103381Y0035118D01*
X0103542Y0035122D01*
X0103702Y0035122D01*
X0103863Y0035118D01*
X0104024Y0035110D01*
X0104184Y0035098D01*
X0104344Y0035082D01*
X0104504Y0035062D01*
X0104663Y0035038D01*
X0104821Y0035010D01*
X0104979Y0034979D01*
X0105135Y0034943D01*
X0105291Y0034904D01*
X0105446Y0034861D01*
X0105600Y0034814D01*
X0105753Y0034763D01*
X0105904Y0034708D01*
X0106054Y0034650D01*
X0106202Y0034588D01*
X0106349Y0034522D01*
X0106494Y0034453D01*
X0106637Y0034380D01*
X0106779Y0034304D01*
X0106918Y0034224D01*
X0107056Y0034141D01*
X0107191Y0034054D01*
X0107325Y0033964D01*
X0107456Y0033871D01*
X0107584Y0033775D01*
X0107710Y0033675D01*
X0107834Y0033572D01*
X0107955Y0033467D01*
X0108074Y0033358D01*
X0108190Y0033247D01*
X0108303Y0033132D01*
X0108413Y0033015D01*
X0108520Y0032895D01*
X0108624Y0032773D01*
X0108725Y0032648D01*
X0108823Y0032520D01*
X0108918Y0032390D01*
X0109010Y0032258D01*
X0109098Y0032124D01*
X0109183Y0031987D01*
X0109265Y0031849D01*
X0109343Y0031708D01*
X0109417Y0031566D01*
X0109488Y0031422D01*
X0109556Y0031276D01*
X0109619Y0031128D01*
X0109680Y0030979D01*
X0109736Y0030828D01*
X0109789Y0030676D01*
X0109838Y0030523D01*
X0109883Y0030369D01*
X0109924Y0030214D01*
X0109962Y0030057D01*
X0109995Y0029900D01*
X0110025Y0029742D01*
X0110051Y0029583D01*
X0110072Y0029424D01*
X0110090Y0029264D01*
X0110104Y0029104D01*
X0110114Y0028943D01*
X0110120Y0028783D01*
X0110122Y0028622D01*
X0110120Y0028461D01*
X0110114Y0028301D01*
X0110104Y0028140D01*
X0110090Y0027980D01*
X0110072Y0027820D01*
X0110051Y0027661D01*
X0110025Y0027502D01*
X0109995Y0027344D01*
X0109962Y0027187D01*
X0109924Y0027030D01*
X0109883Y0026875D01*
X0109838Y0026721D01*
X0109789Y0026568D01*
X0109736Y0026416D01*
X0109680Y0026265D01*
X0109619Y0026116D01*
X0109556Y0025968D01*
X0109488Y0025822D01*
X0109417Y0025678D01*
X0109343Y0025536D01*
X0109265Y0025395D01*
X0109183Y0025257D01*
X0109098Y0025120D01*
X0109010Y0024986D01*
X0108918Y0024854D01*
X0108823Y0024724D01*
X0108725Y0024596D01*
X0108624Y0024471D01*
X0108520Y0024349D01*
X0108413Y0024229D01*
X0108303Y0024112D01*
X0108190Y0023997D01*
X0108074Y0023886D01*
X0107955Y0023777D01*
X0107834Y0023672D01*
X0107710Y0023569D01*
X0107584Y0023469D01*
X0107456Y0023373D01*
X0107325Y0023280D01*
X0107191Y0023190D01*
X0107056Y0023103D01*
X0106918Y0023020D01*
X0106779Y0022940D01*
X0106637Y0022864D01*
X0106494Y0022791D01*
X0106349Y0022722D01*
X0106202Y0022656D01*
X0106054Y0022594D01*
X0105904Y0022536D01*
X0105753Y0022481D01*
X0105600Y0022430D01*
X0105446Y0022383D01*
X0105291Y0022340D01*
X0105135Y0022301D01*
X0104979Y0022265D01*
X0104821Y0022234D01*
X0104663Y0022206D01*
X0104504Y0022182D01*
X0104344Y0022162D01*
X0104184Y0022146D01*
X0104024Y0022134D01*
X0103863Y0022126D01*
X0103702Y0022122D01*
X0103542Y0022122D01*
X0103381Y0022126D01*
X0103220Y0022134D01*
X0103060Y0022146D01*
X0102900Y0022162D01*
X0102740Y0022182D01*
X0102581Y0022206D01*
X0102423Y0022234D01*
X0102265Y0022265D01*
X0102109Y0022301D01*
X0101953Y0022340D01*
X0101798Y0022383D01*
X0101644Y0022430D01*
X0101491Y0022481D01*
X0101340Y0022536D01*
X0101190Y0022594D01*
X0101042Y0022656D01*
X0100895Y0022722D01*
X0100750Y0022791D01*
X0100607Y0022864D01*
X0100465Y0022940D01*
X0100326Y0023020D01*
X0100188Y0023103D01*
X0100053Y0023190D01*
X0099919Y0023280D01*
X0099788Y0023373D01*
X0099660Y0023469D01*
X0099534Y0023569D01*
X0099410Y0023672D01*
X0099289Y0023777D01*
X0099170Y0023886D01*
X0099054Y0023997D01*
X0098941Y0024112D01*
X0098831Y0024229D01*
X0098724Y0024349D01*
X0098620Y0024471D01*
X0098519Y0024596D01*
X0098421Y0024724D01*
X0098326Y0024854D01*
X0098234Y0024986D01*
X0098146Y0025120D01*
X0098061Y0025257D01*
X0097979Y0025395D01*
X0097901Y0025536D01*
X0097827Y0025678D01*
X0097756Y0025822D01*
X0097688Y0025968D01*
X0097625Y0026116D01*
X0097564Y0026265D01*
X0097508Y0026416D01*
X0097455Y0026568D01*
X0097406Y0026721D01*
X0097361Y0026875D01*
X0097320Y0027030D01*
X0097282Y0027187D01*
X0097249Y0027344D01*
X0097219Y0027502D01*
X0097193Y0027661D01*
X0097172Y0027820D01*
X0097154Y0027980D01*
X0097140Y0028140D01*
X0097130Y0028301D01*
X0097124Y0028461D01*
X0097122Y0028622D01*
X0038546Y0105773D02*
X0038548Y0105934D01*
X0038554Y0106094D01*
X0038564Y0106255D01*
X0038578Y0106415D01*
X0038596Y0106575D01*
X0038617Y0106734D01*
X0038643Y0106893D01*
X0038673Y0107051D01*
X0038706Y0107208D01*
X0038744Y0107365D01*
X0038785Y0107520D01*
X0038830Y0107674D01*
X0038879Y0107827D01*
X0038932Y0107979D01*
X0038988Y0108130D01*
X0039049Y0108279D01*
X0039112Y0108427D01*
X0039180Y0108573D01*
X0039251Y0108717D01*
X0039325Y0108859D01*
X0039403Y0109000D01*
X0039485Y0109138D01*
X0039570Y0109275D01*
X0039658Y0109409D01*
X0039750Y0109541D01*
X0039845Y0109671D01*
X0039943Y0109799D01*
X0040044Y0109924D01*
X0040148Y0110046D01*
X0040255Y0110166D01*
X0040365Y0110283D01*
X0040478Y0110398D01*
X0040594Y0110509D01*
X0040713Y0110618D01*
X0040834Y0110723D01*
X0040958Y0110826D01*
X0041084Y0110926D01*
X0041212Y0111022D01*
X0041343Y0111115D01*
X0041477Y0111205D01*
X0041612Y0111292D01*
X0041750Y0111375D01*
X0041889Y0111455D01*
X0042031Y0111531D01*
X0042174Y0111604D01*
X0042319Y0111673D01*
X0042466Y0111739D01*
X0042614Y0111801D01*
X0042764Y0111859D01*
X0042915Y0111914D01*
X0043068Y0111965D01*
X0043222Y0112012D01*
X0043377Y0112055D01*
X0043533Y0112094D01*
X0043689Y0112130D01*
X0043847Y0112161D01*
X0044005Y0112189D01*
X0044164Y0112213D01*
X0044324Y0112233D01*
X0044484Y0112249D01*
X0044644Y0112261D01*
X0044805Y0112269D01*
X0044966Y0112273D01*
X0045126Y0112273D01*
X0045287Y0112269D01*
X0045448Y0112261D01*
X0045608Y0112249D01*
X0045768Y0112233D01*
X0045928Y0112213D01*
X0046087Y0112189D01*
X0046245Y0112161D01*
X0046403Y0112130D01*
X0046559Y0112094D01*
X0046715Y0112055D01*
X0046870Y0112012D01*
X0047024Y0111965D01*
X0047177Y0111914D01*
X0047328Y0111859D01*
X0047478Y0111801D01*
X0047626Y0111739D01*
X0047773Y0111673D01*
X0047918Y0111604D01*
X0048061Y0111531D01*
X0048203Y0111455D01*
X0048342Y0111375D01*
X0048480Y0111292D01*
X0048615Y0111205D01*
X0048749Y0111115D01*
X0048880Y0111022D01*
X0049008Y0110926D01*
X0049134Y0110826D01*
X0049258Y0110723D01*
X0049379Y0110618D01*
X0049498Y0110509D01*
X0049614Y0110398D01*
X0049727Y0110283D01*
X0049837Y0110166D01*
X0049944Y0110046D01*
X0050048Y0109924D01*
X0050149Y0109799D01*
X0050247Y0109671D01*
X0050342Y0109541D01*
X0050434Y0109409D01*
X0050522Y0109275D01*
X0050607Y0109138D01*
X0050689Y0109000D01*
X0050767Y0108859D01*
X0050841Y0108717D01*
X0050912Y0108573D01*
X0050980Y0108427D01*
X0051043Y0108279D01*
X0051104Y0108130D01*
X0051160Y0107979D01*
X0051213Y0107827D01*
X0051262Y0107674D01*
X0051307Y0107520D01*
X0051348Y0107365D01*
X0051386Y0107208D01*
X0051419Y0107051D01*
X0051449Y0106893D01*
X0051475Y0106734D01*
X0051496Y0106575D01*
X0051514Y0106415D01*
X0051528Y0106255D01*
X0051538Y0106094D01*
X0051544Y0105934D01*
X0051546Y0105773D01*
X0051544Y0105612D01*
X0051538Y0105452D01*
X0051528Y0105291D01*
X0051514Y0105131D01*
X0051496Y0104971D01*
X0051475Y0104812D01*
X0051449Y0104653D01*
X0051419Y0104495D01*
X0051386Y0104338D01*
X0051348Y0104181D01*
X0051307Y0104026D01*
X0051262Y0103872D01*
X0051213Y0103719D01*
X0051160Y0103567D01*
X0051104Y0103416D01*
X0051043Y0103267D01*
X0050980Y0103119D01*
X0050912Y0102973D01*
X0050841Y0102829D01*
X0050767Y0102687D01*
X0050689Y0102546D01*
X0050607Y0102408D01*
X0050522Y0102271D01*
X0050434Y0102137D01*
X0050342Y0102005D01*
X0050247Y0101875D01*
X0050149Y0101747D01*
X0050048Y0101622D01*
X0049944Y0101500D01*
X0049837Y0101380D01*
X0049727Y0101263D01*
X0049614Y0101148D01*
X0049498Y0101037D01*
X0049379Y0100928D01*
X0049258Y0100823D01*
X0049134Y0100720D01*
X0049008Y0100620D01*
X0048880Y0100524D01*
X0048749Y0100431D01*
X0048615Y0100341D01*
X0048480Y0100254D01*
X0048342Y0100171D01*
X0048203Y0100091D01*
X0048061Y0100015D01*
X0047918Y0099942D01*
X0047773Y0099873D01*
X0047626Y0099807D01*
X0047478Y0099745D01*
X0047328Y0099687D01*
X0047177Y0099632D01*
X0047024Y0099581D01*
X0046870Y0099534D01*
X0046715Y0099491D01*
X0046559Y0099452D01*
X0046403Y0099416D01*
X0046245Y0099385D01*
X0046087Y0099357D01*
X0045928Y0099333D01*
X0045768Y0099313D01*
X0045608Y0099297D01*
X0045448Y0099285D01*
X0045287Y0099277D01*
X0045126Y0099273D01*
X0044966Y0099273D01*
X0044805Y0099277D01*
X0044644Y0099285D01*
X0044484Y0099297D01*
X0044324Y0099313D01*
X0044164Y0099333D01*
X0044005Y0099357D01*
X0043847Y0099385D01*
X0043689Y0099416D01*
X0043533Y0099452D01*
X0043377Y0099491D01*
X0043222Y0099534D01*
X0043068Y0099581D01*
X0042915Y0099632D01*
X0042764Y0099687D01*
X0042614Y0099745D01*
X0042466Y0099807D01*
X0042319Y0099873D01*
X0042174Y0099942D01*
X0042031Y0100015D01*
X0041889Y0100091D01*
X0041750Y0100171D01*
X0041612Y0100254D01*
X0041477Y0100341D01*
X0041343Y0100431D01*
X0041212Y0100524D01*
X0041084Y0100620D01*
X0040958Y0100720D01*
X0040834Y0100823D01*
X0040713Y0100928D01*
X0040594Y0101037D01*
X0040478Y0101148D01*
X0040365Y0101263D01*
X0040255Y0101380D01*
X0040148Y0101500D01*
X0040044Y0101622D01*
X0039943Y0101747D01*
X0039845Y0101875D01*
X0039750Y0102005D01*
X0039658Y0102137D01*
X0039570Y0102271D01*
X0039485Y0102408D01*
X0039403Y0102546D01*
X0039325Y0102687D01*
X0039251Y0102829D01*
X0039180Y0102973D01*
X0039112Y0103119D01*
X0039049Y0103267D01*
X0038988Y0103416D01*
X0038932Y0103567D01*
X0038879Y0103719D01*
X0038830Y0103872D01*
X0038785Y0104026D01*
X0038744Y0104181D01*
X0038706Y0104338D01*
X0038673Y0104495D01*
X0038643Y0104653D01*
X0038617Y0104812D01*
X0038596Y0104971D01*
X0038578Y0105131D01*
X0038564Y0105291D01*
X0038554Y0105452D01*
X0038548Y0105612D01*
X0038546Y0105773D01*
X0037709Y0207016D02*
X0037711Y0207177D01*
X0037717Y0207337D01*
X0037727Y0207498D01*
X0037741Y0207658D01*
X0037759Y0207818D01*
X0037780Y0207977D01*
X0037806Y0208136D01*
X0037836Y0208294D01*
X0037869Y0208451D01*
X0037907Y0208608D01*
X0037948Y0208763D01*
X0037993Y0208917D01*
X0038042Y0209070D01*
X0038095Y0209222D01*
X0038151Y0209373D01*
X0038212Y0209522D01*
X0038275Y0209670D01*
X0038343Y0209816D01*
X0038414Y0209960D01*
X0038488Y0210102D01*
X0038566Y0210243D01*
X0038648Y0210381D01*
X0038733Y0210518D01*
X0038821Y0210652D01*
X0038913Y0210784D01*
X0039008Y0210914D01*
X0039106Y0211042D01*
X0039207Y0211167D01*
X0039311Y0211289D01*
X0039418Y0211409D01*
X0039528Y0211526D01*
X0039641Y0211641D01*
X0039757Y0211752D01*
X0039876Y0211861D01*
X0039997Y0211966D01*
X0040121Y0212069D01*
X0040247Y0212169D01*
X0040375Y0212265D01*
X0040506Y0212358D01*
X0040640Y0212448D01*
X0040775Y0212535D01*
X0040913Y0212618D01*
X0041052Y0212698D01*
X0041194Y0212774D01*
X0041337Y0212847D01*
X0041482Y0212916D01*
X0041629Y0212982D01*
X0041777Y0213044D01*
X0041927Y0213102D01*
X0042078Y0213157D01*
X0042231Y0213208D01*
X0042385Y0213255D01*
X0042540Y0213298D01*
X0042696Y0213337D01*
X0042852Y0213373D01*
X0043010Y0213404D01*
X0043168Y0213432D01*
X0043327Y0213456D01*
X0043487Y0213476D01*
X0043647Y0213492D01*
X0043807Y0213504D01*
X0043968Y0213512D01*
X0044129Y0213516D01*
X0044289Y0213516D01*
X0044450Y0213512D01*
X0044611Y0213504D01*
X0044771Y0213492D01*
X0044931Y0213476D01*
X0045091Y0213456D01*
X0045250Y0213432D01*
X0045408Y0213404D01*
X0045566Y0213373D01*
X0045722Y0213337D01*
X0045878Y0213298D01*
X0046033Y0213255D01*
X0046187Y0213208D01*
X0046340Y0213157D01*
X0046491Y0213102D01*
X0046641Y0213044D01*
X0046789Y0212982D01*
X0046936Y0212916D01*
X0047081Y0212847D01*
X0047224Y0212774D01*
X0047366Y0212698D01*
X0047505Y0212618D01*
X0047643Y0212535D01*
X0047778Y0212448D01*
X0047912Y0212358D01*
X0048043Y0212265D01*
X0048171Y0212169D01*
X0048297Y0212069D01*
X0048421Y0211966D01*
X0048542Y0211861D01*
X0048661Y0211752D01*
X0048777Y0211641D01*
X0048890Y0211526D01*
X0049000Y0211409D01*
X0049107Y0211289D01*
X0049211Y0211167D01*
X0049312Y0211042D01*
X0049410Y0210914D01*
X0049505Y0210784D01*
X0049597Y0210652D01*
X0049685Y0210518D01*
X0049770Y0210381D01*
X0049852Y0210243D01*
X0049930Y0210102D01*
X0050004Y0209960D01*
X0050075Y0209816D01*
X0050143Y0209670D01*
X0050206Y0209522D01*
X0050267Y0209373D01*
X0050323Y0209222D01*
X0050376Y0209070D01*
X0050425Y0208917D01*
X0050470Y0208763D01*
X0050511Y0208608D01*
X0050549Y0208451D01*
X0050582Y0208294D01*
X0050612Y0208136D01*
X0050638Y0207977D01*
X0050659Y0207818D01*
X0050677Y0207658D01*
X0050691Y0207498D01*
X0050701Y0207337D01*
X0050707Y0207177D01*
X0050709Y0207016D01*
X0050707Y0206855D01*
X0050701Y0206695D01*
X0050691Y0206534D01*
X0050677Y0206374D01*
X0050659Y0206214D01*
X0050638Y0206055D01*
X0050612Y0205896D01*
X0050582Y0205738D01*
X0050549Y0205581D01*
X0050511Y0205424D01*
X0050470Y0205269D01*
X0050425Y0205115D01*
X0050376Y0204962D01*
X0050323Y0204810D01*
X0050267Y0204659D01*
X0050206Y0204510D01*
X0050143Y0204362D01*
X0050075Y0204216D01*
X0050004Y0204072D01*
X0049930Y0203930D01*
X0049852Y0203789D01*
X0049770Y0203651D01*
X0049685Y0203514D01*
X0049597Y0203380D01*
X0049505Y0203248D01*
X0049410Y0203118D01*
X0049312Y0202990D01*
X0049211Y0202865D01*
X0049107Y0202743D01*
X0049000Y0202623D01*
X0048890Y0202506D01*
X0048777Y0202391D01*
X0048661Y0202280D01*
X0048542Y0202171D01*
X0048421Y0202066D01*
X0048297Y0201963D01*
X0048171Y0201863D01*
X0048043Y0201767D01*
X0047912Y0201674D01*
X0047778Y0201584D01*
X0047643Y0201497D01*
X0047505Y0201414D01*
X0047366Y0201334D01*
X0047224Y0201258D01*
X0047081Y0201185D01*
X0046936Y0201116D01*
X0046789Y0201050D01*
X0046641Y0200988D01*
X0046491Y0200930D01*
X0046340Y0200875D01*
X0046187Y0200824D01*
X0046033Y0200777D01*
X0045878Y0200734D01*
X0045722Y0200695D01*
X0045566Y0200659D01*
X0045408Y0200628D01*
X0045250Y0200600D01*
X0045091Y0200576D01*
X0044931Y0200556D01*
X0044771Y0200540D01*
X0044611Y0200528D01*
X0044450Y0200520D01*
X0044289Y0200516D01*
X0044129Y0200516D01*
X0043968Y0200520D01*
X0043807Y0200528D01*
X0043647Y0200540D01*
X0043487Y0200556D01*
X0043327Y0200576D01*
X0043168Y0200600D01*
X0043010Y0200628D01*
X0042852Y0200659D01*
X0042696Y0200695D01*
X0042540Y0200734D01*
X0042385Y0200777D01*
X0042231Y0200824D01*
X0042078Y0200875D01*
X0041927Y0200930D01*
X0041777Y0200988D01*
X0041629Y0201050D01*
X0041482Y0201116D01*
X0041337Y0201185D01*
X0041194Y0201258D01*
X0041052Y0201334D01*
X0040913Y0201414D01*
X0040775Y0201497D01*
X0040640Y0201584D01*
X0040506Y0201674D01*
X0040375Y0201767D01*
X0040247Y0201863D01*
X0040121Y0201963D01*
X0039997Y0202066D01*
X0039876Y0202171D01*
X0039757Y0202280D01*
X0039641Y0202391D01*
X0039528Y0202506D01*
X0039418Y0202623D01*
X0039311Y0202743D01*
X0039207Y0202865D01*
X0039106Y0202990D01*
X0039008Y0203118D01*
X0038913Y0203248D01*
X0038821Y0203380D01*
X0038733Y0203514D01*
X0038648Y0203651D01*
X0038566Y0203789D01*
X0038488Y0203930D01*
X0038414Y0204072D01*
X0038343Y0204216D01*
X0038275Y0204362D01*
X0038212Y0204510D01*
X0038151Y0204659D01*
X0038095Y0204810D01*
X0038042Y0204962D01*
X0037993Y0205115D01*
X0037948Y0205269D01*
X0037907Y0205424D01*
X0037869Y0205581D01*
X0037836Y0205738D01*
X0037806Y0205896D01*
X0037780Y0206055D01*
X0037759Y0206214D01*
X0037741Y0206374D01*
X0037727Y0206534D01*
X0037717Y0206695D01*
X0037711Y0206855D01*
X0037709Y0207016D01*
X0102122Y0283622D02*
X0102124Y0283783D01*
X0102130Y0283943D01*
X0102140Y0284104D01*
X0102154Y0284264D01*
X0102172Y0284424D01*
X0102193Y0284583D01*
X0102219Y0284742D01*
X0102249Y0284900D01*
X0102282Y0285057D01*
X0102320Y0285214D01*
X0102361Y0285369D01*
X0102406Y0285523D01*
X0102455Y0285676D01*
X0102508Y0285828D01*
X0102564Y0285979D01*
X0102625Y0286128D01*
X0102688Y0286276D01*
X0102756Y0286422D01*
X0102827Y0286566D01*
X0102901Y0286708D01*
X0102979Y0286849D01*
X0103061Y0286987D01*
X0103146Y0287124D01*
X0103234Y0287258D01*
X0103326Y0287390D01*
X0103421Y0287520D01*
X0103519Y0287648D01*
X0103620Y0287773D01*
X0103724Y0287895D01*
X0103831Y0288015D01*
X0103941Y0288132D01*
X0104054Y0288247D01*
X0104170Y0288358D01*
X0104289Y0288467D01*
X0104410Y0288572D01*
X0104534Y0288675D01*
X0104660Y0288775D01*
X0104788Y0288871D01*
X0104919Y0288964D01*
X0105053Y0289054D01*
X0105188Y0289141D01*
X0105326Y0289224D01*
X0105465Y0289304D01*
X0105607Y0289380D01*
X0105750Y0289453D01*
X0105895Y0289522D01*
X0106042Y0289588D01*
X0106190Y0289650D01*
X0106340Y0289708D01*
X0106491Y0289763D01*
X0106644Y0289814D01*
X0106798Y0289861D01*
X0106953Y0289904D01*
X0107109Y0289943D01*
X0107265Y0289979D01*
X0107423Y0290010D01*
X0107581Y0290038D01*
X0107740Y0290062D01*
X0107900Y0290082D01*
X0108060Y0290098D01*
X0108220Y0290110D01*
X0108381Y0290118D01*
X0108542Y0290122D01*
X0108702Y0290122D01*
X0108863Y0290118D01*
X0109024Y0290110D01*
X0109184Y0290098D01*
X0109344Y0290082D01*
X0109504Y0290062D01*
X0109663Y0290038D01*
X0109821Y0290010D01*
X0109979Y0289979D01*
X0110135Y0289943D01*
X0110291Y0289904D01*
X0110446Y0289861D01*
X0110600Y0289814D01*
X0110753Y0289763D01*
X0110904Y0289708D01*
X0111054Y0289650D01*
X0111202Y0289588D01*
X0111349Y0289522D01*
X0111494Y0289453D01*
X0111637Y0289380D01*
X0111779Y0289304D01*
X0111918Y0289224D01*
X0112056Y0289141D01*
X0112191Y0289054D01*
X0112325Y0288964D01*
X0112456Y0288871D01*
X0112584Y0288775D01*
X0112710Y0288675D01*
X0112834Y0288572D01*
X0112955Y0288467D01*
X0113074Y0288358D01*
X0113190Y0288247D01*
X0113303Y0288132D01*
X0113413Y0288015D01*
X0113520Y0287895D01*
X0113624Y0287773D01*
X0113725Y0287648D01*
X0113823Y0287520D01*
X0113918Y0287390D01*
X0114010Y0287258D01*
X0114098Y0287124D01*
X0114183Y0286987D01*
X0114265Y0286849D01*
X0114343Y0286708D01*
X0114417Y0286566D01*
X0114488Y0286422D01*
X0114556Y0286276D01*
X0114619Y0286128D01*
X0114680Y0285979D01*
X0114736Y0285828D01*
X0114789Y0285676D01*
X0114838Y0285523D01*
X0114883Y0285369D01*
X0114924Y0285214D01*
X0114962Y0285057D01*
X0114995Y0284900D01*
X0115025Y0284742D01*
X0115051Y0284583D01*
X0115072Y0284424D01*
X0115090Y0284264D01*
X0115104Y0284104D01*
X0115114Y0283943D01*
X0115120Y0283783D01*
X0115122Y0283622D01*
X0115120Y0283461D01*
X0115114Y0283301D01*
X0115104Y0283140D01*
X0115090Y0282980D01*
X0115072Y0282820D01*
X0115051Y0282661D01*
X0115025Y0282502D01*
X0114995Y0282344D01*
X0114962Y0282187D01*
X0114924Y0282030D01*
X0114883Y0281875D01*
X0114838Y0281721D01*
X0114789Y0281568D01*
X0114736Y0281416D01*
X0114680Y0281265D01*
X0114619Y0281116D01*
X0114556Y0280968D01*
X0114488Y0280822D01*
X0114417Y0280678D01*
X0114343Y0280536D01*
X0114265Y0280395D01*
X0114183Y0280257D01*
X0114098Y0280120D01*
X0114010Y0279986D01*
X0113918Y0279854D01*
X0113823Y0279724D01*
X0113725Y0279596D01*
X0113624Y0279471D01*
X0113520Y0279349D01*
X0113413Y0279229D01*
X0113303Y0279112D01*
X0113190Y0278997D01*
X0113074Y0278886D01*
X0112955Y0278777D01*
X0112834Y0278672D01*
X0112710Y0278569D01*
X0112584Y0278469D01*
X0112456Y0278373D01*
X0112325Y0278280D01*
X0112191Y0278190D01*
X0112056Y0278103D01*
X0111918Y0278020D01*
X0111779Y0277940D01*
X0111637Y0277864D01*
X0111494Y0277791D01*
X0111349Y0277722D01*
X0111202Y0277656D01*
X0111054Y0277594D01*
X0110904Y0277536D01*
X0110753Y0277481D01*
X0110600Y0277430D01*
X0110446Y0277383D01*
X0110291Y0277340D01*
X0110135Y0277301D01*
X0109979Y0277265D01*
X0109821Y0277234D01*
X0109663Y0277206D01*
X0109504Y0277182D01*
X0109344Y0277162D01*
X0109184Y0277146D01*
X0109024Y0277134D01*
X0108863Y0277126D01*
X0108702Y0277122D01*
X0108542Y0277122D01*
X0108381Y0277126D01*
X0108220Y0277134D01*
X0108060Y0277146D01*
X0107900Y0277162D01*
X0107740Y0277182D01*
X0107581Y0277206D01*
X0107423Y0277234D01*
X0107265Y0277265D01*
X0107109Y0277301D01*
X0106953Y0277340D01*
X0106798Y0277383D01*
X0106644Y0277430D01*
X0106491Y0277481D01*
X0106340Y0277536D01*
X0106190Y0277594D01*
X0106042Y0277656D01*
X0105895Y0277722D01*
X0105750Y0277791D01*
X0105607Y0277864D01*
X0105465Y0277940D01*
X0105326Y0278020D01*
X0105188Y0278103D01*
X0105053Y0278190D01*
X0104919Y0278280D01*
X0104788Y0278373D01*
X0104660Y0278469D01*
X0104534Y0278569D01*
X0104410Y0278672D01*
X0104289Y0278777D01*
X0104170Y0278886D01*
X0104054Y0278997D01*
X0103941Y0279112D01*
X0103831Y0279229D01*
X0103724Y0279349D01*
X0103620Y0279471D01*
X0103519Y0279596D01*
X0103421Y0279724D01*
X0103326Y0279854D01*
X0103234Y0279986D01*
X0103146Y0280120D01*
X0103061Y0280257D01*
X0102979Y0280395D01*
X0102901Y0280536D01*
X0102827Y0280678D01*
X0102756Y0280822D01*
X0102688Y0280968D01*
X0102625Y0281116D01*
X0102564Y0281265D01*
X0102508Y0281416D01*
X0102455Y0281568D01*
X0102406Y0281721D01*
X0102361Y0281875D01*
X0102320Y0282030D01*
X0102282Y0282187D01*
X0102249Y0282344D01*
X0102219Y0282502D01*
X0102193Y0282661D01*
X0102172Y0282820D01*
X0102154Y0282980D01*
X0102140Y0283140D01*
X0102130Y0283301D01*
X0102124Y0283461D01*
X0102122Y0283622D01*
X0187122Y0283622D02*
X0187124Y0283783D01*
X0187130Y0283943D01*
X0187140Y0284104D01*
X0187154Y0284264D01*
X0187172Y0284424D01*
X0187193Y0284583D01*
X0187219Y0284742D01*
X0187249Y0284900D01*
X0187282Y0285057D01*
X0187320Y0285214D01*
X0187361Y0285369D01*
X0187406Y0285523D01*
X0187455Y0285676D01*
X0187508Y0285828D01*
X0187564Y0285979D01*
X0187625Y0286128D01*
X0187688Y0286276D01*
X0187756Y0286422D01*
X0187827Y0286566D01*
X0187901Y0286708D01*
X0187979Y0286849D01*
X0188061Y0286987D01*
X0188146Y0287124D01*
X0188234Y0287258D01*
X0188326Y0287390D01*
X0188421Y0287520D01*
X0188519Y0287648D01*
X0188620Y0287773D01*
X0188724Y0287895D01*
X0188831Y0288015D01*
X0188941Y0288132D01*
X0189054Y0288247D01*
X0189170Y0288358D01*
X0189289Y0288467D01*
X0189410Y0288572D01*
X0189534Y0288675D01*
X0189660Y0288775D01*
X0189788Y0288871D01*
X0189919Y0288964D01*
X0190053Y0289054D01*
X0190188Y0289141D01*
X0190326Y0289224D01*
X0190465Y0289304D01*
X0190607Y0289380D01*
X0190750Y0289453D01*
X0190895Y0289522D01*
X0191042Y0289588D01*
X0191190Y0289650D01*
X0191340Y0289708D01*
X0191491Y0289763D01*
X0191644Y0289814D01*
X0191798Y0289861D01*
X0191953Y0289904D01*
X0192109Y0289943D01*
X0192265Y0289979D01*
X0192423Y0290010D01*
X0192581Y0290038D01*
X0192740Y0290062D01*
X0192900Y0290082D01*
X0193060Y0290098D01*
X0193220Y0290110D01*
X0193381Y0290118D01*
X0193542Y0290122D01*
X0193702Y0290122D01*
X0193863Y0290118D01*
X0194024Y0290110D01*
X0194184Y0290098D01*
X0194344Y0290082D01*
X0194504Y0290062D01*
X0194663Y0290038D01*
X0194821Y0290010D01*
X0194979Y0289979D01*
X0195135Y0289943D01*
X0195291Y0289904D01*
X0195446Y0289861D01*
X0195600Y0289814D01*
X0195753Y0289763D01*
X0195904Y0289708D01*
X0196054Y0289650D01*
X0196202Y0289588D01*
X0196349Y0289522D01*
X0196494Y0289453D01*
X0196637Y0289380D01*
X0196779Y0289304D01*
X0196918Y0289224D01*
X0197056Y0289141D01*
X0197191Y0289054D01*
X0197325Y0288964D01*
X0197456Y0288871D01*
X0197584Y0288775D01*
X0197710Y0288675D01*
X0197834Y0288572D01*
X0197955Y0288467D01*
X0198074Y0288358D01*
X0198190Y0288247D01*
X0198303Y0288132D01*
X0198413Y0288015D01*
X0198520Y0287895D01*
X0198624Y0287773D01*
X0198725Y0287648D01*
X0198823Y0287520D01*
X0198918Y0287390D01*
X0199010Y0287258D01*
X0199098Y0287124D01*
X0199183Y0286987D01*
X0199265Y0286849D01*
X0199343Y0286708D01*
X0199417Y0286566D01*
X0199488Y0286422D01*
X0199556Y0286276D01*
X0199619Y0286128D01*
X0199680Y0285979D01*
X0199736Y0285828D01*
X0199789Y0285676D01*
X0199838Y0285523D01*
X0199883Y0285369D01*
X0199924Y0285214D01*
X0199962Y0285057D01*
X0199995Y0284900D01*
X0200025Y0284742D01*
X0200051Y0284583D01*
X0200072Y0284424D01*
X0200090Y0284264D01*
X0200104Y0284104D01*
X0200114Y0283943D01*
X0200120Y0283783D01*
X0200122Y0283622D01*
X0200120Y0283461D01*
X0200114Y0283301D01*
X0200104Y0283140D01*
X0200090Y0282980D01*
X0200072Y0282820D01*
X0200051Y0282661D01*
X0200025Y0282502D01*
X0199995Y0282344D01*
X0199962Y0282187D01*
X0199924Y0282030D01*
X0199883Y0281875D01*
X0199838Y0281721D01*
X0199789Y0281568D01*
X0199736Y0281416D01*
X0199680Y0281265D01*
X0199619Y0281116D01*
X0199556Y0280968D01*
X0199488Y0280822D01*
X0199417Y0280678D01*
X0199343Y0280536D01*
X0199265Y0280395D01*
X0199183Y0280257D01*
X0199098Y0280120D01*
X0199010Y0279986D01*
X0198918Y0279854D01*
X0198823Y0279724D01*
X0198725Y0279596D01*
X0198624Y0279471D01*
X0198520Y0279349D01*
X0198413Y0279229D01*
X0198303Y0279112D01*
X0198190Y0278997D01*
X0198074Y0278886D01*
X0197955Y0278777D01*
X0197834Y0278672D01*
X0197710Y0278569D01*
X0197584Y0278469D01*
X0197456Y0278373D01*
X0197325Y0278280D01*
X0197191Y0278190D01*
X0197056Y0278103D01*
X0196918Y0278020D01*
X0196779Y0277940D01*
X0196637Y0277864D01*
X0196494Y0277791D01*
X0196349Y0277722D01*
X0196202Y0277656D01*
X0196054Y0277594D01*
X0195904Y0277536D01*
X0195753Y0277481D01*
X0195600Y0277430D01*
X0195446Y0277383D01*
X0195291Y0277340D01*
X0195135Y0277301D01*
X0194979Y0277265D01*
X0194821Y0277234D01*
X0194663Y0277206D01*
X0194504Y0277182D01*
X0194344Y0277162D01*
X0194184Y0277146D01*
X0194024Y0277134D01*
X0193863Y0277126D01*
X0193702Y0277122D01*
X0193542Y0277122D01*
X0193381Y0277126D01*
X0193220Y0277134D01*
X0193060Y0277146D01*
X0192900Y0277162D01*
X0192740Y0277182D01*
X0192581Y0277206D01*
X0192423Y0277234D01*
X0192265Y0277265D01*
X0192109Y0277301D01*
X0191953Y0277340D01*
X0191798Y0277383D01*
X0191644Y0277430D01*
X0191491Y0277481D01*
X0191340Y0277536D01*
X0191190Y0277594D01*
X0191042Y0277656D01*
X0190895Y0277722D01*
X0190750Y0277791D01*
X0190607Y0277864D01*
X0190465Y0277940D01*
X0190326Y0278020D01*
X0190188Y0278103D01*
X0190053Y0278190D01*
X0189919Y0278280D01*
X0189788Y0278373D01*
X0189660Y0278469D01*
X0189534Y0278569D01*
X0189410Y0278672D01*
X0189289Y0278777D01*
X0189170Y0278886D01*
X0189054Y0278997D01*
X0188941Y0279112D01*
X0188831Y0279229D01*
X0188724Y0279349D01*
X0188620Y0279471D01*
X0188519Y0279596D01*
X0188421Y0279724D01*
X0188326Y0279854D01*
X0188234Y0279986D01*
X0188146Y0280120D01*
X0188061Y0280257D01*
X0187979Y0280395D01*
X0187901Y0280536D01*
X0187827Y0280678D01*
X0187756Y0280822D01*
X0187688Y0280968D01*
X0187625Y0281116D01*
X0187564Y0281265D01*
X0187508Y0281416D01*
X0187455Y0281568D01*
X0187406Y0281721D01*
X0187361Y0281875D01*
X0187320Y0282030D01*
X0187282Y0282187D01*
X0187249Y0282344D01*
X0187219Y0282502D01*
X0187193Y0282661D01*
X0187172Y0282820D01*
X0187154Y0282980D01*
X0187140Y0283140D01*
X0187130Y0283301D01*
X0187124Y0283461D01*
X0187122Y0283622D01*
X0220215Y0253436D02*
X0220217Y0253597D01*
X0220223Y0253757D01*
X0220233Y0253918D01*
X0220247Y0254078D01*
X0220265Y0254238D01*
X0220286Y0254397D01*
X0220312Y0254556D01*
X0220342Y0254714D01*
X0220375Y0254871D01*
X0220413Y0255028D01*
X0220454Y0255183D01*
X0220499Y0255337D01*
X0220548Y0255490D01*
X0220601Y0255642D01*
X0220657Y0255793D01*
X0220718Y0255942D01*
X0220781Y0256090D01*
X0220849Y0256236D01*
X0220920Y0256380D01*
X0220994Y0256522D01*
X0221072Y0256663D01*
X0221154Y0256801D01*
X0221239Y0256938D01*
X0221327Y0257072D01*
X0221419Y0257204D01*
X0221514Y0257334D01*
X0221612Y0257462D01*
X0221713Y0257587D01*
X0221817Y0257709D01*
X0221924Y0257829D01*
X0222034Y0257946D01*
X0222147Y0258061D01*
X0222263Y0258172D01*
X0222382Y0258281D01*
X0222503Y0258386D01*
X0222627Y0258489D01*
X0222753Y0258589D01*
X0222881Y0258685D01*
X0223012Y0258778D01*
X0223146Y0258868D01*
X0223281Y0258955D01*
X0223419Y0259038D01*
X0223558Y0259118D01*
X0223700Y0259194D01*
X0223843Y0259267D01*
X0223988Y0259336D01*
X0224135Y0259402D01*
X0224283Y0259464D01*
X0224433Y0259522D01*
X0224584Y0259577D01*
X0224737Y0259628D01*
X0224891Y0259675D01*
X0225046Y0259718D01*
X0225202Y0259757D01*
X0225358Y0259793D01*
X0225516Y0259824D01*
X0225674Y0259852D01*
X0225833Y0259876D01*
X0225993Y0259896D01*
X0226153Y0259912D01*
X0226313Y0259924D01*
X0226474Y0259932D01*
X0226635Y0259936D01*
X0226795Y0259936D01*
X0226956Y0259932D01*
X0227117Y0259924D01*
X0227277Y0259912D01*
X0227437Y0259896D01*
X0227597Y0259876D01*
X0227756Y0259852D01*
X0227914Y0259824D01*
X0228072Y0259793D01*
X0228228Y0259757D01*
X0228384Y0259718D01*
X0228539Y0259675D01*
X0228693Y0259628D01*
X0228846Y0259577D01*
X0228997Y0259522D01*
X0229147Y0259464D01*
X0229295Y0259402D01*
X0229442Y0259336D01*
X0229587Y0259267D01*
X0229730Y0259194D01*
X0229872Y0259118D01*
X0230011Y0259038D01*
X0230149Y0258955D01*
X0230284Y0258868D01*
X0230418Y0258778D01*
X0230549Y0258685D01*
X0230677Y0258589D01*
X0230803Y0258489D01*
X0230927Y0258386D01*
X0231048Y0258281D01*
X0231167Y0258172D01*
X0231283Y0258061D01*
X0231396Y0257946D01*
X0231506Y0257829D01*
X0231613Y0257709D01*
X0231717Y0257587D01*
X0231818Y0257462D01*
X0231916Y0257334D01*
X0232011Y0257204D01*
X0232103Y0257072D01*
X0232191Y0256938D01*
X0232276Y0256801D01*
X0232358Y0256663D01*
X0232436Y0256522D01*
X0232510Y0256380D01*
X0232581Y0256236D01*
X0232649Y0256090D01*
X0232712Y0255942D01*
X0232773Y0255793D01*
X0232829Y0255642D01*
X0232882Y0255490D01*
X0232931Y0255337D01*
X0232976Y0255183D01*
X0233017Y0255028D01*
X0233055Y0254871D01*
X0233088Y0254714D01*
X0233118Y0254556D01*
X0233144Y0254397D01*
X0233165Y0254238D01*
X0233183Y0254078D01*
X0233197Y0253918D01*
X0233207Y0253757D01*
X0233213Y0253597D01*
X0233215Y0253436D01*
X0233213Y0253275D01*
X0233207Y0253115D01*
X0233197Y0252954D01*
X0233183Y0252794D01*
X0233165Y0252634D01*
X0233144Y0252475D01*
X0233118Y0252316D01*
X0233088Y0252158D01*
X0233055Y0252001D01*
X0233017Y0251844D01*
X0232976Y0251689D01*
X0232931Y0251535D01*
X0232882Y0251382D01*
X0232829Y0251230D01*
X0232773Y0251079D01*
X0232712Y0250930D01*
X0232649Y0250782D01*
X0232581Y0250636D01*
X0232510Y0250492D01*
X0232436Y0250350D01*
X0232358Y0250209D01*
X0232276Y0250071D01*
X0232191Y0249934D01*
X0232103Y0249800D01*
X0232011Y0249668D01*
X0231916Y0249538D01*
X0231818Y0249410D01*
X0231717Y0249285D01*
X0231613Y0249163D01*
X0231506Y0249043D01*
X0231396Y0248926D01*
X0231283Y0248811D01*
X0231167Y0248700D01*
X0231048Y0248591D01*
X0230927Y0248486D01*
X0230803Y0248383D01*
X0230677Y0248283D01*
X0230549Y0248187D01*
X0230418Y0248094D01*
X0230284Y0248004D01*
X0230149Y0247917D01*
X0230011Y0247834D01*
X0229872Y0247754D01*
X0229730Y0247678D01*
X0229587Y0247605D01*
X0229442Y0247536D01*
X0229295Y0247470D01*
X0229147Y0247408D01*
X0228997Y0247350D01*
X0228846Y0247295D01*
X0228693Y0247244D01*
X0228539Y0247197D01*
X0228384Y0247154D01*
X0228228Y0247115D01*
X0228072Y0247079D01*
X0227914Y0247048D01*
X0227756Y0247020D01*
X0227597Y0246996D01*
X0227437Y0246976D01*
X0227277Y0246960D01*
X0227117Y0246948D01*
X0226956Y0246940D01*
X0226795Y0246936D01*
X0226635Y0246936D01*
X0226474Y0246940D01*
X0226313Y0246948D01*
X0226153Y0246960D01*
X0225993Y0246976D01*
X0225833Y0246996D01*
X0225674Y0247020D01*
X0225516Y0247048D01*
X0225358Y0247079D01*
X0225202Y0247115D01*
X0225046Y0247154D01*
X0224891Y0247197D01*
X0224737Y0247244D01*
X0224584Y0247295D01*
X0224433Y0247350D01*
X0224283Y0247408D01*
X0224135Y0247470D01*
X0223988Y0247536D01*
X0223843Y0247605D01*
X0223700Y0247678D01*
X0223558Y0247754D01*
X0223419Y0247834D01*
X0223281Y0247917D01*
X0223146Y0248004D01*
X0223012Y0248094D01*
X0222881Y0248187D01*
X0222753Y0248283D01*
X0222627Y0248383D01*
X0222503Y0248486D01*
X0222382Y0248591D01*
X0222263Y0248700D01*
X0222147Y0248811D01*
X0222034Y0248926D01*
X0221924Y0249043D01*
X0221817Y0249163D01*
X0221713Y0249285D01*
X0221612Y0249410D01*
X0221514Y0249538D01*
X0221419Y0249668D01*
X0221327Y0249800D01*
X0221239Y0249934D01*
X0221154Y0250071D01*
X0221072Y0250209D01*
X0220994Y0250350D01*
X0220920Y0250492D01*
X0220849Y0250636D01*
X0220781Y0250782D01*
X0220718Y0250930D01*
X0220657Y0251079D01*
X0220601Y0251230D01*
X0220548Y0251382D01*
X0220499Y0251535D01*
X0220454Y0251689D01*
X0220413Y0251844D01*
X0220375Y0252001D01*
X0220342Y0252158D01*
X0220312Y0252316D01*
X0220286Y0252475D01*
X0220265Y0252634D01*
X0220247Y0252794D01*
X0220233Y0252954D01*
X0220223Y0253115D01*
X0220217Y0253275D01*
X0220215Y0253436D01*
X0277122Y0193622D02*
X0277124Y0193783D01*
X0277130Y0193943D01*
X0277140Y0194104D01*
X0277154Y0194264D01*
X0277172Y0194424D01*
X0277193Y0194583D01*
X0277219Y0194742D01*
X0277249Y0194900D01*
X0277282Y0195057D01*
X0277320Y0195214D01*
X0277361Y0195369D01*
X0277406Y0195523D01*
X0277455Y0195676D01*
X0277508Y0195828D01*
X0277564Y0195979D01*
X0277625Y0196128D01*
X0277688Y0196276D01*
X0277756Y0196422D01*
X0277827Y0196566D01*
X0277901Y0196708D01*
X0277979Y0196849D01*
X0278061Y0196987D01*
X0278146Y0197124D01*
X0278234Y0197258D01*
X0278326Y0197390D01*
X0278421Y0197520D01*
X0278519Y0197648D01*
X0278620Y0197773D01*
X0278724Y0197895D01*
X0278831Y0198015D01*
X0278941Y0198132D01*
X0279054Y0198247D01*
X0279170Y0198358D01*
X0279289Y0198467D01*
X0279410Y0198572D01*
X0279534Y0198675D01*
X0279660Y0198775D01*
X0279788Y0198871D01*
X0279919Y0198964D01*
X0280053Y0199054D01*
X0280188Y0199141D01*
X0280326Y0199224D01*
X0280465Y0199304D01*
X0280607Y0199380D01*
X0280750Y0199453D01*
X0280895Y0199522D01*
X0281042Y0199588D01*
X0281190Y0199650D01*
X0281340Y0199708D01*
X0281491Y0199763D01*
X0281644Y0199814D01*
X0281798Y0199861D01*
X0281953Y0199904D01*
X0282109Y0199943D01*
X0282265Y0199979D01*
X0282423Y0200010D01*
X0282581Y0200038D01*
X0282740Y0200062D01*
X0282900Y0200082D01*
X0283060Y0200098D01*
X0283220Y0200110D01*
X0283381Y0200118D01*
X0283542Y0200122D01*
X0283702Y0200122D01*
X0283863Y0200118D01*
X0284024Y0200110D01*
X0284184Y0200098D01*
X0284344Y0200082D01*
X0284504Y0200062D01*
X0284663Y0200038D01*
X0284821Y0200010D01*
X0284979Y0199979D01*
X0285135Y0199943D01*
X0285291Y0199904D01*
X0285446Y0199861D01*
X0285600Y0199814D01*
X0285753Y0199763D01*
X0285904Y0199708D01*
X0286054Y0199650D01*
X0286202Y0199588D01*
X0286349Y0199522D01*
X0286494Y0199453D01*
X0286637Y0199380D01*
X0286779Y0199304D01*
X0286918Y0199224D01*
X0287056Y0199141D01*
X0287191Y0199054D01*
X0287325Y0198964D01*
X0287456Y0198871D01*
X0287584Y0198775D01*
X0287710Y0198675D01*
X0287834Y0198572D01*
X0287955Y0198467D01*
X0288074Y0198358D01*
X0288190Y0198247D01*
X0288303Y0198132D01*
X0288413Y0198015D01*
X0288520Y0197895D01*
X0288624Y0197773D01*
X0288725Y0197648D01*
X0288823Y0197520D01*
X0288918Y0197390D01*
X0289010Y0197258D01*
X0289098Y0197124D01*
X0289183Y0196987D01*
X0289265Y0196849D01*
X0289343Y0196708D01*
X0289417Y0196566D01*
X0289488Y0196422D01*
X0289556Y0196276D01*
X0289619Y0196128D01*
X0289680Y0195979D01*
X0289736Y0195828D01*
X0289789Y0195676D01*
X0289838Y0195523D01*
X0289883Y0195369D01*
X0289924Y0195214D01*
X0289962Y0195057D01*
X0289995Y0194900D01*
X0290025Y0194742D01*
X0290051Y0194583D01*
X0290072Y0194424D01*
X0290090Y0194264D01*
X0290104Y0194104D01*
X0290114Y0193943D01*
X0290120Y0193783D01*
X0290122Y0193622D01*
X0290120Y0193461D01*
X0290114Y0193301D01*
X0290104Y0193140D01*
X0290090Y0192980D01*
X0290072Y0192820D01*
X0290051Y0192661D01*
X0290025Y0192502D01*
X0289995Y0192344D01*
X0289962Y0192187D01*
X0289924Y0192030D01*
X0289883Y0191875D01*
X0289838Y0191721D01*
X0289789Y0191568D01*
X0289736Y0191416D01*
X0289680Y0191265D01*
X0289619Y0191116D01*
X0289556Y0190968D01*
X0289488Y0190822D01*
X0289417Y0190678D01*
X0289343Y0190536D01*
X0289265Y0190395D01*
X0289183Y0190257D01*
X0289098Y0190120D01*
X0289010Y0189986D01*
X0288918Y0189854D01*
X0288823Y0189724D01*
X0288725Y0189596D01*
X0288624Y0189471D01*
X0288520Y0189349D01*
X0288413Y0189229D01*
X0288303Y0189112D01*
X0288190Y0188997D01*
X0288074Y0188886D01*
X0287955Y0188777D01*
X0287834Y0188672D01*
X0287710Y0188569D01*
X0287584Y0188469D01*
X0287456Y0188373D01*
X0287325Y0188280D01*
X0287191Y0188190D01*
X0287056Y0188103D01*
X0286918Y0188020D01*
X0286779Y0187940D01*
X0286637Y0187864D01*
X0286494Y0187791D01*
X0286349Y0187722D01*
X0286202Y0187656D01*
X0286054Y0187594D01*
X0285904Y0187536D01*
X0285753Y0187481D01*
X0285600Y0187430D01*
X0285446Y0187383D01*
X0285291Y0187340D01*
X0285135Y0187301D01*
X0284979Y0187265D01*
X0284821Y0187234D01*
X0284663Y0187206D01*
X0284504Y0187182D01*
X0284344Y0187162D01*
X0284184Y0187146D01*
X0284024Y0187134D01*
X0283863Y0187126D01*
X0283702Y0187122D01*
X0283542Y0187122D01*
X0283381Y0187126D01*
X0283220Y0187134D01*
X0283060Y0187146D01*
X0282900Y0187162D01*
X0282740Y0187182D01*
X0282581Y0187206D01*
X0282423Y0187234D01*
X0282265Y0187265D01*
X0282109Y0187301D01*
X0281953Y0187340D01*
X0281798Y0187383D01*
X0281644Y0187430D01*
X0281491Y0187481D01*
X0281340Y0187536D01*
X0281190Y0187594D01*
X0281042Y0187656D01*
X0280895Y0187722D01*
X0280750Y0187791D01*
X0280607Y0187864D01*
X0280465Y0187940D01*
X0280326Y0188020D01*
X0280188Y0188103D01*
X0280053Y0188190D01*
X0279919Y0188280D01*
X0279788Y0188373D01*
X0279660Y0188469D01*
X0279534Y0188569D01*
X0279410Y0188672D01*
X0279289Y0188777D01*
X0279170Y0188886D01*
X0279054Y0188997D01*
X0278941Y0189112D01*
X0278831Y0189229D01*
X0278724Y0189349D01*
X0278620Y0189471D01*
X0278519Y0189596D01*
X0278421Y0189724D01*
X0278326Y0189854D01*
X0278234Y0189986D01*
X0278146Y0190120D01*
X0278061Y0190257D01*
X0277979Y0190395D01*
X0277901Y0190536D01*
X0277827Y0190678D01*
X0277756Y0190822D01*
X0277688Y0190968D01*
X0277625Y0191116D01*
X0277564Y0191265D01*
X0277508Y0191416D01*
X0277455Y0191568D01*
X0277406Y0191721D01*
X0277361Y0191875D01*
X0277320Y0192030D01*
X0277282Y0192187D01*
X0277249Y0192344D01*
X0277219Y0192502D01*
X0277193Y0192661D01*
X0277172Y0192820D01*
X0277154Y0192980D01*
X0277140Y0193140D01*
X0277130Y0193301D01*
X0277124Y0193461D01*
X0277122Y0193622D01*
M02*
